<?xml version="1.0" encoding="UTF-8" standalone="no"?>
<svg
   version="1.1"
   id="svg2"
   xml:space="preserve"
   width="50.000011"
   height="114"
   viewBox="0 0 50.00001 113.99999"
   sodipodi:docname="soos.svg"
   inkscape:version="1.1.2 (b8e25be833, 2022-02-05)"
   xmlns:inkscape="http://www.inkscape.org/namespaces/inkscape"
   xmlns:sodipodi="http://sodipodi.sourceforge.net/DTD/sodipodi-0.dtd"
   xmlns="http://www.w3.org/2000/svg"
   xmlns:svg="http://www.w3.org/2000/svg"
   xmlns:rdf="http://www.w3.org/1999/02/22-rdf-syntax-ns#"
   xmlns:cc="http://creativecommons.org/ns#"
   xmlns:dc="http://purl.org/dc/elements/1.1/"><metadata
     id="metadata8"><rdf:RDF><cc:Work
         rdf:about=""><dc:format>image/svg+xml</dc:format><dc:type
           rdf:resource="http://purl.org/dc/dcmitype/StillImage" /></cc:Work></rdf:RDF></metadata><defs
     id="defs6"><clipPath
       clipPathUnits="userSpaceOnUse"
       id="clipPath18"><path
         d="M 0,841.89 H 1190.551 V 0 H 0 Z"
         id="path16" /></clipPath></defs><sodipodi:namedview
     pagecolor="#ffffff"
     bordercolor="#666666"
     borderopacity="1"
     objecttolerance="10"
     gridtolerance="10"
     guidetolerance="10"
     inkscape:pageopacity="0"
     inkscape:pageshadow="2"
     inkscape:window-width="1360"
     inkscape:window-height="697"
     id="namedview4"
     inkscape:pagecheckerboard="0"
     showgrid="false"
     fit-margin-top="0"
     fit-margin-left="0"
     fit-margin-right="0"
     fit-margin-bottom="0"
     inkscape:zoom="3.777413"
     inkscape:cx="18.663567"
     inkscape:cy="53.475752"
     inkscape:window-x="-1368"
     inkscape:window-y="-8"
     inkscape:window-maximized="1"
     inkscape:current-layer="g10"
     height="60px" /><g
     id="g10"
     inkscape:groupmode="layer"
     inkscape:label="soos"
     transform="matrix(1.3333333,0,0,-1.3333333,-149.6385,1060.4778)"><g
       id="g12"
       style="opacity:0.64;fill:#8b0000;fill-opacity:1"
       transform="matrix(0.05997092,0,0,0.05997092,105.49841,747.66001)"><g
         id="g14"
         clip-path="url(#clipPath18)"
         style="fill:#8b0000;fill-opacity:1"><g
           id="g20"
           transform="translate(580.3139,593.3517)"
           style="fill:#8b0000;fill-opacity:1"><path
             d="m 0,0 c -0.461,-1.042 -0.922,-2.085 -1.383,-3.127 4.1,-6.928 76.426,-37.334 99.011,-40.677 C 65.085,-29.202 32.543,-14.601 0,0 M 5.737,123.224 C 2.124,114.16 6.688,108.706 12.644,104.068 48.188,76.393 83.797,48.803 119.417,21.227 c 1.718,-1.33 3.737,-2.266 6.745,-4.058 C 85.352,53.109 45.694,88.035 5.737,123.224 M -260.621,1.428 c -63.488,-20.892 -126.473,-41.617 -189.458,-62.343 0.223,-0.838 0.445,-1.677 0.668,-2.516 2.943,0.484 5.958,0.706 8.819,1.492 20.095,5.52 40.274,10.769 60.206,16.84 36.567,11.137 72.998,22.733 109.446,34.265 5.646,1.786 12.071,3.391 10.319,12.262 M -436.65,15.782 c 7.308,3.624 15.335,7.172 22.957,11.454 46.627,26.194 93.279,52.348 139.641,79.015 10.747,6.182 10.587,8.434 5.848,18.165 C -324.423,88.159 -380.801,51.799 -436.65,15.782 M -13.474,3.802 H -247.157 V -7.071 c 49.778,0 98.808,-0.122 147.837,0.05 25.935,0.091 51.868,0.676 77.802,1.076 5.838,0.09 10.232,1.661 8.044,9.747 m -49.313,140.046 c 0.141,0.698 0.282,1.396 0.423,2.093 -22.942,13.366 -45.963,26.598 -68.771,40.192 -5.686,3.389 -10.272,3.005 -15.64,-0.533 -18.536,-12.22 -37.286,-24.11 -55.92,-36.179 -1.63,-1.055 -3.015,-2.493 -6.676,-5.573 z m 56.932,-10.127 c -83.298,-6.791 -165.633,-5.137 -247.866,0.137 -2.761,-18.762 -1.54,-21.593 11.45,-21.743 63.939,-0.738 127.881,-1.308 191.824,-1.536 14.376,-0.051 28.758,1.504 43.442,2.337 0.423,7.641 0.767,13.865 1.15,20.805 M -15.169,20.135 C -5.119,16.406 4.792,13.306 14.226,9.116 37.946,-1.417 61.38,-12.6 85.066,-23.21 c 14.574,-6.528 29.402,-12.481 45.583,-19.311 0.952,9.797 1.975,17.886 2.3,26.005 0.056,1.395 -2.7,3.147 -4.426,4.338 -44.141,30.431 -88.317,60.81 -132.491,91.193 -2.959,2.035 -5.95,4.024 -11.201,7.573 z m -424.536,-63.617 c 64.804,21.432 128.566,42.519 193.742,64.074 -1.148,21.606 -2.323,43.731 -3.594,67.643 -9.795,-5.24 -17.507,-9.486 -25.322,-13.527 -47.486,-24.556 -94.998,-49.061 -142.495,-73.595 -8.248,-4.261 -20.102,-6.626 -23.696,-13.416 -3.764,-7.11 0.419,-18.496 1.365,-31.179 M -25.65,91.675 h -209.445 c 0,-21.305 0.133,-42.33 -0.071,-63.351 -0.074,-7.629 2.868,-10.888 10.654,-10.934 46.238,-0.274 92.474,-0.886 138.711,-1.271 18.615,-0.155 37.232,-0.026 56.566,-0.026 1.269,26.746 2.413,50.874 3.585,75.582 M -6.336,-439.56 c 2.565,2.24 4.052,3.325 5.287,4.649 42.76,45.87 87.308,89.837 135.307,130.187 2.251,1.893 3.508,6.432 3.31,9.618 -1.689,27.061 -4.603,54.064 -5.646,81.143 -1.693,44.004 -2.33,88.052 -3.172,132.085 -0.094,4.935 -1.553,7.142 -6.312,8.736 -34.748,11.635 -69.396,23.574 -104.045,35.506 -11.874,4.09 -23.661,8.433 -37.306,13.31 0.855,-139.042 -3.358,-276.547 12.577,-415.234 m -238.633,-8.643 h 226.558 c -11.394,142.434 -15.305,283.701 -12.342,425.588 h -202.614 c -0.162,-142.763 3.028,-284.911 -11.602,-425.588 m -2.899,423.658 c -2.964,-0.657 -6.039,-1.159 -9.011,-2.023 -55.823,-16.232 -111.537,-32.862 -167.539,-48.443 -10.055,-2.797 -12.636,-6.947 -12.757,-16.861 -0.486,-39.888 -1.23,-79.798 -3.2,-119.633 -1.448,-29.289 -4.895,-58.48 -7.591,-87.701 -0.472,-5.124 0.127,-8.559 5.376,-11.607 60.471,-35.122 117.27,-75.592 171.014,-120.451 4.682,-3.907 9.525,-7.617 14.717,-11.757 10.159,34.023 17.671,394.062 8.991,418.476 m 388.512,-53.958 c 2.598,-62.153 5.095,-124.31 7.883,-186.453 0.542,-12.097 2.73,-24.128 3.06,-36.219 0.099,-3.584 -2.777,-8.116 -5.613,-10.784 -31.03,-29.195 -62.693,-57.715 -93.4,-87.247 -17.397,-16.732 -33.665,-34.704 -49.784,-52.715 -6.658,-7.439 -13.432,-11.097 -23.691,-11.041 -72.855,0.398 -145.714,0.454 -218.567,-0.03 -12.134,-0.08 -20.94,3.191 -30.402,11.33 -52.82,45.443 -108.479,87.257 -169.014,121.658 -19.036,10.818 -25.923,20.55 -21.855,43.965 10.775,62.03 11.564,125.082 10.416,188.022 -0.154,8.459 1.136,17.13 -10.47,21.491 -7.937,2.983 -5.614,23.978 1.711,28.836 2.522,1.672 4.866,5.472 5.073,8.456 0.459,6.63 0.117,13.473 -1.111,19.997 -0.607,3.219 -3.31,7.533 -6.09,8.578 -11.38,4.274 -4.822,13.58 -6.392,20.478 -1.318,5.787 1.59,9.013 6.849,11.797 65.972,34.926 128.963,74.698 187.947,120.615 10.265,7.991 19.614,3.193 29.5,3.716 4.456,0.237 9.554,0.469 13.161,2.686 25.389,15.613 50.669,31.429 75.547,47.852 10.879,7.181 20.51,7.298 31.647,0.7 27.258,-16.148 55.027,-31.417 82.346,-47.461 7.261,-4.265 14.35,-6.066 22.52,-4.278 14.621,3.2 25.814,-0.663 36.907,-12.178 40.659,-42.207 84.934,-80.467 131.885,-115.432 7.272,-5.415 6.406,-11.665 6.197,-18.427 -0.198,-6.392 3.072,-14.653 -7.778,-16.365 -1.557,-0.246 -3.376,-3.762 -3.712,-5.974 -0.955,-6.3 -1.567,-12.708 -1.548,-19.072 0.007,-2.396 1.563,-6.229 3.365,-6.935 9.095,-3.56 9.334,-11.311 7.733,-18.304 -1.009,-4.406 -5.991,-7.888 -9.19,-11.784 -1.71,0.174 -3.42,0.348 -5.13,0.522"
             style="fill:#8b0000;fill-opacity:1;fill-rule:nonzero;stroke:none"
             id="path22" /></g><g
           id="g24"
           transform="translate(269.6682,281.6957)"
           style="fill:#8b0000;fill-opacity:1"><path
             d="m 0,0 c 1.661,25.14 3.296,50.281 5.02,75.417 0.194,2.831 0.149,6.113 1.562,8.302 1.389,2.152 4.45,4.244 6.86,4.345 1.769,0.075 4.951,-2.897 5.273,-4.88 0.914,-5.614 1.107,-11.44 0.829,-17.145 -1.447,-29.621 -2.919,-59.246 -4.893,-88.835 -0.433,-6.488 1.433,-10.029 7.188,-12.593 5.169,-2.303 10.152,-5.224 14.796,-8.483 5.171,-3.629 6.738,-9.378 2.39,-13.911 -1.819,-1.897 -7.991,-1.3 -11.193,0.247 -7.944,3.837 -15.794,8.258 -22.719,13.692 -3.432,2.694 -6.504,8.07 -6.664,12.35 -0.389,10.459 1.012,20.986 1.692,31.485 C 0.094,-0.006 0.047,-0.003 0,0"
             style="fill:#8b0000;fill-opacity:1;fill-rule:nonzero;stroke:none"
             id="path26" /></g><g
           id="g28"
           transform="translate(292.6393,512.3669)"
           style="fill:#8b0000;fill-opacity:1"><path
             d="m 0,0 c 0,-25.534 0.061,-50.989 -0.035,-76.444 -0.031,-8.28 0.038,-16.627 -1.024,-24.799 -0.342,-2.635 -4.157,-4.811 -6.384,-7.196 -2.209,2.297 -6.291,4.55 -6.346,6.898 -0.808,34.396 -1.012,68.805 -1.536,103.208 -0.099,6.498 2.385,9.852 8.91,10.892 8.083,1.288 16.004,3.661 24.101,4.783 2.439,0.338 5.233,-1.934 7.864,-3.01 C 24.261,11.657 23.611,7.467 21.564,6.589 15.265,3.887 8.43,2.452 0,0"
             style="fill:#8b0000;fill-opacity:1;fill-rule:nonzero;stroke:none"
             id="path30" /></g><g
           id="g32"
           transform="translate(233.2147,364.2381)"
           style="fill:#8b0000;fill-opacity:1"><path
             d="m 0,0 c -1.953,-23.558 -3.691,-47.712 -6.099,-71.798 -0.807,-8.073 0.929,-13.572 8.941,-16.248 1.77,-0.591 4.372,-1.426 4.819,-2.754 1.396,-4.146 1.942,-8.581 2.818,-12.904 -3.268,-0.162 -7.025,-1.472 -9.727,-0.304 -23.735,10.26 -23.614,10.386 -21.808,34.447 1.907,25.413 3.654,50.839 5.528,76.254 0.186,2.519 -0.065,5.845 1.375,7.314 2.149,2.193 5.666,4.218 8.516,4.106 1.954,-0.076 4.759,-3.643 5.4,-6.118 C 0.689,8.418 0,4.416 0,0"
             style="fill:#8b0000;fill-opacity:1;fill-rule:nonzero;stroke:none"
             id="path34" /></g><g
           id="g36"
           transform="translate(234.9122,503.6353)"
           style="fill:#8b0000;fill-opacity:1"><path
             d="m 0,0 c 0,-27.009 0.076,-53.75 -0.095,-80.49 -0.021,-3.376 -0.548,-7.272 -2.308,-9.944 -1.327,-2.014 -5.103,-3.492 -7.597,-3.244 -1.734,0.173 -4.498,3.681 -4.494,5.694 0.071,31.24 0.489,62.479 0.966,93.717 0.026,1.681 1.015,4.596 2.019,4.819 8.583,1.912 17.243,3.587 25.962,4.634 1.318,0.158 4.482,-3.462 4.291,-5.023 C 18.422,7.532 16.637,3.839 14.499,2.943 10.242,1.159 5.328,0.972 0,0"
             style="fill:#8b0000;fill-opacity:1;fill-rule:nonzero;stroke:none"
             id="path38" /></g><g
           id="g40"
           transform="translate(168.3852,319.5492)"
           style="fill:#8b0000;fill-opacity:1"><path
             d="m 0,0 c 1.335,15.706 3.058,39.562 5.722,63.312 0.384,3.425 4.953,8.513 8.176,9.021 6.347,1 6.997,-4.657 6.598,-9.851 C 18.91,41.819 17.532,21.136 15.699,0.495 c -0.803,-9.044 -2.28,-17.513 7.85,-23.136 2.908,-1.614 3.704,-7.095 5.468,-10.803 -4.293,-0.319 -9.039,-1.997 -12.801,-0.722 C 0.267,-28.763 -0.535,-26.979 0,0"
             style="fill:#8b0000;fill-opacity:1;fill-rule:nonzero;stroke:none"
             id="path42" /></g><g
           id="g44"
           transform="translate(191.1262,496.8967)"
           style="fill:#8b0000;fill-opacity:1"><path
             d="m 0,0 c 0,-22.129 0.027,-43.775 -0.026,-65.422 -0.009,-3.818 0.788,-8.278 -0.869,-11.27 -1.627,-2.938 -5.734,-4.857 -9.154,-6.111 -0.751,-0.276 -4.602,4.115 -4.646,6.404 -0.517,27.078 -0.735,54.167 -0.493,81.248 0.021,2.356 3.445,5.768 6.022,6.768 4.327,1.681 9.255,2.449 13.911,2.374 2.956,-0.048 5.877,-2.315 8.814,-3.587 C 11.5,7.701 9.743,4.659 7.269,2.422 5.781,1.077 3.176,0.987 0,0"
             style="fill:#8b0000;fill-opacity:1;fill-rule:nonzero;stroke:none"
             id="path46" /></g><g
           id="g48"
           transform="translate(427.266,221.3824)"
           style="fill:#8b0000;fill-opacity:1"><path
             d="m 0,0 v 123.391 h -52.632 c -0.537,-2.301 -0.902,-3.192 -0.932,-4.093 C -54.773,83.324 -56.022,47.352 -57.039,11.373 -57.158,7.159 -55.974,2.908 -55.576,0 Z m -67.699,-14.28 c 0,18.865 -0.334,37.615 0.08,56.348 0.586,26.469 1.66,52.928 2.651,79.386 0.545,14.545 1.284,15.232 15.303,15.292 17.09,0.074 34.185,-0.193 51.27,0.112 7.505,0.133 11.243,-2.479 11.122,-10.422 C 12.054,82.095 11.623,37.749 10.691,-6.586 10.633,-9.329 7.076,-14.285 5.03,-14.348 c -23.375,-0.721 -46.772,-0.702 -70.163,-0.822 -0.869,-0.005 -1.742,0.591 -2.566,0.89"
             style="fill:#8b0000;fill-opacity:1;fill-rule:nonzero;stroke:none"
             id="path50" /></g><g
           id="g52"
           transform="translate(466.6622,344.9897)"
           style="fill:#8b0000;fill-opacity:1"><path
             d="M 0,0 V -122.7 H 55.478 C 53.81,-81.582 52.169,-41.108 50.501,0 Z m -10.931,13.024 c 22.065,0 42.944,-0.209 63.815,0.113 7.369,0.114 9.985,-2.732 10.222,-10.037 0.966,-29.649 2.372,-59.283 3.589,-88.924 0.575,-14.024 1.224,-28.048 1.572,-42.079 0.165,-6.695 -1.713,-12.202 -10.009,-11.916 -21.503,0.742 -43.006,1.48 -64.506,2.286 -1.519,0.057 -3.019,0.656 -4.683,1.038 z"
             style="fill:#8b0000;fill-opacity:1;fill-rule:nonzero;stroke:none"
             id="path54" /></g><path
           d="M 515.94,521.628 H 465.322 V 410.697 h 50.618 z m -62.443,-54.567 c -0.009,19.128 0.145,38.259 -0.102,57.384 -0.076,5.85 1.753,9.284 7.816,9.31 19.924,0.083 39.848,0.1 59.772,0.067 6,-0.01 8.287,-3.68 8.293,-9.244 0.037,-37.977 0.368,-75.959 -0.094,-113.93 -0.152,-12.446 -3.078,-14.317 -15.035,-13.961 -16.443,0.49 -32.881,1.23 -49.326,1.586 -7.68,0.167 -11.587,2.949 -11.428,11.408 0.359,19.121 0.113,38.253 0.104,57.38"
           style="fill:#8b0000;fill-opacity:1;fill-rule:nonzero;stroke:none"
           id="path56" /><path
           d="M 376.182,410.077 H 427.86 V 522.305 H 376.182 Z M 363.958,533.95 c 23.138,0 44.909,0.253 66.658,-0.34 2.55,-0.069 7.067,-4.74 7.144,-7.382 1.145,-39.52 1.811,-79.055 2.124,-118.591 0.021,-2.576 -3.634,-7.331 -5.763,-7.441 -21.431,-1.101 -42.898,-1.592 -64.36,-1.91 -6.799,-0.1 -5.712,5.691 -5.73,9.905 -0.116,28.073 -0.068,56.146 -0.073,84.219 -0.002,13.377 0,26.753 0,41.54"
           style="fill:#8b0000;fill-opacity:1;fill-rule:nonzero;stroke:none"
           id="path58" /><g
           id="g60"
           transform="translate(616.0269,250.1894)"
           style="fill:#8b0000;fill-opacity:1"><path
             d="m 0,0 c -1.586,-3.256 -2.424,-7.343 -4.901,-9.609 -6.769,-6.194 -13.961,-12.027 -21.57,-17.114 -2.456,-1.642 -6.728,-0.522 -10.169,-0.666 -0.092,3.93 -1.543,8.597 0.062,11.609 2.108,3.957 6.269,7.163 10.181,9.7 6.522,4.229 9.071,9.296 8.479,17.404 -2.37,32.468 -4.114,64.983 -5.874,97.493 -0.16,2.954 0.312,6.9 2.129,8.738 1.807,1.827 6.094,2.748 8.526,1.88 2.112,-0.754 4.272,-4.469 4.485,-7.038 C -7.229,95.226 -6.289,78.014 -5.257,60.811 -4.053,40.738 -2.915,20.661 -1.748,0.586 -1.166,0.391 -0.583,0.195 0,0"
             style="fill:#8b0000;fill-opacity:1;fill-rule:nonzero;stroke:none"
             id="path62" /></g><g
           id="g64"
           transform="translate(605.6209,464.8754)"
           style="fill:#8b0000;fill-opacity:1"><path
             d="m 0,0 c 0,-16.901 0.051,-33.802 -0.032,-50.702 -0.024,-4.873 -0.064,-9.929 -6.98,-10.223 -7.201,-0.305 -7.334,5.374 -7.465,9.84 -0.587,20.075 -0.691,40.165 -0.967,60.249 -0.128,9.245 -0.101,18.497 -0.421,27.736 -0.27,7.79 -1.939,14.155 -11.811,15.276 -2.806,0.318 -7.313,5.853 -7.09,8.679 0.487,6.175 5.663,4.774 10.304,3.712 C 0.345,58.891 0.365,58.982 0.365,33.488 V 0 C 0.243,0 0.122,0 0,0"
             style="fill:#8b0000;fill-opacity:1;fill-rule:nonzero;stroke:none"
             id="path66" /></g><g
           id="g68"
           transform="translate(660.2864,278.6497)"
           style="fill:#8b0000;fill-opacity:1"><path
             d="m 0,0 c -0.544,-0.845 -1.597,-3.577 -3.538,-5.281 -4.764,-4.183 -9.648,-8.392 -15.069,-11.576 -2.647,-1.555 -6.601,-0.847 -9.964,-1.163 -0.069,4.179 -0.232,8.36 -0.116,12.534 0.019,0.696 1.129,1.636 1.939,1.995 12.582,5.583 10.194,16.245 9.443,26.762 -1.726,24.167 -2.821,48.379 -4.516,72.549 -0.425,6.07 2.138,10.045 7.435,9.385 2.746,-0.342 6.729,-5.458 7.01,-8.696 2.405,-27.664 4.075,-55.393 6.007,-83.1 C -1.102,9.593 -0.599,5.795 0,0"
             style="fill:#8b0000;fill-opacity:1;fill-rule:nonzero;stroke:none"
             id="path70" /></g><g
           id="g72"
           transform="translate(650.6761,412.374)"
           style="fill:#8b0000;fill-opacity:1"><path
             d="m 0,0 c -11.993,-3.518 -14.192,-2.065 -14.474,9.636 -0.591,24.494 -1.079,48.991 -1.487,73.489 -0.091,5.456 -0.452,9.858 -7.553,10.738 -2.076,0.258 -3.661,4.538 -5.472,6.974 2.846,1.785 5.685,3.582 8.552,5.332 0.195,0.119 0.599,-0.131 0.91,-0.178 C 0.786,102.897 1.009,102.596 0.849,81.708 0.652,55.917 0.517,30.125 0.337,4.334 0.328,3.068 0.145,1.804 0,0"
             style="fill:#8b0000;fill-opacity:1;fill-rule:nonzero;stroke:none"
             id="path74" /></g><g
           id="g76"
           transform="translate(693.5757,306.8486)"
           style="fill:#8b0000;fill-opacity:1"><path
             d="m 0,0 c 0.36,-9.742 -3.403,-15.745 -16.64,-20.624 -1.736,-0.64 -5.933,0.509 -6.092,1.373 -0.735,3.982 -2.126,10.423 -0.221,11.861 7.297,5.508 6.328,12.165 5.852,19.692 -1.285,20.364 -1.945,40.769 -2.806,61.159 -0.094,2.224 -0.75,5.199 0.37,6.534 2.093,2.494 5.103,4.817 8.138,5.595 1.201,0.308 4.874,-3.571 5.071,-5.759 C -4.072,54.753 -2.27,29.633 0,0"
             style="fill:#8b0000;fill-opacity:1;fill-rule:nonzero;stroke:none"
             id="path78" /></g><g
           id="g80"
           transform="translate(686.9387,463.6141)"
           style="fill:#8b0000;fill-opacity:1"><path
             d="m 0,0 c 0,-10.824 0.105,-21.649 -0.057,-32.47 -0.056,-3.794 0.098,-8 -1.454,-11.233 -1.254,-2.612 -4.787,-5.251 -7.572,-5.574 -1.839,-0.213 -5.29,3.322 -5.989,5.769 -1.285,4.491 -1.388,9.416 -1.426,14.165 -0.141,17.847 -0.137,35.697 -0.005,53.544 0.037,4.943 0.101,9.189 -5.485,11.815 -2.016,0.947 -2.597,4.997 -3.833,7.63 2.676,1.163 5.446,3.504 8.013,3.297 15.631,-1.258 16.45,-2.359 16.53,-18.279 C -1.231,19.112 -1.27,9.558 -1.27,0.005 -0.846,0.003 -0.423,0.002 0,0"
             style="fill:#8b0000;fill-opacity:1;fill-rule:nonzero;stroke:none"
             id="path82" /></g></g></g><path
       style="display:inline;opacity:0.64;fill:#8b0000;fill-opacity:1;stroke:none;stroke-width:0.0178458;stroke-miterlimit:4;stroke-dasharray:none;stroke-opacity:1"
       d="m 124.40433,717.48915 c -1.12506,0.17422 -1.36031,0.30435 -1.36028,0.75268 0,0.37856 0.25214,0.77726 1.23703,1.95605 1.70943,2.04601 3.92087,4.77769 3.89122,4.80665 -0.0182,0.0178 -0.37796,0.24397 -0.7994,0.50257 -0.42148,0.25858 -1.03398,0.68403 -1.36114,0.94539 -1.05424,0.84224 -2.83936,2.88955 -3.46702,3.97626 -0.12651,0.21903 -0.25075,0.39827 -0.2761,0.39832 -0.0253,0 -0.19028,-0.24495 -0.36654,-0.54446 -0.84936,-1.44328 -4.22322,-5.10015 -5.78889,-6.27445 -0.92018,-0.69019 -1.36321,-0.80974 -1.61406,-0.43556 -0.13288,0.19819 -0.12393,0.26375 0.17458,1.27888 0.91371,3.10734 1.17986,7.61421 0.61285,10.37827 -0.0662,0.32285 -0.18658,0.96437 -0.26747,1.4256 -0.23614,1.34659 -0.99902,3.78669 -1.96292,6.27845 -0.12257,0.31684 -0.35798,0.79347 -0.52315,1.05921 -0.34911,0.56167 -0.4029,1.03057 -0.13433,1.17105 0.49084,0.25674 0.94362,0.0131 3.26619,-1.75726 2.06926,-1.57731 2.497,-1.92449 3.24809,-2.63636 0.96514,-0.91476 1.25345,-1.27195 2.47534,-3.06686 0.51806,-0.76102 1.00191,-1.43214 1.07523,-1.49139 0.11495,-0.0929 0.4931,0.25891 2.74811,2.55653 2.40433,2.44976 2.60611,2.67783 2.5065,2.83312 -0.0596,0.0929 -0.13403,0.39531 -0.16546,0.67204 -0.18154,1.59899 -1.0556,3.54893 -1.95744,4.36688 -0.58991,0.53503 -1.89444,1.43357 -2.5473,1.75455 -0.98057,0.48211 -1.23285,0.84537 -0.88149,1.2693 0.21307,0.25708 0.38484,0.32317 1.39157,0.53539 1.59981,0.33724 3.58772,0.12927 5.36092,-0.56086 2.47286,-0.96245 4.69183,-2.40435 5.24556,-3.40861 0.23342,-0.42335 0.0853,-0.40486 -0.39883,0.0498 -0.26108,0.24517 -0.80443,0.66021 -1.20747,0.92229 -0.86393,0.56181 -2.76856,1.54093 -3.67949,1.89158 -0.76151,0.2931 -1.22198,0.41733 -0.77223,0.20834 0.48749,-0.22654 0.1126,-0.22465 -0.82588,0.004 -1.1456,0.27931 -2.50346,0.34827 -3.32056,0.16863 -0.33864,-0.0744 -0.64828,-0.15414 -0.6881,-0.17711 -0.0398,-0.023 0.21115,-0.19194 0.55772,-0.37549 1.33398,-0.70652 2.23284,-1.49713 2.98298,-2.62363 0.86344,-1.29671 1.21826,-2.17366 1.55242,-3.83692 l 0.097,-0.48258 0.95914,0.84529 c 0.52751,0.4649 1.38384,1.12092 1.90297,1.45781 1.34525,0.87305 3.06102,1.759 2.35961,1.2184 -0.17952,-0.13836 -0.12353,-0.12941 0.34321,0.0549 1.2786,0.50482 3.23068,1.12826 4.01163,1.28121 3.50895,0.68718 6.50793,0.28843 9.80633,-1.3039 1.1051,-0.5335 1.45518,-0.81285 1.45518,-1.16126 0,-0.21232 -0.24657,-0.4629 -0.4555,-0.4629 -0.0779,0 -0.44167,-0.054 -0.80837,-0.11991 -0.36671,-0.0659 -0.95633,-0.1635 -1.31026,-0.21679 -1.24403,-0.18728 -3.04092,-0.61054 -3.64096,-0.85765 -0.33348,-0.13733 -0.69305,-0.26107 -0.79901,-0.27498 -0.31603,-0.0415 -1.0409,-0.51998 -1.94742,-1.28554 l -0.85302,-0.7204 0.27198,-0.0543 c 0.1496,-0.0299 0.82305,-0.39331 1.49656,-0.80757 1.29517,-0.79662 1.71713,-1.02975 1.86384,-1.02975 0.16632,0 0.0922,0.75617 -0.17509,1.7869 -0.14584,0.5623 -0.27081,1.2431 -0.27771,1.51289 -0.0107,0.42172 0.0158,0.51288 0.18888,0.64991 0.40158,0.31781 0.86029,0.14483 2.11297,-0.79679 0.47192,-0.35472 1.14575,-0.83815 1.49739,-1.07429 0.53196,-0.35723 0.61134,-0.43894 0.4725,-0.48655 -0.14751,-0.0506 -0.13375,-0.0739 0.11866,-0.20151 0.15706,-0.0793 0.40387,-0.14758 0.54849,-0.15161 0.56154,-0.0156 0.66723,0.54785 0.45666,2.4345 -0.14102,1.26369 -0.13916,1.55931 0.009,1.41453 0.10142,-0.0991 0.36957,-1.58894 0.42661,-2.37045 0.0679,-0.93037 0.005,-1.29368 -0.2798,-1.62489 -0.18072,-0.20991 -0.28247,-0.25406 -0.58569,-0.25406 -0.4782,0 -1.35508,0.43067 -2.14899,1.05544 -0.71991,0.56654 -1.50712,1.12082 -1.96526,1.38374 l -0.335,0.1922 0.061,-0.45616 c 0.0336,-0.25088 0.15191,-0.81466 0.26302,-1.25282 0.29327,-1.15658 0.33074,-1.46684 0.2176,-1.80186 -0.26071,-0.772 -0.95384,-0.62128 -2.65717,0.57776 -1.08293,0.76233 -1.37077,0.88113 -1.44914,0.80454 -0.0529,-0.0517 0.0822,-0.553 0.45962,-1.88656 0.34197,-1.20849 0.26155,-1.7191 -0.27072,-1.71909 -0.23838,-10e-6 -1.0428,0.29847 -1.95812,0.72654 -0.32902,0.15386 -0.66687,0.27976 -0.75079,0.27976 -0.24478,0 -0.1911,-0.46032 0.19063,-1.63525 0.50379,-1.55054 0.47536,-1.88704 -0.15932,-1.88643 -0.30331,0 -0.59243,0.0954 -1.21134,0.39833 -0.4471,0.21888 -0.82678,0.44515 -0.84376,0.50282 -0.0362,0.12326 0.0224,0.10678 0.97026,-0.27257 1.26537,-0.50646 1.36104,-0.47622 1.11359,0.35189 -0.08,0.26766 -0.1564,0.56214 -0.1698,0.65438 -0.0134,0.0923 -0.0896,0.33754 -0.16921,0.54508 -0.0797,0.20755 -0.19307,0.60242 -0.25207,0.87749 l -0.10728,0.50014 -0.51623,-0.75171 c -0.60816,-0.88557 -1.14382,-1.8278 -1.40463,-2.47081 -0.38816,-0.95693 -0.77715,-2.40218 -0.82726,-3.07365 -0.0455,-0.60988 -0.0305,-0.7161 0.13885,-0.98395 0.79542,-1.25785 6.48136,-3.73094 9.83061,-4.27584 1.4506,-0.23599 4.48545,-0.60318 4.53838,-0.5491 0.0191,0.0195 -0.0563,0.69583 -0.1675,1.50297 -0.28336,2.05676 -0.56719,3.10278 -0.8419,3.10278 -0.14566,0 -0.60792,-0.62727 -1.50758,-2.04568 -0.82894,-1.30696 -1.05888,-1.56025 -1.41636,-1.56025 -0.46934,-1e-5 -0.55698,0.18553 -0.7796,1.65041 -0.11087,0.72962 -0.24723,1.45208 -0.30303,1.60547 l -0.10145,0.2789 -0.2982,-0.2789 c -0.164,-0.15339 -0.66199,-0.7202 -1.10663,-1.25956 -0.44465,-0.53937 -0.90936,-1.05825 -1.03268,-1.15305 -0.3067,-0.23578 -0.59422,-0.22007 -0.76996,0.0421 -0.12565,0.18741 -0.13659,0.37782 -0.0867,1.50895 0.0638,1.44533 0.0158,1.96635 -0.18135,1.96635 -0.0707,10e-6 -0.60148,-0.45284 -1.17951,-1.00631 -1.07167,-1.02615 -1.32172,-1.167 -1.49853,-0.84409 -0.1147,0.20941 -0.11279,0.97282 0.005,2.15531 0.18781,1.87989 -0.19258,1.99624 -1.84052,0.56292 -1.01733,-0.88482 -1.15863,-0.99173 -1.22506,-0.92683 -0.0899,0.0879 1.41702,1.54713 1.97296,1.91048 1.09808,0.71768 1.62613,0.24454 1.43032,-1.28167 -0.10042,-0.78273 -0.11911,-2.16312 -0.0292,-2.16312 0.0327,10e-6 0.50604,0.45565 1.05192,1.01257 0.97546,0.99519 0.99837,1.0121 1.33491,0.98534 0.29362,-0.0233 0.36378,-0.0691 0.49243,-0.32074 0.12631,-0.2471 0.14986,-0.53214 0.14884,-1.80298 1e-5,-1.0055 -0.0289,-1.46745 -0.0844,-1.38364 -0.0457,0.0692 -0.0832,0.088 -0.0832,0.042 0,-0.0462 0.0307,-0.13115 0.0683,-0.18891 0.09,-0.13851 0.29955,0.085 1.2991,1.38544 0.84994,1.1058 1.21933,1.445 1.57359,1.445 0.48546,0 0.60618,-0.29827 0.91292,-2.25585 0.0886,-0.56521 0.18642,-1.05247 0.21745,-1.08278 0.0808,-0.079 0.27603,0.18628 1.30075,1.7679 1.02044,1.57503 1.26054,1.82645 1.7322,1.81395 0.27468,-0.008 0.28762,-0.016 0.10066,-0.0681 l -0.21451,-0.0598 0.21537,-0.0543 c 0.11846,-0.0298 0.28329,-0.16655 0.36623,-0.30384 0.22375,-0.37018 0.46794,-1.62935 0.62782,-3.23746 0.0809,-0.81384 0.18323,-1.45203 0.23841,-1.4872 0.0532,-0.0339 0.26329,-0.0622 0.46696,-0.0629 0.54843,-0.002 0.70225,-0.11231 0.70225,-0.50411 0,-0.38119 -0.17727,-0.58258 -0.77224,-0.87737 -0.43602,-0.21602 -2.15993,-0.64081 -2.74574,-0.67656 -0.21235,-0.0129 -0.94598,-0.11941 -1.63027,-0.23655 -2.07251,-0.35477 -3.24944,-0.42216 -5.42496,-0.31062 -1.70402,0.0873 -3.3204,0.24202 -4.07887,0.39027 l -0.26379,0.0516 0.0865,-0.36549 c 0.12432,-0.52557 0.0411,-1.31353 -0.1844,-1.7455 -0.10585,-0.20283 -0.39036,-0.57321 -0.63218,-0.82311 -0.46911,-0.48477 -1.60972,-1.20857 -1.66218,-1.05476 -0.0281,0.0823 -1.4683,-0.46128 -1.69747,-0.64074 -0.18127,-0.14195 -1.23746,-0.53742 -2.04893,-0.76718 -0.77342,-0.21896 -0.95753,-0.23901 -2.10219,-0.22903 -0.6994,0.006 -1.65876,0.0735 -2.16805,0.15238 z m 2.91806,0.79874 c 1.8406,0.36635 2.27907,0.53507 4.28982,1.65076 1.65955,0.92076 1.88413,1.15051 1.96375,2.00888 0.0502,0.54125 0.18163,0.61688 0.31024,0.17858 0.10357,-0.353 0.01,-0.77702 -0.25842,-1.16493 -0.18261,-0.26436 -0.19035,-0.29429 -0.0428,-0.16507 0.32801,0.28725 0.52782,0.81738 0.5273,1.39906 0,0.71459 -0.0866,0.98742 -0.74967,2.38002 -0.56387,1.18421 -0.79677,2.04581 -0.52947,1.95873 0.1298,-0.0422 1.26712,-1.87632 1.58187,-2.55088 0.21407,-0.45878 0.20929,-0.45606 1.15642,-0.65722 1.35756,-0.28836 4.90043,-0.49491 6.45135,-0.37612 2.74677,0.21037 6.84833,1.11317 7.13793,1.57113 0.0243,0.0387 -0.50126,0.11582 -1.16808,0.17165 -1.41031,0.11805 -4.40462,0.53726 -5.49971,0.76998 -0.4169,0.0886 -1.30497,0.35472 -1.9735,0.59139 -4.37069,1.54731 -7.00723,3.05781 -7.2899,4.17644 -0.0277,0.10991 -0.015,0.50383 0.0283,0.87541 0.0433,0.37157 0.0643,0.68978 0.0465,0.70714 -0.0178,0.0173 -0.0783,-0.23505 -0.13455,-0.56092 -0.14831,-0.85934 -0.29691,-0.7675 -0.22861,0.14127 0.0625,0.83197 0.3531,2.28855 0.47122,2.36212 0.0431,0.0268 0.29131,0.46391 0.55151,0.97127 0.64306,1.25377 1.83719,3.01531 2.80254,4.1342 0.3804,0.44091 0.56298,0.55675 0.45863,0.29097 -0.0313,-0.0798 0.50078,0.40316 1.1825,1.07325 1.40107,1.37721 2.7866,2.44392 3.80738,2.93127 0.38096,0.18188 1.11739,0.4482 1.63651,0.59182 0.51912,0.14364 1.00176,0.30989 1.07254,0.36946 0.20153,0.16961 0.69584,0.2478 0.77502,0.12258 0.0533,-0.0842 0.11894,-0.0852 0.31674,-0.005 0.15654,0.0634 0.32738,0.0747 0.4584,0.0303 0.11484,-0.0389 0.51772,-0.05 0.89526,-0.0248 l 0.68642,0.046 -0.47192,0.3033 c -0.67564,0.43421 -1.78074,0.96261 -2.52159,1.20567 -1.52781,0.50124 -2.87797,0.62482 -5.12576,0.46919 -1.63856,-0.11347 -2.27647,-0.24676 -4.06491,-0.84929 -1.60758,-0.5416 -2.97408,-1.17001 -4.06933,-1.87135 -1.01392,-0.64927 -3.59119,-2.88069 -4.72473,-4.0907 -1.5101,-1.61201 -3.64486,-3.70065 -4.029,-3.94198 -0.44766,-0.28124 -0.8383,-0.30658 -1.14085,-0.074 -0.11852,0.0911 -0.45705,0.57225 -0.75227,1.06921 -0.97614,1.64301 -1.45431,2.28376 -2.34587,3.14348 -1.06735,1.02925 -3.82887,3.34927 -4.64639,3.90356 l -0.60063,0.40722 0.35639,-0.71768 c 0.54689,-1.10126 1.71513,-5.10729 2.3002,-7.88759 0.29963,-1.4239 0.4661,-4.55409 0.30919,-5.81369 -0.26441,-2.12265 -0.36971,-2.83682 -0.5318,-3.60688 -0.0955,-0.45374 -0.15699,-0.84127 -0.13665,-0.86114 0.0708,-0.0692 2.85726,2.79032 3.79477,3.89423 0.51911,0.61125 1.21413,1.54077 1.54448,2.0656 0.33033,0.52483 0.69422,1.05156 0.80863,1.17053 0.39151,0.40706 0.89017,0.21995 1.00264,-0.37622 0.13486,-0.71481 1.22548,-2.24581 2.55852,-3.59164 0.92155,-0.93043 1.86094,-1.66332 2.76567,-2.1578 l 0.55706,-0.30447 0.33511,0.31982 c 0.36206,0.3455 0.51156,0.33388 0.37132,-0.0289 -0.16062,-0.41553 -1.93966,-2.97473 -2.00076,-2.87812 -0.0551,0.0871 -1.00702,-1.19873 -2.67596,-3.61474 -0.58743,-0.85039 -0.6353,-0.94893 -0.47192,-0.97149 0.10002,-0.0138 0.23869,-0.0441 0.30815,-0.0674 0.2,-0.067 -0.0661,-0.19819 -0.40515,-0.19973 -0.45615,-0.002 -0.31642,-0.15768 0.1716,-0.19105 1.21806,-0.0833 1.80137,-0.0529 2.79822,0.14547 z m 0.78769,10.12743 c -0.23826,0.2878 -0.41927,0.5614 -0.40224,0.60799 0.017,0.0466 -0.0417,0.18619 -0.13054,0.31023 -0.37519,0.5239 -1.1869,2.42214 -1.1869,2.77566 0,0.0427 0.0607,0.0548 0.13484,0.027 0.11772,-0.0442 0.12587,0.0106 0.0643,0.4313 -0.0387,0.26502 -0.0705,1.01017 -0.0705,1.65588 0,1.12405 0.0123,1.20703 0.28939,1.94971 0.18877,0.50601 0.33395,0.77569 0.41757,0.77569 0.088,0 0.11338,-0.0553 0.0811,-0.176 -0.0611,-0.2284 -0.0587,-0.22564 0.43954,0.52042 0.42182,0.63152 0.81828,0.99732 1.0809,0.99732 0.21069,0 0.16468,-0.15128 -0.1581,-0.51984 -0.16226,-0.18526 -0.49871,-0.73844 -0.74766,-1.22928 -0.24893,-0.49084 -0.48229,-0.90478 -0.51859,-0.91989 -0.14028,-0.0584 -0.23002,-0.69703 -0.28485,-2.02708 -0.0468,-1.13676 -0.0317,-1.49146 0.0854,-1.98774 0.19198,-0.81438 0.56811,-1.75157 1.07935,-2.68944 0.63274,-1.16076 0.5562,-1.3828 -0.17305,-0.50196 z m -1.40366,3.5177 c -0.0274,0.0669 -0.0477,0.047 -0.0518,-0.0507 -0.003,-0.0884 0.0166,-0.13792 0.0451,-0.11007 0.0285,0.0279 0.0316,0.10021 0.007,0.16075 z m -9.23965,-1.24195 c 0,0.15191 0.22661,0.33227 0.33512,0.26673 0.0468,-0.0284 0.17167,0.0627 0.27731,0.20243 0.10565,0.13965 0.26676,0.25391 0.35806,0.25391 0.14511,0 0.15116,-0.0178 0.0483,-0.14189 -0.10158,-0.12237 -0.10005,-0.13176 0.0109,-0.0683 0.29846,0.1707 0.60062,0.41471 0.60063,0.48503 0,0.10262 0.36026,0.38975 0.49337,0.3932 0.059,0.002 0.10725,-0.042 0.10725,-0.0968 1e-5,-0.0548 0.10831,0.002 0.24066,0.12578 0.13237,0.12396 0.3285,0.22536 0.43584,0.22535 0.17462,10e-6 0.18923,-0.0287 0.13859,-0.27254 -0.0586,-0.28195 -0.34857,-0.59859 -0.47714,-0.52093 -0.0403,0.0242 -0.13288,-0.0685 -0.20579,-0.20633 -0.0976,-0.18441 -0.21607,-0.26587 -0.44886,-0.30855 -0.17394,-0.0319 -0.53989,-0.14679 -0.81321,-0.25534 -0.56139,-0.22294 -1.101,-0.26304 -1.10099,-0.0818 z m -0.12796,3.48261 c -0.30839,0.0358 -0.43599,0.0895 -0.45582,0.1917 -0.0208,0.10689 0.0532,0.15447 0.29956,0.19258 0.17991,0.0278 0.44296,0.0999 0.58453,0.16019 0.58058,0.24716 1.58738,0.0858 1.58738,-0.25441 0,-0.10045 -0.0574,-0.12113 -0.23596,-0.085 -0.12978,0.0263 -0.18769,0.0272 -0.12871,0.003 0.15839,-0.0673 0.13033,-0.28318 -0.0368,-0.28318 -0.0793,-10e-6 -0.27859,0.0472 -0.44303,0.10482 -0.23916,0.0839 -0.30616,0.0839 -0.335,0 -0.0374,-0.10886 -0.12124,-0.11177 -0.83614,-0.0288 z m 1.56518,3.00066 c -0.0826,0.0211 -0.15016,0.0693 -0.15016,0.10725 0,0.0379 -0.1448,0.088 -0.32177,0.11145 -0.17697,0.0234 -0.70788,0.17829 -1.1798,0.34419 -0.80871,0.2843 -1.12548,0.48565 -1.02185,0.64953 0.0576,0.0911 0.29251,0.0938 0.29251,0.003 0,-0.0375 0.17262,-0.0658 0.38361,-0.0629 0.21098,0.003 0.38321,-0.0325 0.38274,-0.0786 -0.002,-0.10857 0.53456,-0.19716 0.65859,-0.1089 0.15789,0.11235 0.65316,-0.0271 0.69853,-0.19667 0.0247,-0.0924 0.17106,-0.18851 0.36469,-0.23946 0.41381,-0.10891 0.57829,-0.28569 0.42918,-0.46127 -0.10575,-0.12453 -0.24551,-0.14225 -0.53627,-0.068 z m 15.48265,3.20979 c -0.38814,0.23803 -0.61285,0.75315 -0.61519,1.41022 -0.002,0.58655 0.12137,0.9404 0.51524,1.47641 0.76203,1.03707 2.00456,0.92428 2.31717,-0.21032 0.0533,-0.19363 0.0718,-0.48365 0.0408,-0.64448 -0.0378,-0.19731 -0.0206,-0.31385 0.0531,-0.35836 0.18857,-0.11392 0.12517,-0.62368 -0.1232,-0.99049 -0.34183,-0.50482 -0.83098,-0.78989 -1.41851,-0.82666 -0.38039,-0.0238 -0.54712,0.007 -0.76947,0.14368 z m 1.65605,1.31821 c 0.18333,0.33726 0.22394,0.49959 0.18094,0.72356 -0.0727,0.37842 -0.40876,0.72847 -0.69947,0.72847 -0.42812,-10e-6 -0.98236,-0.77031 -0.98236,-1.3653 0,-0.52357 0.77849,-0.97363 1.12562,-0.65072 0.0764,0.0711 0.24526,0.32486 0.37527,0.564 z m 3.76621,-4.69063 c -0.0307,0.12683 -0.20091,0.68345 -0.37804,1.23692 -0.17713,0.55346 -0.34915,1.16687 -0.38227,1.36311 l -0.0602,0.35681 -0.22835,-0.16244 c -0.39756,-0.28281 -1.24345,-1.12287 -1.65432,-1.64289 l -0.39632,-0.5016 0.39632,-0.008 c 0.28281,-0.006 0.66662,-0.13028 1.34016,-0.43423 0.51912,-0.23427 1.05078,-0.42865 1.18144,-0.43197 0.21646,-0.006 0.23263,0.0145 0.1816,0.22458 z"
       id="path4174-7-4-4-0-1-0-2-0-6-3-3-1"
       inkscape:connector-curvature="0"
       sodipodi:nodetypes="csscsssssssssssssssssssssssssssssssssssscssssssssssssscsssssssssssssssssscsssssssssscssssssscssssscsssssscssssssssssssssssscsssssscscscssssssssssscsssssssccsssssscssssssssssscssssssssssscsscssssssssssscssssssssssscsssssssssscsssssssssssssssssccsccssssssssssssssssscssssscssscccsssssccssssccssssssssssssssscssssscsssssssss" /></g></svg>
