<?xml version="1.0" encoding="UTF-8" standalone="no"?>
<svg
   width="20"
   height="20"
   viewBox="0 0 20 20"
   version="1.1"
   id="svg9"
   sodipodi:docname="instagram.svg"
   inkscape:version="1.3.2 (091e20ef0f, 2023-11-25, custom)"
   xmlns:inkscape="http://www.inkscape.org/namespaces/inkscape"
   xmlns:sodipodi="http://sodipodi.sourceforge.net/DTD/sodipodi-0.dtd"
   xmlns="http://www.w3.org/2000/svg"
   xmlns:svg="http://www.w3.org/2000/svg"
   xmlns:rdf="http://www.w3.org/1999/02/22-rdf-syntax-ns#"
   xmlns:cc="http://creativecommons.org/ns#"
   xmlns:dc="http://purl.org/dc/elements/1.1/">
  <defs
     id="defs13" />
  <sodipodi:namedview
     id="namedview11"
     pagecolor="#505050"
     bordercolor="#eeeeee"
     borderopacity="1"
     inkscape:pageshadow="0"
     inkscape:pageopacity="0"
     inkscape:pagecheckerboard="0"
     showgrid="false"
     inkscape:zoom="17.145833"
     inkscape:cx="5.0449576"
     inkscape:cy="10.060754"
     inkscape:window-width="1920"
     inkscape:window-height="1119"
     inkscape:window-x="0"
     inkscape:window-y="0"
     inkscape:window-maximized="1"
     inkscape:current-layer="svg9"
     inkscape:showpageshadow="2"
     inkscape:deskcolor="#d1d1d1" />
  <title
     id="title2">instagram</title>
  <desc
     id="desc4">Created with sketchtool.</desc>
  <g
     id="brand"
     stroke="none"
     stroke-width="1"
     fill="none"
     fill-rule="evenodd"
     transform="translate(-2,-2)">
    <g
       id="instagram"
       fill="#d7855f">
      <path
         d="M 11.99998,2 C 9.2841631,2 8.9435794,2.0115116 7.8770128,2.0601777 6.8125897,2.1087248 6.0856937,2.2777861 5.4495803,2.5250069 4.7920316,2.780524 4.234316,3.1224573 3.6783866,3.6783866 3.1224573,4.2343557 2.780524,4.7920316 2.5249672,5.44962 2.2777464,6.0856937 2.1087248,6.8126294 2.060138,7.8770128 2.0114719,8.9436191 2,9.2841234 2,11.99998 c 0,2.715857 0.011472,3.056401 0.060138,4.123007 0.048587,1.064384 0.2176084,1.791319 0.4648292,2.427393 0.2555568,0.657549 0.5974901,1.215264 1.1534194,1.771233 0.5559294,0.55593 1.113645,0.897823 1.7711937,1.15342 0.6361134,0.247181 1.3630094,0.416242 2.4274325,0.464829 C 8.9435794,21.988488 9.2841631,22 11.99998,22 c 2.715857,0 3.056361,-0.01151 4.122967,-0.06014 1.064424,-0.04859 1.79132,-0.217648 2.427433,-0.464829 0.657588,-0.255597 1.215264,-0.59749 1.771194,-1.15342 0.555969,-0.555969 0.897862,-1.113645 1.153419,-1.771233 0.247221,-0.636074 0.416282,-1.363009 0.46479,-2.427393 C 21.988488,15.056381 22,14.715837 22,11.99998 22,9.2841631 21.988488,8.9436191 21.939783,7.8770128 21.891275,6.8126294 21.722214,6.0856937 21.474993,5.44962 21.219436,4.7920316 20.877543,4.2343557 20.321574,3.6783866 19.765644,3.1224573 19.207968,2.780524 18.55038,2.5250069 17.914267,2.2777861 17.187371,2.1087248 16.122947,2.0601777 15.056341,2.0115116 14.715837,2 11.99998,2 m 0,1.8017986 c 2.670128,0 2.986379,0.010162 4.040838,0.058272 0.974991,0.044498 1.504483,0.2074067 1.856856,0.3443547 0.466774,0.1814064 0.799935,0.3981018 1.149847,0.7480138 0.349912,0.3499516 0.566607,0.6830726 0.748053,1.1498468 0.136909,0.3523731 0.299817,0.8819052 0.344315,1.8568557 0.04807,1.0544596 0.05827,1.3707499 0.05827,4.0408384 0,2.670128 -0.0102,2.986419 -0.05827,4.040838 -0.0445,0.97503 -0.207406,1.504523 -0.344315,1.856896 -0.181446,0.466734 -0.398141,0.799895 -0.748053,1.149807 -0.349912,0.349952 -0.683073,0.566647 -1.149847,0.748053 -0.352373,0.136909 -0.881865,0.299857 -1.856856,0.344315 -1.0543,0.04811 -1.370511,0.05831 -4.040838,0.05831 -2.6703264,0 -2.9865373,-0.0102 -4.0408381,-0.05831 C 6.9841517,20.095431 6.4546196,19.932483 6.1022465,19.795574 5.635512,19.614168 5.3023513,19.397473 4.9524791,19.047521 4.6025274,18.697609 4.3857923,18.364448 4.2043859,17.897714 4.0674776,17.545341 3.9045691,17.015848 3.8600709,16.040858 c -0.04811,-1.054459 -0.058272,-1.37075 -0.058272,-4.040878 0,-2.6700882 0.010162,-2.9863785 0.058272,-4.0408381 C 3.9045691,6.9841914 4.0674776,6.4546593 4.2043859,6.1022862 4.3857923,5.635512 4.6025274,5.302391 4.9524394,4.9524791 5.3023513,4.6025274 5.635512,4.385832 6.1022465,4.2044256 6.4546196,4.0674776 6.9841517,3.9045691 7.9591022,3.8600709 9.0136015,3.8119605 9.3298521,3.8017986 11.99998,3.8017986 m 0,11.5315344 c -1.840938,0 -3.333353,-1.492415 -3.333353,-3.333353 0,-1.840938 1.492415,-3.3333133 3.333353,-3.3333133 1.840938,0 3.333353,1.4923753 3.333353,3.3333133 0,1.840938 -1.492415,3.333353 -3.333353,3.333353 m 0,-8.4684649 c -2.8360533,0 -5.1351516,2.2990586 -5.1351516,5.1351119 0,2.836093 2.2990983,5.135152 5.1351516,5.135152 2.836054,0 5.135112,-2.299059 5.135112,-5.135152 0,-2.8360533 -2.299058,-5.1351119 -5.135112,-5.1351119 m 6.538019,-0.2028894 c 0,0.6627487 -0.537233,1.1999817 -1.199982,1.1999817 -0.662748,0 -1.200021,-0.537233 -1.200021,-1.1999817 0,-0.6627488 0.537273,-1.2000215 1.200021,-1.2000215 0.662749,0 1.199982,0.5372727 1.199982,1.2000215"
         id="Shape" />
    </g>
  </g>
  <metadata
     id="metadata830">
    <rdf:RDF>
      <cc:Work
         rdf:about="">
        <dc:title>instagram</dc:title>
      </cc:Work>
    </rdf:RDF>
  </metadata>
</svg>
