<?xml version="1.0" encoding="utf-8"?>
<!-- Generator: Adobe Illustrator 24.2.1, SVG Export Plug-In . SVG Version: 6.00 Build 0)  -->
<svg version="1.1" xmlns="http://www.w3.org/2000/svg" xmlns:xlink="http://www.w3.org/1999/xlink" x="0px" y="0px"
	 viewBox="0 0 841.89 297.64" style="enable-background:new 0 0 841.89 297.64;" xml:space="preserve">
<style type="text/css">
	.st0{opacity:0.7;fill:#045A90;}
	.st1{fill:#045A90;}
	.st2{fill:none;}
</style>
<g id="Laag_1">
</g>
<g id="Isolatiemodus">
	<path class="st0" d="M16.37,67.25c-0.04-0.14-0.09-0.27-0.13-0.41c0.14-0.4,0.32-0.76,0.82-0.77c0.41-0.01,0.82-0.04,1.22-0.02
		c4.01,0.23,8.02,0.46,12,1.01c6.87,0.95,13.75,1.85,20.62,2.87c3.96,0.59,7.72,0.05,11.38-1.46c1.13-0.47,2.25-0.97,3.37-1.46
		c2.78-1.19,5.69-1.79,8.72-1.9c2.62-0.1,5.14,0.4,7.65,1.08c5.53,1.51,11.12,1.84,16.79,1.01c2.96-0.43,5.9-1.03,8.79-1.79
		c9.21-2.41,18.36-5.06,27.39-8.1c1.35-0.45,2.73-0.86,4.13-1.13c4.79-0.96,9.62-0.83,14.43-0.17c7.95,1.1,15.52,3.46,22.62,7.25
		c4.14,2.21,8.38,4.23,12.65,6.17c8.08,3.67,16.37,6.69,25.15,8.22c7.08,1.24,14.18,1.68,21.3,0.23c4.16-0.84,8.37-1.06,12.6-0.8
		c3.19,0.19,6.38,0.46,9.56,0.73c2.24,0.19,4.45,0.6,6.63,1.13c6.91,1.69,12.65,5.28,17.18,10.73c4.49,5.42,7.44,11.68,9.49,18.37
		c1.16,3.77,1.69,7.7,2.37,11.58c1.78,10.11,3.47,20.23,5.23,30.34c0.99,5.69,0.84,11.38-0.01,17.06
		c-0.92,6.13-2.49,12.11-4.13,18.08c-0.92,3.35-2.04,6.63-3.34,9.84c-1.03,2.53-1.81,5.13-2.09,7.86c-0.5,4.97-0.3,9.92,0.5,14.84
		c0.97,6.01,2.69,11.79,5.42,17.25c0.7,1.4,1.28,2.86,1.66,4.38c1.1,4.42,1.21,8.88,0.3,13.35c-0.16,0.8-0.37,1.59-0.55,2.38
		c-0.1,0.46-0.43,0.66-0.83,0.8c-5.3-1.05-10.7-0.9-16.05-1.29c-5.77-0.42-11.55-0.63-17.33-0.77c-1.22-0.03-2.44-0.22-3.66-0.29
		c-1.83-0.11-3.67-0.27-5.5-0.25c-6.74,0.08-13.47,0.04-20.21,0c-4.97-0.03-9.92,0.27-14.87,0.74c-2.57,0.25-5.14,0.49-7.7,0.91
		c-0.33,0.05-0.68,0.06-1.02,0.07c-0.39,0.01-0.63-0.19-0.7-0.58c-0.06-0.34-0.13-0.67-0.16-1.01c-0.18-1.62-0.29-3.25-0.53-4.87
		c-0.41-2.84-0.38-5.7-0.43-8.55c-0.06-3.26-0.1-6.53-0.17-9.79c-0.01-0.52,0.15-1.1-0.33-1.53c-0.5,0.15-0.47,0.62-0.58,0.97
		c-1.25,4.1-2.54,8.18-3.69,12.31c-0.58,2.09-0.9,4.26-1.36,6.38c-0.52,2.39-1.05,4.78-1.61,7.16c-0.3,1.27-0.39,1.39-1.57,1.49
		c-2.59,0.21-5.1,0.81-7.63,1.33c-4.62,0.95-9.28,1.32-13.99,1.28c-3.54-0.03-7.07-0.18-10.59-0.59c-1.08-0.13-2.15-0.33-3.22-0.54
		c-6.81-1.34-13.49-3.23-20.24-4.82c-5.3-1.25-10.64-2.23-16.07-2.75c-2.71-0.26-5.41-0.58-8.1-0.96c-1.29-0.18-2.57-0.21-3.86-0.14
		c-3.6,0.21-7.2,0.51-10.8,0.58c-4.5,0.08-8.95,0.69-13.42,1.05c-0.68,0.06-1.35,0.19-2.03,0.19c-4.98,0-9.91,0.56-14.85,1.03
		c-1.83,0.17-3.67,0.22-5.5,0.28c-0.9,0.03-1.02-0.08-1.28-0.97c-0.83-2.87-1.75-5.73-2.41-8.64c-0.6-2.65-0.95-5.36-0.9-8.09
		c0.05-2.52,0.11-5.03,0.17-7.55c0.01-0.54,0.02-1.09-0.01-1.63c-0.02-0.36-0.22-0.64-0.61-0.71c-0.13-0.03-0.27-0.06-0.4-0.08
		c-1.66-0.23-1.8-0.15-2.17,1.53c-0.45,1.99-0.91,3.98-1.29,5.98c-0.38,2.01-0.95,3.96-1.72,5.86c-0.36,0.88-0.65,1.79-1.01,2.67
		c-0.99,2.4-1.69,4.87-2.2,7.42c-0.23,1.13-0.57,2.24-0.85,3.36c-0.14,0.54-0.47,0.8-1.02,0.79c-0.48-0.01-0.95,0-1.43-0.01
		c-5.58-0.11-11.16-0.17-16.73-0.34c-3.33-0.1-6.66-0.37-9.98-0.57c-0.68-0.04-1.36-0.14-2.04-0.14c-3.01-0.01-5.96-0.5-8.9-1.04
		c-0.6-0.11-1.21-0.17-1.82-0.24c-1.68-0.17-3.19,0.2-4.62,1.15c-1.47,0.98-3.02,1.83-4.44,2.9c-0.53,0.4-1.1,0.74-1.85,1.23
		c0.73-6.32,0.51-12.42,0.52-18.51c0-1.45,0.3-2.84,0.55-4.24c1.03-5.96,2.08-11.92,3.22-17.86c0.44-2.26,1.11-4.49,1.74-6.71
		c0.36-1.26,0.54-2.51,0.44-3.82c-0.1-1.35-0.09-2.72-0.12-4.08c-0.01-0.34,0.02-0.68,0.06-1.02c0.14-1.06,0.28-1.39,1.35-1.36
		c0.63,0.02,1.21-0.19,1.78-0.41c2.27-0.91,4.55-1.82,6.82-2.73c0.32-0.13,0.64-0.25,0.73-0.64c-0.28-0.4-0.74-0.55-1.16-0.78
		c-1.44-0.77-2.89-1.53-4.31-2.32c-1.2-0.67-2.41-1.21-3.82-1.33c-1.02-0.08-1.19-0.33-1.17-1.29c0.07-2.91-0.29-2.72,2.61-2.57
		c1.44,0.08,2.85-0.15,4.27-0.28c3.81-0.35,7.48-1.4,11.21-2.16c4.62-0.93,9.01-2.6,13.52-3.88c0.26-0.07,0.51-0.21,0.55-0.62
		c-2.56-0.57-5.14-1.16-7.73-1.7c-3.99-0.84-7.98-1.69-11.89-2.87c-2.62-0.79-5.33-1.06-7.99-1.63c-1.13-0.24-2.24-0.55-3.35-0.87
		c-0.6-0.17-0.72-0.43-0.63-1.08c0.1-0.67,0.21-1.35,0.35-2.01c0.9-4.06,1.1-8.22,1.54-12.34c0.38-3.52,0.35-7.06,0.46-10.6
		c0.08-2.58,0.21-5.16,0.32-7.75c0.01-0.27,0.03-0.55,0.11-0.8c0.05-0.18,0.17-0.38,0.42-0.38c0.27,0,0.54-0.01,0.81,0.02
		c4.52,0.58,9.04,1.19,13.56,1.73c1.75,0.21,3.53,0.25,5.29,0.35c5.71,0.33,11.39,0.89,17.07,1.48c1.91,0.2,1.86,0.23,2.08-1.74
		c0.09-0.81-0.04-0.98-1-1.19c-3.12-0.69-6.24-1.38-9.37-2.02c-1.54-0.32-2.99-0.82-4.41-1.53c-4.25-2.14-8.53-4.22-12.82-6.29
		c-2.83-1.37-5.86-2.19-8.93-2.77c-1.33-0.25-1.28-0.66-1.07-1.64c0.73-3.46,1.46-6.92,2.21-10.37c0.55-2.52,1.09-5.05,1.69-7.56
		c1.25-5.24,1.97-10.55,2.6-15.89c0.5-4.23,0.04-8.41-0.28-12.61c-0.15-1.9-0.4-3.79-0.55-5.68c-0.1-1.3-0.31-2.56-0.8-3.77
		c0.02-0.05,0.06-0.1,0.04-0.14C16.48,67.41,16.42,67.33,16.37,67.25z M129.94,93.78c-0.35-0.05-0.61,0.09-0.84,0.34
		c-2.75,1.63-4.67,4.11-6.64,6.54c-0.23,0.06-0.32,0.21-0.31,0.43c-0.33,0.34-0.64,0.7-0.98,1.02c-2.05,1.93-3.71,4.14-5.05,6.61
		c-0.9,1.67-1.81,3.34-2.65,5.05c-0.54,1.09-0.99,2.23-1.43,3.37c-0.28,0.72-0.14,1.01,0.57,1.24c1.29,0.42,2.59,0.82,3.9,1.19
		c0.45,0.13,0.94,0.16,1.41,0.19c0.47,0.03,0.77-0.33,0.65-0.79c-0.28-1.12-0.61-2.22-1.15-3.26c-0.48-0.9-0.92-1.82-1.37-2.73
		c-0.27-0.55-0.47-1.13-0.51-1.75c-0.07-1,0.39-1.6,1.37-1.63c0.6-0.01,1.22,0.07,1.81,0.21c1.05,0.27,2.08,0.62,3.13,0.93
		c0.59,0.17,1.17,0.35,1.77,0.46c0.72,0.13,1.07-0.24,0.89-0.9c-0.09-0.33-0.2-0.65-0.32-0.97c-0.63-1.72-1.26-3.43-1.9-5.15
		c-0.39-1.03-0.74-2.06-0.16-3.14c0.42-0.01,0.84-0.02,1.27-0.04c0.88,0.34,1.77,0.65,2.63,1.04c1.29,0.58,2.55,1.23,3.84,1.83
		c0.86,0.4,1.72,0.78,2.66,0.95c0.46,0.08,0.77-0.22,0.75-0.69c-0.04-1.03-0.42-1.97-0.78-2.92c-0.56-1.45-1.15-2.89-1.66-4.35
		c-0.36-1.04-0.53-2.1,0.1-3.13c0.39-0.01,0.72-0.18,1.03-0.4c0.25,0.01,0.5,0.02,0.75,0.03c0.14,0.15,0.3,0.22,0.51,0.16
		c2.2,0.93,4.25,2.1,6.18,3.52c0.92,0.68,1.89,1.31,2.83,1.97c0.62,0.44,1.31,0.72,2.06,0.81c1.08,0.13,1.68-0.3,1.87-1.39
		c0.16-0.88,0.08-1.77-0.12-2.63c-0.44-1.92-0.92-3.83-1.36-5.75c-0.38-1.65-0.38-1.7-2.06-1.25c-2.95,0.79-5.83,1.83-8.69,2.93
		c-0.82,0.32-1.58,0.77-2.37,1.16c-0.51,0.09-0.98,0.27-1.31,0.71C130.15,93.67,130.04,93.72,129.94,93.78z M59.2,197.7
		c-0.35,0.2-0.62,0.47-0.81,0.82c-1.54,1.35-2.27,3.38-3.9,4.67c-0.15,0.12-0.2,0.35-0.29,0.53c-0.53,1.11-0.92,2.25-1.18,3.46
		c-0.37,1.69-0.05,3.24,0.7,4.74c0.24,0.48,0.55,0.94,0.85,1.39c2.28,3.49,5.47,6.02,8.86,8.31c1.5,1.02,3.21,1.44,5.02,1.48
		c2.38,0.04,4.76,0.03,7.13-0.23c2.03-0.22,4.07-0.39,6.08-0.72c1.29-0.21,2.1,0.2,2.6,1.35c0.05,0.12,0.16,0.23,0.21,0.35
		c0.55,1.38,1.63,2.12,3.01,2.5c0.39,0.11,0.78,0.24,1.17,0.35c3.13,0.87,6.33,0.81,9.52,0.68c1.45-0.06,2.75-0.56,3.96-1.43
		c2.29-1.64,4.22-3.63,6.03-5.76c0.9-1.06,1.04-2.21,0.55-3.42c-0.78-1.96-1.54-3.95-3.41-5.2c-0.11-0.07-0.21-0.18-0.3-0.28
		c-0.66-0.68-1.22-1.55-2.02-1.98c-0.8-0.44-1.84-0.41-2.75-0.66c-2.35-0.65-4.65-1.57-7.15-1.52c-0.45,0.01-0.75-0.25-0.97-0.63
		c-0.48-0.84-0.71-1.76-0.9-2.7c-0.21-1-0.38-2-0.59-3c-0.16-0.75-0.51-1.38-1.12-1.89c-4.14-3.46-8.8-5.61-14.29-5.71
		c-1.71-0.03-3.39,0.16-5.08,0.4c-3.26,0.47-6.36,1.44-9.3,2.92C60.24,196.85,59.6,197.11,59.2,197.7z M85.01,79.84
		c-1.69,0.12-3.37,0.35-5.06,0.34c-1.91-0.01-3.58,0.7-5.28,1.36c-0.1,0.04-0.21,0.18-0.23,0.29c-0.04,0.24,0.14,0.35,0.34,0.43
		c0.45,0.17,0.9,0.32,1.34,0.49c3.74,1.45,7.02,3.5,9.5,6.75c1.95,2.55,3.81,5.12,4.73,8.25c0.17,0.59,0.39,1.16,0.63,1.72
		c0.12,0.28,0.12,0.7,0.76,0.73c2.14-2.28,4.01-4.98,6.59-6.99c2.58-2,5.33-3.72,8.63-5.6c-2.07-0.41-3.12-1.72-4.51-2.53
		c-0.18-0.1-0.34-0.22-0.53-0.31c-4.7-2.35-9.56-4.22-14.76-5.12c-0.76-0.13-1.48-0.08-2.18,0.22L85.01,79.84z M113.57,157.77
		c0.75-0.43,0.84-1.19,0.92-1.93c0.17-1.6-0.1-3.13-0.84-4.55c-0.57-1.08-1.21-2.12-1.84-3.17c-0.74-1.22-1.51-2.42-2.23-3.65
		c-0.24-0.4-0.5-0.82-0.46-1.33c0.01-0.11,0.11-0.22,0.19-0.31c0.02-0.03,0.14,0,0.19,0.03c0.16,0.12,0.33,0.24,0.45,0.4
		c1.51,2.01,3.06,3.99,4.5,6.05c0.53,0.76,1.1,1.15,2,1.14c0.27,0,0.54,0.04,0.81,0.06c5.25,0.41,10.48-0.09,15.67-0.75
		c6.79-0.87,13.18-3.27,19.52-5.76c0.7-0.28,1.33-0.69,1.89-1.19c0.23-0.2,0.66-0.37,0.45-0.79c-0.13-0.27-0.46-0.2-0.73-0.19
		c-0.2,0.01-0.41,0.02-0.61,0.03c-4.35,0.29-8.7,0.18-13.06,0.11c-3-0.05-5.97-0.27-8.91-0.94c-5.24-1.19-10.47-2.42-15.47-4.43
		c-1.64-0.66-3.23-1.44-4.72-2.39c-0.64-0.41-1.17-0.93-1.68-1.47c-0.43-0.46-0.74-1.01-0.79-1.63c-0.13-1.69-0.28-3.39,0.03-5.08
		c0.27-1.54,0.52-3.08,0.83-4.61c0.11-0.54-0.19-0.47-0.51-0.55c-0.2-0.05-0.27-0.28-0.22-0.49c0.1-0.39,0.21-0.79,0.32-1.18
		c0.91-3.01,2.45-5.74,3.81-8.56c0.2-0.42,0.39-0.87,0.89-1.05c0.48-0.17,0.7-0.61,0.95-1.01c0.8-1.26,1.61-2.51,2.45-3.75
		c2.29-3.39,4.91-6.5,7.77-9.43c3.19-3.26,7.08-5.2,11.33-6.6c2.27-0.75,4.62-1.1,6.95-1.56c0.29-0.06,0.71,0,0.76-0.52
		c-0.14-0.12-0.27-0.28-0.44-0.36c-4.09-1.97-8.35-3.21-12.94-3.29c-3.16-0.06-6.23,0.43-9.3,1.06c-2.26,0.46-4.57,0.81-6.68,1.81
		c-3.32,1.57-6.66,3.09-9.8,5.02c-1.92,1.18-3.72,2.51-5.41,3.99c-3.34,2.93-6.05,6.44-8.83,9.87c-2.13,2.64-4.02,5.48-6.04,8.21
		c-1.45,1.97-2.92,3.93-4.41,5.87c-0.54,0.7-1.09,1.4-1.82,1.92c-0.33,0.24-0.65,0.18-0.75-0.25c-0.14-0.64-0.48-1.1-0.99-1.48
		c-0.27-0.2-0.51-0.45-0.73-0.71c-1.71-1.94-3.46-3.84-5.09-5.84c-1.79-2.18-3.9-3.97-6.18-5.58c-4.62-3.26-9.65-5.84-14.51-8.71
		c-0.64-0.38-1.36-0.63-2.06-0.88c-0.37-0.13-0.79-0.2-1.19-0.19c-0.9,0.03-1.33,0.63-1.2,1.51c0.1,0.64,0.46,1.14,0.88,1.58
		c0.81,0.85,1.4,1.84,1.94,2.86c0.67,1.26,1.32,2.53,2,3.79c3.33,6.19,5.85,12.71,7.77,19.46c0.26,0.91,0.56,1.82,0.77,2.74
		c0.77,3.45,1.26,6.96,1.4,10.48c0.2,5.03,0.1,10.06-0.78,15.05c-0.11,0.6-0.18,1.22-0.18,1.82c0,0.89,0.91,1.5,1.72,1.13
		c0.49-0.22,0.93-0.57,1.34-0.92c1.5-1.29,2.81-2.77,4.03-4.32c2.57-3.26,4.93-6.67,7.19-10.15c1.07-1.65,2.19-3.28,2.98-5.1
		c0.84-1.93,1.7-3.85,2.56-5.77c0.04-0.1,0.21-0.14,0.43-0.27c0.71,1.46,1.7,2.73,2.77,3.94c1.27,1.43,2.62,2.76,4.05,4.02
		c2.93,2.57,6.09,4.8,9.74,6.25c2.02,0.81,2.02,0.81,3.58-0.49c0.05,0.21,0.17,0.43,0.11,0.58c-0.44,1.14-0.91,2.29-1.69,3.23
		c-0.58,0.69-1.02,1.43-1.42,2.22c-1.99,3.87-3.97,7.74-5.99,11.59c-0.95,1.81-1.9,3.6-2.63,5.52c-0.05,0.12-0.11,0.26-0.2,0.33
		c-0.1,0.07-0.26,0.11-0.37,0.08c-0.1-0.03-0.24-0.15-0.25-0.25c-0.03-0.19,0.01-0.4,0.02-0.6c0.01-0.19,0.08-0.52,0.04-0.54
		c-0.33-0.11-0.47,0.18-0.54,0.41c-0.14,0.45-0.24,0.92-0.29,1.39c-0.01,0.13,0.2,0.34,0.35,0.42c0.17,0.08,0.4,0.08,0.6,0.08
		c3.34-0.08,6.67-0.21,9.79-1.62c0.49-0.22,1.03-0.36,1.54-0.54c2.06-0.73,4.02-1.65,5.78-2.98c2.01-1.52,4.02-3.02,6.03-4.53
		c0.51-0.38,0.9-0.99,1.75-0.61c0.25,0.11,0.44-0.43,0.5-0.77C113.43,158.2,113.54,158.03,113.57,157.77z M216.92,218.65
		c-0.7-0.73-1.06-1.13-1.44-1.51c-1.97-1.97-3.94-3.94-5.91-5.91c-0.33-0.33-0.65-0.69-0.95-1.06c-0.17-0.2-0.03-0.43,0.16-0.48
		c0.32-0.08,0.67-0.09,1.01-0.1c3.2-0.01,6.39,0.04,9.59-0.02c1.27-0.03,2.19,0.41,3.04,1.32c1.81,1.93,3.71,3.79,5.56,5.69
		c1.4,1.45,3.06,2.17,5.09,2.14c3.94-0.05,7.89-0.03,11.83,0c0.94,0.01,1.67-0.23,2.35-0.93c3.12-3.22,6.3-6.39,9.46-9.58
		c0.1-0.1,0.19-0.19,0.28-0.29c0.47-0.54,0.49-0.73,0.06-1.22c-0.32-0.35-0.66-0.68-1-1.02c-2.79-2.79-5.58-5.57-8.36-8.36
		c-0.29-0.29-0.59-0.57-0.87-0.86c-0.35-0.37-0.77-0.54-1.27-0.53c-1.63,0.01-3.26,0-4.89,0.02c-0.11,0-0.26,0.1-0.32,0.2
		c-0.05,0.09-0.04,0.28,0.02,0.36c0.31,0.36,0.64,0.7,0.98,1.04c1.97,1.97,3.94,3.94,5.91,5.91c0.33,0.33,0.64,0.69,0.93,1.07
		c0.16,0.2,0,0.45-0.16,0.49c-0.32,0.09-0.67,0.09-1.01,0.09c-3.13,0.01-6.26-0.04-9.38,0.02c-1.26,0.02-2.2-0.39-3.06-1.29
		c-1.84-1.91-3.77-3.73-5.61-5.64c-1.51-1.57-3.3-2.3-5.46-2.28c-3.74,0.04-7.48,0.04-11.22-0.01c-1.09-0.01-1.92,0.27-2.71,1.08
		c-3,3.05-6.08,6.04-9.11,9.05c-0.38,0.38-0.85,0.69-1.04,1.35c0.32,0.36,0.66,0.77,1.04,1.15c2.98,2.98,5.96,5.96,8.94,8.94
		c0.24,0.24,0.49,0.47,0.72,0.72c0.29,0.31,0.64,0.5,1.07,0.51C212.94,218.71,214.69,218.75,216.92,218.65z M143.18,140.81
		c0,0.02,0,0.04,0,0.05c2.65-0.06,5.3-0.1,7.95-0.17c0.82-0.02,1-0.25,0.8-0.99c-0.78-3.03-1.49-6.07-2.56-9.01
		c-0.3-0.82-0.72-1.61-1.15-2.38c-0.36-0.64-0.83-0.65-1.26-0.05c-0.32,0.43-0.61,0.9-0.84,1.39c-0.76,1.59-1.49,3.2-2.24,4.8
		c-0.49,1.04-1,2.08-1.52,3.11c-0.18,0.36-0.41,0.72-0.68,1.01c-0.75,0.79-1.88,0.65-2.38-0.31c-0.31-0.6-0.51-1.26-0.7-1.9
		c-0.43-1.43-0.81-2.88-1.23-4.31c-0.15-0.52-0.33-1.04-0.55-1.53c-0.4-0.87-0.87-0.89-1.49-0.09c-0.29,0.38-0.55,0.77-0.81,1.18
		c-0.97,1.56-1.93,3.12-2.89,4.68c-0.43,0.7-0.89,1.37-1.5,1.92c-0.75,0.68-1.54,0.48-1.89-0.5c-0.18-0.51-0.3-1.05-0.36-1.58
		c-0.16-1.42-0.25-2.84-0.42-4.26c-0.1-0.87-0.27-1.74-0.44-2.61c-0.04-0.19-0.14-0.4-0.28-0.52c-0.13-0.11-0.41-0.22-0.52-0.16
		c-0.35,0.2-0.7,0.43-0.95,0.74c-0.93,1.17-1.84,2.35-2.72,3.56c-0.48,0.66-0.98,1.31-1.61,1.83c-0.48,0.39-1.05,0.21-1.33-0.36
		c-0.25-0.5-0.32-1.04-0.35-1.58c-0.11-1.56-0.23-3.12-0.28-4.68c-0.04-1.03-0.22-2.03-0.51-3c-0.2-0.67-0.83-0.94-1.46-0.63
		c-0.42,0.21-0.84,0.47-1.18,0.79c-0.79,0.74-1.56,1.52-2.3,2.31c-1.05,1.14-1.87,2.51-3.24,3.34c-0.33,0.2-0.31,0.58-0.09,0.9
		c0.58,0.87,1.4,1.48,2.3,1.97c1.55,0.86,3.13,1.64,4.81,2.22c8.27,2.81,16.64,5.07,25.49,4.84
		C142.91,140.81,143.05,140.81,143.18,140.81z M245.8,159.06c0.18-0.44,0.37-0.86,0.53-1.31c1.25-3.6,2.19-7.28,3.17-10.96
		c0.24-0.89,0.17-1.69-0.18-2.56c-0.95-2.41-2.25-4.64-3.56-6.86c-0.65-1.09-0.96-2.19-0.95-3.46c0.02-2.05,0.12-4.07,0.53-6.08
		c0.28-1.38,0.19-2.66-0.55-3.92c-0.89-1.53-1.43-3.22-1.92-4.92c-0.84-2.94-1.76-5.85-2.64-8.78c-0.19-0.62-0.31-1.27-0.85-1.91
		c0.08,0.68,0.1,1.23,0.2,1.75c0.47,2.5,0.4,4.98,0.01,7.49c-0.29,1.88-0.49,3.77-0.65,5.67c-0.15,1.63-0.41,3.23-0.85,4.81
		c-0.34,1.24-1.11,2.49-0.82,3.73c0.29,1.21,1.14,2.29,1.77,3.41c0.54,0.94,1.08,1.87,1.32,2.96c0.85,3.92,2.12,7.73,3.42,11.52
		C244.82,152.66,245.76,155.7,245.8,159.06z M21.65,243.45c5.78-0.01,10.63-4.76,10.61-10.43c-0.02-5.21-4.03-10.7-10.6-10.62
		c-5.7,0.07-10.49,4.58-10.5,10.53C11.15,238.69,15.92,243.46,21.65,243.45z M203.8,131.42c-0.07-0.56-0.13-1.3-0.25-2.03
		c-0.07-0.44-0.44-0.63-0.91-0.58c-0.37,0.04-0.72,0.21-0.73,0.57c-0.04,1.28-0.03,2.56,0.01,3.84c0.02,0.48,0.46,0.63,0.88,0.67
		c0.44,0.04,0.79-0.22,0.85-0.68C203.73,132.68,203.75,132.14,203.8,131.42z M182.08,110.27c-0.98-0.13-1.3,0.07-1.42,0.62
		c-0.12,0.53,0.07,0.92,0.64,1.07c1.17,0.31,2.35,0.58,3.54,0.82c0.48,0.1,0.72-0.27,0.84-0.69c0.14-0.46,0-0.83-0.46-0.97
		C184.05,110.78,182.88,110.48,182.08,110.27z M183.78,156.16c0.22-0.08,0.56-0.16,0.84-0.33c0.94-0.53,1.88-1.07,2.79-1.65
		c0.43-0.27,0.32-0.7,0.08-1.07c-0.24-0.37-0.54-0.64-1.01-0.39c-1.13,0.61-2.26,1.23-3.37,1.88c-0.33,0.2-0.32,0.56-0.18,0.9
		C183.09,155.85,183.3,156.09,183.78,156.16z M173.76,210.32c0.98,0.08,1.31-0.1,1.43-0.58c0.14-0.6-0.1-1-0.79-1.16
		c-1.04-0.24-2.1-0.46-3.15-0.65c-0.66-0.12-1.01,0.17-1.11,0.83c-0.07,0.49,0.11,0.76,0.81,0.94
		C171.98,209.95,173.03,210.16,173.76,210.32z M161,168.86c-0.13,0.07-0.34,0.13-0.48,0.26c-0.95,0.87-1.8,1.83-2.51,2.91
		c-0.21,0.31-0.17,0.64,0.13,0.9c0.32,0.27,0.75,0.55,1.08,0.21c0.94-0.96,1.83-1.99,2.71-3.01c0.19-0.22,0.12-0.51-0.06-0.74
		C161.65,169.13,161.42,168.89,161,168.86z M155.94,177.86c-0.05-0.39-0.35-0.57-0.65-0.72c-0.34-0.17-0.67-0.09-0.89,0.22
		c-0.79,1.11-1.38,2.32-1.83,3.59c-0.13,0.37,0.08,0.64,0.42,0.81c0.52,0.25,0.98,0.18,1.23-0.28c0.58-1.07,1.12-2.15,1.66-3.24
		C155.94,178.13,155.93,177.98,155.94,177.86z M181.8,210.6c1.09-0.15,2.12-0.1,3.09-0.47c0.35-0.13,0.51-0.42,0.48-0.8
		c-0.03-0.46-0.33-0.88-0.72-0.84c-1.28,0.11-2.57,0.24-3.84,0.42c-0.48,0.07-0.59,0.5-0.56,0.94c0.03,0.38,0.23,0.64,0.61,0.7
		C181.2,210.6,181.54,210.59,181.8,210.6z M172.98,111c0,0.01,0,0.02,0,0.03c0.68,0,1.36,0.03,2.03-0.01
		c0.39-0.02,0.58-0.31,0.61-0.69c0.03-0.44-0.06-0.88-0.54-0.96c-1.35-0.23-2.71-0.23-4.06-0.04c-0.38,0.06-0.51,0.41-0.53,0.77
		c-0.02,0.46,0.25,0.87,0.65,0.89C171.76,111.03,172.37,111,172.98,111z M169.88,163.35c-0.04-0.65-0.77-1.09-1.31-0.74
		c-1.02,0.67-2,1.38-2.98,2.1c-0.37,0.27-0.48,0.63-0.2,1.05c0.34,0.51,0.74,0.68,1.18,0.39c1.01-0.68,1.99-1.4,2.98-2.1
		C169.78,163.88,169.89,163.64,169.88,163.35z M199.68,143.46c0.14-0.11,0.39-0.23,0.54-0.43c0.74-0.96,1.35-2.01,1.8-3.14
		c0.17-0.42,0.1-0.78-0.33-1.03c-0.51-0.3-0.95-0.25-1.23,0.21c-0.62,1.04-1.22,2.09-1.81,3.15c-0.14,0.24-0.12,0.52,0.07,0.75
		C198.95,143.23,199.21,143.43,199.68,143.46z M155.96,114.36c0-0.66-0.56-1.22-1.02-1.04c-1.25,0.51-2.47,1.09-3.54,1.93
		c-0.39,0.3-0.3,0.71-0.07,1.09c0.25,0.4,0.61,0.56,1.03,0.34c1.08-0.56,2.14-1.16,3.2-1.75
		C155.81,114.79,155.96,114.58,155.96,114.36z M194.87,146.54c-0.07,0.01-0.15,0.01-0.2,0.04c-1.15,0.85-2.3,1.68-3.28,2.73
		c-0.1,0.1-0.07,0.39,0,0.56c0.28,0.72,0.83,0.9,1.43,0.45c0.87-0.65,1.7-1.35,2.54-2.05c0.15-0.13,0.28-0.3,0.39-0.47
		c0.16-0.26,0.12-0.51-0.07-0.75C195.48,146.8,195.26,146.55,194.87,146.54z M178.53,158.17c-0.1-0.77-0.59-1.16-1.06-0.97
		c-1.25,0.51-2.41,1.18-3.51,1.96c-0.3,0.21-0.31,0.57-0.11,0.9c0.22,0.37,0.51,0.72,0.96,0.52c1.23-0.54,2.43-1.14,3.51-1.95
		C178.45,158.53,178.48,158.29,178.53,158.17z M191,113.12c-0.33,0.15-0.5,0.42-0.6,0.76c-0.11,0.38,0.02,0.69,0.34,0.86
		c1.06,0.58,2.12,1.15,3.2,1.7c0.46,0.23,0.87,0.02,1.15-0.5c0.24-0.45,0.06-0.78-0.3-1.03c-1.05-0.73-2.18-1.32-3.39-1.75
		C191.27,113.11,191.13,113.13,191,113.12z M157.72,199.96c-0.06-0.15-0.09-0.37-0.2-0.52c-0.68-0.93-1.37-1.84-2.06-2.75
		c-0.08-0.11-0.18-0.2-0.29-0.28c-0.34-0.23-0.65-0.06-0.94,0.11c-0.3,0.18-0.57,0.46-0.39,0.82c0.63,1.28,1.48,2.41,2.53,3.38
		c0.22,0.2,0.48,0.22,0.75,0.07C157.42,200.6,157.62,200.34,157.72,199.96z M165.68,206.2c-0.04-0.1-0.05-0.37-0.18-0.45
		c-1.11-0.74-2.23-1.48-3.39-2.15c-0.42-0.25-0.75,0.07-0.99,0.43c-0.21,0.31-0.24,0.66,0.04,0.91c1,0.91,2.15,1.6,3.37,2.16
		C165.02,207.32,165.59,206.89,165.68,206.2z M199.32,119.22c-0.68,0.02-1.2,0.81-0.92,1.3c0.61,1.05,1.24,2.09,1.89,3.11
		c0.25,0.4,0.66,0.41,1.08,0.24c0.43-0.18,0.63-0.55,0.46-0.97c-0.5-1.26-1.18-2.42-2.07-3.45
		C199.65,119.32,199.42,119.28,199.32,119.22z M164.54,110.06c-1.14,0.21-2.48,0.43-3.72,1.02c-0.35,0.16-0.43,0.64-0.24,1.08
		c0.15,0.36,0.42,0.56,0.79,0.47c1.25-0.3,2.51-0.6,3.75-0.95c0.37-0.1,0.44-0.47,0.39-0.84
		C165.44,110.32,165.18,110.06,164.54,110.06z M151.07,188.51c0.05,1.06,0.01,2.01,0.39,2.89c0.15,0.34,0.42,0.51,0.8,0.44
		c0.41-0.07,0.86-0.22,0.83-0.71c-0.07-1.27-0.21-2.53-0.35-3.79c-0.04-0.39-0.47-0.61-0.93-0.55c-0.38,0.05-0.61,0.27-0.65,0.64
		C151.1,187.83,151.09,188.23,151.07,188.51z M192.91,207.55c0-0.71-0.52-1.13-1.19-0.93c-0.38,0.12-0.76,0.28-1.1,0.48
		c-0.34,0.19-0.35,0.54-0.27,0.89c0.06,0.27,0.18,0.52,0.45,0.62c0.48,0.17,1.69-0.24,2-0.68
		C192.89,207.83,192.88,207.68,192.91,207.55z M147.43,119.81c0.01-0.38-0.23-0.62-0.48-0.85c-0.23-0.2-0.52-0.21-0.75-0.04
		c-0.38,0.27-0.75,0.58-1.09,0.91c-0.27,0.26-0.3,0.6-0.05,0.92c0.21,0.27,0.44,0.55,0.82,0.52
		C146.42,121.22,147.36,120.32,147.43,119.81z"/>
	<path class="st0" d="M15.67,65.08c-0.32-1.11-0.64-2.22-0.97-3.33c-0.7-2.37-1.07-4.77-0.8-7.24c0.09-0.88-0.07-1.75-0.18-2.63
		c-0.5-3.97-2.07-7.58-3.69-11.18c-0.5-1.12-1.06-2.21-1.58-3.31c-0.14-0.29-0.37-0.59-0.11-0.97c0.63,0.01,1.11,0.4,1.63,0.67
		c4.56,2.32,9.37,3.98,14.23,5.56c3.46,1.12,6.98,1.53,10.63,1.48c8.91-0.12,17.82-0.03,26.73-0.04c3.55,0,7.03,0.7,10.54,1.09
		c0.53,0.06,0.86,0.35,1.09,0.81c1.39,2.73,2.81,5.44,4.16,8.18c0.29,0.6,0.4,1.29,0.54,1.95c0.2,0.93,0.39,1.86,0.54,2.8
		c0.33,2.07,0.48,1.9,2.62,1.65c0.38-0.04,0.6-0.31,0.63-0.69c0.04-0.54,0.04-1.09,0.04-1.63c0-3.33,0-6.66,0-10
		c0-0.54,0.02-1.09,0.05-1.63c0.02-0.39,0.25-0.62,0.63-0.67c1.08-0.13,2.16-0.29,3.24-0.36c1.57-0.11,3.1-0.36,4.61-0.81
		c1.3-0.39,2.63-0.69,3.93-1.1c3.39-1.07,6.89-1.56,10.38-2.12c1.63-0.26,3.26-0.01,4.88,0.11c4.95,0.36,9.9,0.76,14.85,1.11
		c5.22,0.37,10.45,0.7,15.67,1.03c2.44,0.16,4.89,0.28,7.33,0.41c3.8,0.2,7.61,0.43,11.41,0.57c1.28,0.05,2.58-0.1,3.86-0.21
		c6.44-0.52,12.85-1.32,19.32-1.5c0.48-0.01,0.95-0.03,1.43-0.05c0.55-0.02,0.89,0.23,1,0.78c0.23,1.2,0.5,2.4,0.68,3.61
		c0.26,1.76,0.87,3.4,1.5,5.06c1.85,4.87,4.77,9.15,7.32,13.64c0.07,0.11,0.17,0.25,0.28,0.28c0.09,0.03,0.31-0.06,0.32-0.12
		c0.07-0.4,0.12-0.8,0.12-1.2c0.01-3.26,0.03-6.53-0.01-9.79c-0.02-1.38,0.14-2.7,0.58-4.01c0.47-1.42,0.85-2.87,1.28-4.3
		c0.39-1.3,0.73-2.6,0.69-4c-0.03-1.03,0.13-1.18,1.09-1.41c1.99-0.46,3.96-0.98,6-1.16c1.56-0.14,3.11-0.3,4.67-0.45
		c0.27-0.03,0.55-0.06,0.81-0.04c2.77,0.3,5.57,0.34,8.28,1.09c0.72,0.2,1.44,0.39,2.17,0.56c4.38,1.03,8.61,2.49,12.71,4.35
		c2.48,1.13,5.05,2,7.71,2.62c1.52,0.35,3.04,0.73,4.53,1.21c2.61,0.84,5.29,1.21,8.01,1.44c5.28,0.46,10.57,0.89,15.85,1.41
		c5.07,0.51,10.14,1.07,15.2,1.71c1.64,0.21,3.25,0.2,4.88,0.08c1.02-0.08,2.04-0.13,3.05-0.17c0.49-0.02,0.73,0.29,0.76,0.76
		c0.01,0.14,0.02,0.27,0.02,0.41c0,4.08-0.01,8.16,0.01,12.24c0,0.71-0.26,1.32-0.55,1.94c-1.31,2.76-2.62,5.53-3.93,8.29
		c-0.06,0.15-0.13,0.29-0.19,0.44c-0.07,0.13-0.13,0.26-0.2,0.38c-0.59,0.78-1.06,1.61-1.2,2.75c0.89-0.31,1.3-0.86,1.6-1.53
		c3.09-3.53,6.18-7.06,9.29-10.58c0.64-0.73,1.12-1.51,1.43-2.43c0.55-1.61,1.12-3.21,1.77-4.78c0.47-1.16,0.63-2.34,0.63-3.58
		c0-3.6-0.42-3.29,3.13-3.06c5.07,0.33,10.04-0.45,15.04-0.92c0.47-0.04,0.93-0.18,1.39-0.3c4.02-1.01,8.08-1.91,11.96-3.4
		c0.71-0.27,1.44-0.38,2.2-0.35c0.27,0.01,0.54,0.01,0.82,0.01c3.26,0.07,6.53,0.22,9.75-0.56c0.9-0.22,1.08,0.03,0.94,0.96
		c-0.04,0.27-0.09,0.54-0.16,0.8c-0.91,3.27-1.7,6.58-3.07,9.71c-1.5,3.43-2.7,6.97-4.03,10.47c-0.54,1.43-0.6,2.92-0.8,4.4
		c-0.64,4.86-1.06,9.73-0.93,14.64c0.08,2.93-0.24,5.85-0.5,8.75c-0.32,3.6-0.35,7.2-0.37,10.8c-0.02,3.66,0.28,2.98-3.08,3.72
		c-6.77,1.49-13.55,2.94-20.33,4.41c-0.66,0.14-1.32,0.32-1.95,0.47c-0.06,0.5,0.26,0.63,0.55,0.78c4.84,2.5,9.69,4.95,14.9,6.61
		c0.58,0.19,1.17,0.36,1.77,0.47c2.14,0.36,4.26,0.88,6.45,0.96c0.76,0.03,0.91,0.21,0.92,1.03c0.01,1.09-0.02,2.18-0.05,3.26
		c-0.05,1.56-0.25,3.13-0.16,4.69c0.25,4.61-0.67,9.06-1.53,13.54c-1.02,5.28-2.12,10.53-3.72,15.67c-0.24,0.77-0.42,1.59-0.49,2.39
		c-0.35,4.47-0.69,8.95-0.95,13.43c-0.23,3.94-0.28,7.89-0.53,11.82c-0.19,3.05-0.57,6.09-0.86,9.14c-0.1,1.02-0.18,2.03-0.3,3.05
		c-0.12,1.01-0.23,2.03-0.43,3.03c-0.22,1.12-0.37,1.21-1.47,1.28c-3.96,0.26-7.78,1.21-11.58,2.3c-0.73,0.21-1.35,0.65-1.96,1.07
		c-1.13,0.79-2.38,1.29-3.7,1.67c-2.42,0.68-4.83,1.4-7.25,2.11c-0.51,0.15-1.02,0.32-1.64,0.52c0.31,0.51,0.74,0.37,1.08,0.37
		c3.06,0.02,6.13,0.1,9.18-0.01c3.02-0.12,5.97,0.31,8.9,0.93c2.06,0.44,4.11,0.95,6.17,1.41c0.51,0.11,0.66,0.41,0.64,0.86
		c-0.08,1.9-0.13,3.81-0.28,5.7c-0.18,2.33-0.05,4.62,0.71,6.84c0.5,1.45,0.45,2.93,0.31,4.43c-0.18,1.83-0.48,3.63-1.08,5.38
		c-1.09,3.16-1.66,6.45-2.24,9.73c-0.23,1.33-0.22,2.71-0.22,4.07c0,1.12-0.3,2.14-0.74,3.14c-0.21,0.49-0.5,0.78-1.05,0.8
		c-1.09,0.04-2.18,0.08-3.2-0.43c-0.43-0.21-0.9-0.33-1.33-0.52c-3.25-1.46-6.63-2.41-10.15-2.92c-3.09-0.45-6.17-1.04-9.25-1.57
		c-0.3-0.9,0.05-1.74,0.22-2.6c1.36-6.87,0.92-13.51-2.32-19.86c-2.02-3.96-3.31-8.19-4.24-12.52c-1.08-5.01-1.62-10.07-1.39-15.19
		c0.15-3.35,0.63-6.63,1.9-9.76c3.37-8.29,5.54-16.92,7.3-25.66c1.43-7.12,1.79-14.27,0.48-21.48c-2.09-11.5-4.1-23.03-6.02-34.56
		c-1.09-6.52-3.33-12.59-6.48-18.37c-2.37-4.34-5.33-8.2-9.17-11.36c-5.26-4.32-11.38-6.55-18.06-7.39
		c-3.71-0.47-7.44-0.71-11.18-0.89c-4.3-0.22-8.56-0.03-12.79,0.79c-2.27,0.44-4.56,0.78-6.88,0.88c-4.37,0.18-8.71-0.19-13.01-0.89
		c-5.38-0.88-10.63-2.29-15.76-4.14c-7.5-2.71-14.73-6.03-21.76-9.77c-8.08-4.3-16.58-7.16-25.7-8.14
		c-5.94-0.64-11.81-0.45-17.53,1.55c-6.16,2.16-12.42,4-18.71,5.77c-5.69,1.6-11.38,3.24-17.26,4.05c-4.07,0.56-8.13,0.58-12.19-0.1
		c-2.29-0.38-4.51-1.02-6.77-1.51c-2.21-0.48-4.42-0.63-6.69-0.41c-2.88,0.28-5.61,1.01-8.24,2.19c-1.43,0.64-2.87,1.26-4.34,1.76
		c-2.4,0.8-4.86,1.34-7.42,1.01c-5.12-0.67-10.25-1.31-15.36-2.07c-6.53-0.97-13.06-1.84-19.67-2.01
		C17.14,65.37,16.39,65.34,15.67,65.08z M310.52,83.66c-1,1.06-1.58,2.34-2.03,3.7c-0.06,0.18-0.07,0.4,0.18,0.43
		c0.1,0.01,0.27-0.1,0.32-0.2c0.64-1.19,1.25-2.39,1.88-3.58c0.72-0.75,1.45-1.51,2.17-2.26c0.54-0.27,1.06-0.59,1.63-0.79
		c3.02-1.03,5.93-1.15,8.5,1.16c0.17,0.55,0.5,1.05,0.45,1.66c-0.12,0.1-0.23,0.19-0.35,0.29c-0.25-0.32-0.47-0.67-0.75-0.96
		c-0.95-0.97-1.99-1.07-3.1-0.32c-0.71,0.48-1.16,1.14-1.3,1.98c-0.11,0.67-0.2,1.34-0.27,2.02c-0.31,2.9,1.6,5.56,4.45,6.17
		c0.53,0.11,1.07,0.17,1.61,0.2c4.55,0.2,4.3,0.22,8.12-2.35c0.17-0.11,0.33-0.25,0.46-0.4c0.08-0.09,0.08-0.24,0.12-0.36
		c-0.12-0.03-0.26-0.12-0.36-0.09c-0.25,0.1-0.48,0.24-0.71,0.38c-3.75,2.37-3.75,2.37-7.97,2.12c-0.14-0.01-0.27-0.02-0.41-0.02
		c-2.07-0.09-4.72-1.96-4.63-5.02c0.02-0.74,0.08-1.49,0.19-2.23c0.06-0.39,0.19-0.81,0.4-1.14c0.64-1.03,2.24-1.6,3.17-0.11
		c0.29,0.46,0.53,0.94,0.83,1.4c0.15,0.23,0.39,0.38,0.7,0.28c0.28-0.09,0.44-0.3,0.49-0.59c0.21-1.19,0.07-2.3-0.8-3.22
		c-0.54-0.93-1.39-1.49-2.38-1.73c-2.97-0.72-5.86-0.73-8.4,1.32C311.75,81.92,311.07,82.72,310.52,83.66z M109.13,55.8
		c-0.61-0.04-1.23-0.02-1.83-0.13c-2.39-0.43-3.67-3.4-2.36-5.47c0.45-0.71,1.36-0.83,1.9-0.22c0.27,0.3,0.45,0.68,0.72,0.99
		c0.11,0.13,0.38,0.22,0.53,0.17c0.16-0.05,0.33-0.26,0.37-0.43c0.07-0.32,0.12-0.68,0.05-1c-0.28-1.42-1.22-2.27-2.58-2.57
		c-2.83-0.63-5.25,0.05-7.06,2.44c-0.49,0.65-0.91,1.34-1.26,2.09c-0.28,0.61-0.6,1.22-1,1.77c-1.4,1.94-3.28,2.79-5.67,2.38
		c-0.4-0.07-0.8-0.14-1.21-0.2c-0.19-0.03-0.39-0.1-0.57,0.07c-0.15,0.13,0.1,0.43,0.43,0.54c2.97,0.92,5.42,0.22,7.33-2.08
		c0.52-0.63,0.94-1.33,1.26-2.09c0.43-1.01,1.01-1.93,1.76-2.73c1.67-1.77,4.63-2.31,6.55-1.21c0.1,0.06,0.18,0.22,0.18,0.33
		c0,0.09-0.13,0.21-0.23,0.26c-0.12,0.05-0.27,0.04-0.4,0.06c-1.17,0.14-1.82,0.84-2.02,1.96c-0.1,0.53-0.22,1.08-0.21,1.61
		c0.04,1.63,0.76,2.96,2.24,3.6c1.86,0.81,3.84,0.9,5.75,0.11c0.8-0.33,1.48-0.95,2.2-1.46c0.08-0.06,0.16-0.28,0.12-0.35
		c-0.12-0.21-0.35-0.18-0.52-0.08c-0.35,0.21-0.69,0.43-1.02,0.67C111.55,55.61,110.41,55.95,109.13,55.8z M316.98,201.45
		c-0.31,0-0.58,0.01-0.86,0c-3.02-0.14-4.56-2.37-3.57-5.2c0.35-0.99,1.49-1.4,2.21-0.42c0.24,0.33,0.48,0.65,0.75,0.95
		c0.16,0.18,0.6,0.06,0.67-0.19c0.09-0.32,0.21-0.67,0.17-0.98c-0.18-1.44-1.07-2.31-2.41-2.73c-2.66-0.82-5.38,0.04-7.13,2.23
		c-0.55,0.69-1.04,1.43-1.37,2.26c-0.28,0.7-0.66,1.33-1.12,1.93c-1.36,1.77-3.14,2.54-5.36,2.24c-0.47-0.06-0.94-0.15-1.41-0.22
		c-0.19-0.03-0.38-0.12-0.57,0.06c-0.14,0.13,0.11,0.45,0.43,0.55c3.35,1.05,6.25-0.06,8.04-3.08c0.28-0.47,0.48-0.97,0.72-1.46
		c0.45-0.92,1-1.78,1.73-2.5c1.61-1.58,4.27-2.09,6.24-1.17c0.16,0.07,0.33,0.27,0.36,0.43c0.04,0.24-0.2,0.3-0.4,0.3
		c-1.51,0.05-2.14,1-2.35,2.34c-0.06,0.4-0.14,0.81-0.12,1.21c0.05,1.62,0.73,2.96,2.23,3.62c1.86,0.82,3.84,0.9,5.75,0.13
		c0.8-0.32,1.48-0.95,2.2-1.46c0.09-0.06,0.16-0.27,0.12-0.35c-0.11-0.22-0.34-0.19-0.51-0.09c-0.3,0.17-0.58,0.35-0.85,0.55
		C319.48,201.22,318.3,201.66,316.98,201.45z M314.24,100.07c-0.26,0.3-0.48,0.03-0.71-0.02c-1.06-0.24-1.96,0.09-2.37,1.02
		c-1.05,2.39-0.48,5.85,3.09,6.44c1,0.16,2.04,0.17,3.05,0.08c1.48-0.13,2.62-1.01,3.65-2.03c0.03-0.03,0.04-0.13,0.01-0.18
		c-0.07-0.15-0.2-0.2-0.34-0.12c-0.52,0.31-1.04,0.63-1.56,0.96c-0.58,0.37-1.19,0.66-1.89,0.7c-1.02,0.06-2.04,0.06-3.05-0.15
		c-2.37-0.48-3.58-3.43-2.28-5.51c0.44-0.71,1.35-0.78,1.89-0.13c0.21,0.26,0.36,0.57,0.55,0.85c0.16,0.24,0.39,0.41,0.68,0.33
		c0.3-0.08,0.41-0.35,0.44-0.62c0.16-1.7-0.92-3.13-2.75-3.47c-2.74-0.5-5.15,0.11-6.87,2.47c-0.48,0.65-0.85,1.39-1.26,2.09
		c-0.38,0.64-0.69,1.33-1.14,1.92c-1.49,1.98-3.48,2.74-5.92,2.24c-0.33-0.07-0.66-0.16-0.99-0.21c-0.18-0.03-0.42,0-0.41,0.26
		c0,0.09,0.14,0.24,0.25,0.27c3.55,1.14,5.96,0.03,7.51-2c0.5-0.65,0.94-1.33,1.26-2.09c0.43-1.01,1-1.94,1.77-2.71
		c1.76-1.76,3.86-2.16,6.2-1.4C313.55,99.24,314.04,99.5,314.24,100.07z M296.46,92.12c-0.06,0.44,0.18,0.58,0.42,0.66
		c0.58,0.17,1.17,0.36,1.77,0.45c3.75,0.59,6.85-0.51,9.12-3.64c0.16-0.22,0.26-0.47,0.37-0.71c0.02-0.05,0-0.13-0.02-0.18
		c-0.07-0.14-0.2-0.18-0.33-0.06c-0.24,0.24-0.48,0.48-0.68,0.75c-2.19,2.79-5.04,3.78-8.5,3.13
		C297.9,92.38,297.18,92.25,296.46,92.12z"/>
	<path class="st0" d="M106.07,97.81c0.16-1.72,0.87-3.38,2.33-4.63c1.63-1.38,3.83-0.85,4.76,1.08c0.27,0.55,0.46,1.14,0.45,1.76
		c-0.02,0.7,0.05,1.33,0.58,1.87c0.24,0.25,0.23,0.63,0.15,0.97c-0.5,2.09-1.79,3.48-3.83,4.1c-1.45,0.44-3.09-0.46-3.83-1.99
		C106.37,100.32,106.08,98.9,106.07,97.81z M110.41,100.73c0.97,0.03,1.14-0.06,1.53-0.98c0.21-0.5,0.32-1.05,0.58-1.52
		c0.59-1.07,0.21-1.99-0.4-2.84c-0.81-1.13-2.04-1.16-2.93-0.11c-0.72,0.85-1.11,1.86-1.15,2.99
		C108,99.75,108.92,100.69,110.41,100.73z"/>
	<path class="st0" d="M90.45,130.31c0.19-0.15,0.19-0.34,0.12-0.54c-0.36-1.17-0.78-2.32-1.08-3.5c-0.51-2.05-0.68-4.15-0.77-6.25
		c-0.05-1.31,0.46-2.52,0.81-3.76c0.05-0.19,0.08-0.42,0.32-0.45c0.85-0.12,0.97-0.87,1.25-1.46c0.45-0.92,0.87-1.85,1.54-2.63
		c0.27-0.31,0.54-0.6,0.99-0.61c0.15,0.1,0.18,0.22,0.09,0.36c-0.99,1.56-1.52,3.33-2.2,5.03c-0.1,0.25-0.11,0.55-0.25,0.77
		c-1.05,1.74-1.04,3.6-0.7,5.53c0.12,0.66,0.12,1.36,0.11,2.03c-0.08,2.8,0.75,5.37,2.01,7.81c0.68,1.33,1.5,2.58,2.26,3.87
		c-0.19,0.16-0.39,0.32-0.58,0.48c-1.35-1.52-2.47-3.22-3.49-4.97c-0.3-0.52-0.68-1.04-0.4-1.7L90.45,130.31z"/>
	<path class="st0" d="M65.82,136.18c0.48-0.57,0.93-1.14,1.4-1.68c0.07-0.08,0.29-0.15,0.37-0.11c0.58,0.33,0.86-0.11,1.17-0.43
		c0.28-0.29,0.58-0.58,0.76-0.93c0.32-0.65,0.7-1.06,1.52-1.06c0.56,0,0.79-0.67,1.19-1.02c0.16-0.13,0.35-0.21,0.55-0.1
		c0.27,0.15,0.31,0.43,0.25,0.7c-0.09,0.4-0.29,0.75-0.63,1c-0.22,0.16-0.49,0.26-0.66,0.45c-0.36,0.39-0.36,1.13-0.91,1.28
		c-1.65,0.44-2.89,1.72-4.56,2.09C66.17,136.4,66.04,136.28,65.82,136.18z"/>
	<path class="st0" d="M59.83,115.46c0.8-0.32,1.42-0.81,2.27-0.05c0.45,0.41,1.2,0.09,1.75-0.12c0.72-0.28,1.31-0.25,1.83,0.35
		c0.56,0.64,1.42,0.37,2.09,0.68c0.23,0.11,0.47,0.34,0.32,0.64c-0.08,0.15-0.28,0.27-0.45,0.35c-0.11,0.05-0.27,0.05-0.4,0.02
		c-2.11-0.42-4.22-0.86-6.34-1.24C60.52,116.02,60.15,115.87,59.83,115.46z"/>
	<path class="st0" d="M63.53,126.31c-0.13,0-0.28,0.03-0.4-0.01c-0.11-0.03-0.25-0.12-0.28-0.21c-0.03-0.1,0.01-0.3,0.09-0.34
		c1.32-0.66,2.71-1.11,4.14-1.46c0.13-0.03,0.27-0.02,0.4-0.02c0.59,0,1.29,0.4,1.12,0.6c-0.31,0.38-0.71,0.67-1.08,1
		C66.15,125.6,64.89,126.4,63.53,126.31z"/>
	<path class="st0" d="M113.6,157.81c-0.28-0.01-0.35,0.19-0.41,0.41c-0.11,0.08-0.21,0.17-0.33,0.23c-0.11,0.05-0.26,0.11-0.36,0.08
		c-0.07-0.02-0.16-0.24-0.13-0.3c0.68-1.11,0.75-2.37,0.78-3.78c0.66,1.06,0.68,1.08,0.6,1.79
		C113.69,156.75,113.48,157.26,113.6,157.81z"/>
	<path class="st0" d="M108.99,121.07c0.07,0.21,0.2,0.4,0.17,0.57c-0.08,0.53-0.14,1.1-0.35,1.58c-0.21,0.49,0.27,1.23-0.55,1.48
		c-0.4-0.58-0.13-1.18-0.05-1.76C108.32,122.28,108.35,121.58,108.99,121.07z"/>
	<path class="st0" d="M108.3,126.55c-0.05,0.83-0.1,1.65-0.15,2.48c-0.05,0-0.11-0.01-0.16-0.01c0-0.85,0-1.69,0-2.54
		C108.09,126.5,108.2,126.53,108.3,126.55z"/>
	<path class="st0" d="M238.33,214.11c-1.63,0-3.26-0.04-4.89,0.01c-1.03,0.03-1.82-0.29-2.54-1.03c-1.85-1.9-3.74-3.76-5.62-5.62
		c-0.48-0.48-0.98-0.95-1.53-1.34c-1.09-0.77-2.33-1.04-3.66-1.03c-3.19,0.02-6.39,0.01-9.58,0c-0.54,0-1.09-0.02-1.63-0.04
		c-0.29-0.01-0.47-0.38-0.28-0.58c1.17-1.23,2.34-2.46,3.53-3.67c0.42-0.43,0.99-0.39,1.54-0.39c1.83,0,3.67,0,5.5,0
		c1.36,0,2.72,0.03,4.08-0.01c1.02-0.03,1.82,0.33,2.53,1.06c1.85,1.9,3.79,3.71,5.6,5.64c1.64,1.75,3.57,2.56,5.98,2.5
		c3.26-0.08,6.52-0.02,9.78-0.02c0.27,0,0.54,0.02,0.81,0.04c0.28,0.03,0.43,0.4,0.23,0.61c-1.14,1.16-2.3,2.31-3.44,3.47
		c-0.38,0.38-0.84,0.4-1.32,0.4C241.73,214.11,240.03,214.11,238.33,214.11z"/>
	<path class="st0" d="M58.74,198.87c0.27-0.27,0.54-0.54,0.81-0.81c5.62-3.31,11.7-4.66,18.16-3.93c4.22,0.48,7.86,2.43,11.13,5.11
		c0.6,0.49,1.01,1.09,1.15,1.86c0.05,0.27,0.16,0.52,0.2,0.79c0.25,1.54,0.51,3.08,1.08,4.54c0.19,0.47,0.01,0.8-0.4,1
		c-0.66,0.33-1.27,0.79-2.16,0.79c-0.38-1.47-1.18-2.85-0.87-4.46c-0.24-0.01-0.42-0.07-0.46-0.02c-0.64,0.88-1.52,1.36-2.58,1.44
		c-3.13,0.26-5.37,2.05-7.42,4.2c-1.35,0.75-2.17,2.19-3.63,2.92c-0.15-0.39-0.3-0.63-0.33-0.89c-0.18-1.24-0.67-2.33-1.48-3.3
		c-0.26-0.31-0.46-0.67-0.64-1.04c-0.35-0.73-0.93-1.09-1.68-1.35c-1.39-0.49-1.38-0.53-1.19-2.02c0.02-0.13,0.06-0.27,0.04-0.4
		c-0.04-0.23-0.23-0.36-0.43-0.27c-0.3,0.15-0.6,0.33-0.84,0.56c-1.6,1.52-3.56,2.13-5.71,2.37c-1.68,0.19-3.35,0.53-5.02,0.82
		c-0.4,0.07-0.79,0.21-1.17,0.34c-0.09,0.03-0.21,0.19-0.2,0.27c0.01,0.09,0.17,0.23,0.25,0.23c0.4-0.02,0.81-0.07,1.21-0.14
		c1.27-0.22,2.53-0.53,3.81-0.67c2.38-0.26,4.7-0.65,6.83-2.2c0.12,0.88,0.54,1.33,1.28,1.47c0.4,0.08,0.77,0.25,1.16,0.38
		c0.41,0.13,0.73,0.38,0.94,0.74c0.91,1.57,2.09,2.98,2.35,4.91c0.11,0.81,0.13,1.39-0.42,2.03c-1.24,1.45-2.31,3.02-3.17,4.73
		c-0.12,0.23-0.25,0.48,0.02,0.71c0.06-0.02,0.16-0.02,0.19-0.07c0.24-0.32,0.51-0.63,0.71-0.98c1.61-2.79,3.64-5.23,6.01-7.4
		c0.5-0.46,0.96-0.95,1.44-1.43c0.91-0.71,1.84-1.39,2.71-2.14c0.8-0.69,1.68-1.13,2.7-1.33c1.06-0.21,2.12-0.46,3.18-0.72
		c0.5-0.13,0.77,0.08,0.97,0.48c0.03,0.06,0.06,0.12,0.08,0.19c0.23,0.78,0.71,1.58,0.63,2.33c-0.08,0.75-1.16,0.81-1.73,1.27
		c-0.16,0.13-0.33,0.23-0.52,0.33c-1.22,0.62-1.96,1.56-2.29,2.92c-0.41,1.71-0.95,3.4-1.49,5.08c-0.27,0.83-0.28,1.54,0.2,2.32
		c0.41,0.67,0.26,0.9-0.61,1.03c-1.61,0.25-3.22,0.51-4.84,0.64c-2.98,0.24-5.96,0.48-8.95,0.27c-1.39-0.1-2.7-0.44-3.84-1.21
		c-3.51-2.36-6.77-5-9.07-8.64c-1.74-2.75-1.77-6.55,0.32-8.97C56.46,202.05,57.5,200.39,58.74,198.87z M74.28,198.78
		c1.07-0.6,1.56-1.11,2.29-1.86c-1.13,0.15-2.18,0.89-2.91,1.65c-0.33,0.19-3.67,2.96-3.76,3.5
		C70.25,201.8,73.98,199.36,74.28,198.78z"/>
	<path class="st0" d="M89.89,217.75c2.15-0.35,4.29-0.7,6.44-1.05c1.15-0.19,2.23-0.56,3.27-1.07c1.04,0.3,2.07,0.76,3.13,0.85
		c1.68,0.13,3.3,0.87,5.03,0.58c0.11-0.02,0.37,0.22,0.4,0.38c0.17,0.74,0.18,1.47-0.34,2.12c-1.97,2.45-4.17,4.65-6.85,6.34
		c-0.71,0.45-1.5,0.71-2.3,0.75c-3.53,0.16-7.07,0.3-10.51-0.79c-0.26-0.08-0.51-0.19-0.77-0.27c-0.96-0.28-1.64-0.84-2.15-1.74
		c-0.66-1.18-1.42-2.32-2.2-3.43c-0.52-0.73-0.65-1.47-0.39-2.3c0.56-1.82,1.11-3.64,1.65-5.46c0.22-0.76,0.7-1.27,1.35-1.71
		c1.7-1.15,3.58-1.95,5.43-2.81c0.41-0.19,0.92-0.25,1.39-0.25c1.63-0.01,3.25,0.08,4.83,0.58c1.55,0.49,3.09,1.06,4.73,1.23
		c0.59,0.06,0.97,0.43,1.36,0.82c0.76,0.78,1.51,1.57,2.32,2.28c0.86,0.75,1.36,1.68,1.7,2.73c0.22,0.68-0.09,1.03-0.84,0.91
		c-1.48-0.23-2.95-0.48-4.42-0.74c-0.88-0.15-1.68-0.52-2.45-0.97c-0.38-0.22-0.89-0.24-1.1,0.15c-0.51,0.94-1.45,0.96-2.28,1.14
		c-1.66,0.35-3.34,0.58-5.02,0.87c-0.33,0.06-0.67,0.12-0.99,0.22c-0.3,0.1-0.33,0.4-0.39,0.66c-0.18,0.07-0.39,0.24-0.55,0.2
		c-0.89-0.19-1.65-0.62-2.12-1.44c-0.34-0.59-0.65-1.19-1-1.77c-0.15-0.25-0.26-0.62-0.83-0.46c0.24,0.85,0.41,1.71,0.71,2.51
		c0.51,1.36,0.36,2.66-0.17,3.95c-0.1,0.25-0.24,0.49-0.33,0.74c-0.07,0.18-0.07,0.4,0.17,0.46c0.1,0.02,0.26-0.09,0.34-0.18
		c0.42-0.55,0.64-1.19,0.8-1.85c0.09-0.4,0.16-0.8,0.27-1.19c0.13-0.44,0.53-0.61,0.97-0.41c0.49,0.23,0.97,0.49,1.44,0.76
		c1.18,0.68,2.33,1.4,3.52,2.05c1.56,0.85,3.05,1.78,3.97,3.38c0.07,0.11,0.17,0.22,0.28,0.29c0.1,0.05,0.28,0.09,0.34,0.03
		c0.07-0.06,0.11-0.27,0.06-0.35c-0.72-1.24-1.51-2.39-2.85-3.09c-1.2-0.62-2.35-1.35-3.52-2.04c-0.46-0.28-0.91-0.58-1.36-0.9
		C89.8,218.3,89.79,218.03,89.89,217.75z"/>
	<path class="st0" d="M21.81,242.26c-5.29,0.02-9.47-4.12-9.46-9.38c0.01-5.1,4.22-9.29,9.36-9.32c5.11-0.02,9.36,4.19,9.36,9.3
		C31.09,238.01,26.92,242.24,21.81,242.26z M18.85,233.71c0.42,2.07,1.95,6.37,2.7,7.56c0.15-0.13,0.39-0.22,0.45-0.37
		c0.91-2.38,1.95-4.73,2.56-7.22c0.27-0.68,0.08-1.32-0.14-1.97c-0.7-2.04-1.38-4.08-2.09-6.12c-0.1-0.3-0.13-0.66-0.47-0.83
		c-0.12,0.07-0.29,0.11-0.33,0.2c-0.93,2.46-1.83,4.92-2.76,7.38C18.58,232.83,18.69,233.26,18.85,233.71z"/>
	<path class="st0" d="M23.7,232.96c0.02,1.39-0.75,2.55-1.16,3.81c-0.2,0.61-0.29,1.31-0.84,1.77c-0.83-0.33-0.67-1.2-0.95-1.82
		c-0.45-0.96-0.59-2.06-1.16-2.98c-0.08-0.46,0.03-0.8,0.56-0.8C21.33,232.93,22.52,232.95,23.7,232.96z"/>
	<path class="st1" d="M608.38,103.06c0.33,0.63,0.93,0.7,1.41,0.94c3.84,1.92,6.94,4.74,9.39,8.21c2.54,3.59,3.29,7.7,2.76,12
		c-1.17,9.49-7.14,16.1-16.67,18.53c-1.09,0.28-2.22,0.44-3.34,0.56c-4.11,0.44-8.21,0.4-12.34,0.18c-5.72-0.3-11.44-0.8-17.18-0.78
		c-0.89,0-1.78-0.02-2.66-0.09c-4.36-0.35-8.71-0.25-13.06,0.19c-0.56,0.06-1.13,0.1-1.69,0.11c-2.55,0.04-4.25-1.27-5.36-3.47
		c-0.28-0.55-0.08-0.86,0.59-0.92c0.16-0.01,0.32-0.02,0.48-0.02c2.69,0.07,4.15-1.48,4.97-3.82c0.29-0.83,0.45-1.72,0.53-2.6
		c0.32-3.78,0.66-7.56,0.85-11.35c0.53-10.32,0.87-20.65,0.51-30.99c-0.15-4.43-0.55-8.86-0.85-13.29c-0.09-1.3-0.47-2.53-0.99-3.73
		c-1.02-2.37-2.83-3.86-5.19-4.79c-0.73-0.29-0.79-0.66-0.39-1.31c0.95-1.58,2.32-2.44,4.19-2.42c0.89,0.01,1.78,0.02,2.66,0.13
		c4.59,0.55,9.2,0.39,13.79,0.21c7.42-0.29,14.84-0.66,22.26-1.02c2.76-0.14,5.5,0.04,8.22,0.4c4.49,0.59,8.55,2.37,12.08,5.22
		c3.7,2.98,5.7,6.98,6.36,11.62c0.48,3.39,0.19,6.77-0.71,10.08c-1.33,4.88-4.54,8.26-8.66,10.93
		C609.68,102.19,608.84,102.36,608.38,103.06z M573.66,103.01c0.16,5.08,0.41,11.06,0.86,17.02c0.19,2.53,0.84,4.93,1.8,7.26
		c0.68,1.66,1.61,3.17,2.83,4.49c2.12,2.31,4.73,3.66,7.9,3.68c3.42,0.03,6.75-0.55,9.92-1.94c3.15-1.38,5.24-3.69,6.3-6.95
		c0.76-2.34,1-4.74,0.88-7.18c-0.18-3.59-0.86-7.05-2.64-10.23c-1.16-2.07-2.76-3.51-5.21-3.94c-1.58-0.28-3.13-0.78-4.67-1.29
		c-2.35-0.78-4.37-2.1-5.91-4.06c-1.59-2.02-2.18-4.29-1.54-6.82c0.16-0.62,0.55-0.72,1.04-0.26c0.93,0.89,1.79,1.88,2.8,2.68
		c4.28,3.41,9.76,2.22,12.22-2.62c0.44-0.86,0.79-1.77,1.09-2.69c0.75-2.33,1.01-4.72,0.96-7.17c-0.12-5.45-2.78-9.15-7.89-11
		c-2.08-0.75-4.24-0.98-6.41-1.23c-4.8-0.56-8.53,1.19-11.16,5.26c-0.75,1.16-1.33,2.4-1.76,3.71c-0.85,2.55-1.36,5.16-1.37,7.84
		C573.65,92.42,573.66,97.27,573.66,103.01z"/>
	<path class="st1" d="M428.73,142.79c-4.12,0.04-8.23-0.06-12.35-0.34c-5.16-0.36-10.33-0.38-15.49,0.19
		c-1.12,0.12-2.26,0.2-3.39,0.12c-2.32-0.17-3.85-1.49-4.76-3.58c-0.18-0.42,0.05-0.74,0.56-0.8c0.24-0.03,0.48-0.04,0.73-0.04
		c2.35,0.01,3.75-1.29,4.55-3.35c0.29-0.74,0.5-1.54,0.59-2.34c0.3-2.73,0.59-5.46,0.78-8.2c0.26-3.87,0.47-7.74,0.6-11.61
		c0.2-5.97,0.5-11.95,0.35-17.93c-0.15-6.06-0.31-12.11-0.89-18.15c-0.1-1.04-0.3-2.08-0.57-3.09c-0.75-2.8-2.32-4.95-5.08-6.1
		c-0.3-0.12-0.58-0.28-0.87-0.42c-0.46-0.21-0.53-0.57-0.33-0.99c0.67-1.41,1.74-2.3,3.31-2.52c1.13-0.16,2.26-0.08,3.38,0.02
		c3.95,0.35,7.9,0.66,11.86,0.41c7.83-0.49,15.67-0.44,23.5-0.64c2.94-0.07,5.78,0.53,8.53,1.55c3.12,1.16,6.05,2.68,8.75,4.64
		c2.86,2.09,5.08,4.7,6.65,7.89c2.19,4.46,3.61,9.16,4.34,14.07c0.81,5.45,1.13,10.93,0.57,16.43c-0.74,7.29-2.49,14.31-5.84,20.88
		c-1.03,2.02-2.22,3.94-3.62,5.73c-3.28,4.21-7.6,6.66-12.81,7.64c-1.99,0.38-4,0.54-6.03,0.52
		C433.42,142.77,431.08,142.79,428.73,142.79z M416.98,101.49c-0.04,5.63,0.34,11.43,0.67,17.23c0.22,3.78,0.62,7.56,0.86,11.34
		c0.1,1.63,0.87,2.72,2.24,3.48c0.92,0.51,1.91,0.86,2.95,1.07c3.66,0.74,7.36,0.99,11.08,0.89c1.92-0.05,3.6-0.83,5.06-2.06
		c1.63-1.37,2.87-3.05,3.73-5c0.69-1.55,1.2-3.17,1.59-4.82c1.04-4.33,1.52-8.74,1.67-13.18c0.25-7.35,0.09-14.68-1.2-21.95
		c-0.6-3.35-1.5-6.61-2.99-9.68c-0.99-2.05-2.19-3.95-3.86-5.53c-1.69-1.6-3.65-2.63-5.99-2.9c-2.17-0.25-4.34-0.3-6.52,0.04
		c-3.87,0.59-6.48,2.66-7.78,6.38c-0.95,2.69-1.44,5.45-1.49,8.3C416.91,90.49,416.81,95.89,416.98,101.49z"/>
	<path class="st1" d="M723.31,139.65c0.38-0.36,0.8-0.32,1.19-0.35c1.47-0.12,2.32-1.02,2.84-2.3c0.33-0.83,0.46-1.71,0.52-2.6
		c0.25-3.71,0.61-7.41,0.78-11.11c0.41-8.72,0.42-17.44-0.36-26.14c-0.25-2.82-1.27-5.16-4.13-6.31c-0.61-0.24-0.65-0.63-0.35-1.15
		c0.44-0.74,1.07-1.18,1.91-1.36c0.64-0.14,1.27-0.15,1.92-0.08c4.6,0.52,9.19,0.4,13.78-0.07c0.64-0.07,1.29-0.11,1.93-0.06
		c0.86,0.07,1.49,0.55,1.9,1.32c0.38,0.7,0.15,1.29-0.68,1.35c-2.21,0.15-3.3,1.52-3.86,3.44c-0.27,0.92-0.44,1.89-0.52,2.85
		c-0.35,4.11-0.36,8.23-0.37,12.35c0,0.32,0.07,0.64,0.13,0.95c0.06,0.29,0.31,0.36,0.54,0.31c0.23-0.05,0.45-0.19,0.64-0.33
		c4.99-3.72,9.97-7.44,14.38-11.87c0.74-0.75,1.46-1.51,1.93-2.47c0.77-1.56,0.48-2.78-0.95-3.79c-0.39-0.28-0.85-0.47-1.26-0.72
		c-0.91-0.54-0.96-1.13-0.2-1.9c0.53-0.55,1.19-0.86,1.92-0.95c0.64-0.08,1.3-0.12,1.93-0.04c4.11,0.51,8.22,0.37,12.33-0.02
		c0.88-0.08,1.77-0.14,2.66-0.12c1.16,0.03,1.98,0.61,2.38,1.72c0.18,0.49-0.02,0.95-0.53,1.16c-0.97,0.39-1.97,0.73-2.92,1.16
		c-2.52,1.16-4.74,2.73-6.72,4.69c-5.17,5.12-10.69,9.85-16.12,14.69c-0.9,0.81-1.8,1.62-2.67,2.46c-0.73,0.71-0.76,0.99-0.32,1.93
		c0.73,1.57,1.81,2.86,3.2,3.88c0.52,0.38,1.06,0.75,1.65,1.02c4.3,1.99,7.97,4.88,11.58,7.89c5.04,4.2,9.54,8.95,14.06,13.68
		c5.02,5.26,10.07,10.49,15.07,15.76c7.88,8.3,17.63,12.9,28.82,14.67c2.24,0.35,4.51,0.37,6.77,0.18c1.71-0.14,3.34-0.6,4.85-1.42
		c2.57-1.4,3.53-3.31,3.11-6.22c-0.1-0.71-0.34-1.41-0.47-2.12c-0.07-0.39,0.19-0.6,0.56-0.58c4.51,0.33,7.05,4.91,4.92,8.85
		c-0.82,1.52-2.01,2.72-3.43,3.69c-2.38,1.61-5.02,2.54-7.83,3.09c-3.8,0.74-7.57,0.41-11.32-0.25
		c-9.54-1.66-18.23-5.47-26.23-10.83c-13.47-9.03-25.9-19.3-36.9-31.25c-4.44-4.82-8.53-9.91-11.87-15.58
		c-0.69-1.18-1.58-2.24-2.4-3.34c-0.18-0.25-0.4-0.55-0.76-0.49c-0.46,0.07-0.33,0.5-0.33,0.78c-0.01,0.73,0,1.45,0.05,2.18
		c0.32,4.67,0.64,9.34,0.99,14.01c0.06,0.8,0.18,1.61,0.38,2.39c0.45,1.75,1.3,3.13,3.35,3.31c0.48,0.04,0.63,0.49,0.4,0.88
		c-0.56,0.95-1.34,1.6-2.42,1.87c-0.87,0.22-1.75,0.3-2.64,0.19c-1.28-0.15-2.57-0.25-3.85-0.43c-1.69-0.24-3.38-0.21-5.07-0.04
		c-1.45,0.15-2.9,0.29-4.35,0.28C725.03,142.33,723.84,141.38,723.31,139.65z"/>
	<path class="st1" d="M624.11,115.71c0.03-5.4,1.08-10.57,3.38-15.49c1.64-3.51,3.98-6.46,7.04-8.81c9.73-7.46,22.37-6.7,30.51,0.1
		c5.02,4.19,8.14,9.59,9.32,16.01c1.38,7.51,0.51,14.79-2.72,21.75c-2.07,4.46-5.27,7.93-9.5,10.38c-6.22,3.6-12.82,4.68-19.83,2.71
		c-3.82-1.08-7.11-3.04-9.9-5.84C627.38,131.48,624.03,124.32,624.11,115.71z M662.64,116.03c0.23-3.73,0-6.22-0.4-8.7
		c-0.45-2.8-1.31-5.49-2.71-7.99c-0.96-1.71-2.17-3.18-3.66-4.47c-3.24-2.81-9.89-3.34-13.53,1.15c-0.82,1.01-1.57,2.05-2.19,3.19
		c-0.85,1.57-1.56,3.19-2.1,4.89c-1.85,5.82-2.09,11.73-1.1,17.72c0.41,2.48,1.13,4.88,2.21,7.15c0.94,1.99,2.1,3.83,3.78,5.29
		c2.61,2.26,5.57,3.19,8.99,2.25c1.68-0.46,3.08-1.38,4.28-2.63c2.3-2.37,3.77-5.21,4.76-8.33
		C662.1,122.05,662.52,118.45,662.64,116.03z"/>
	<path class="st1" d="M486.87,142.25c-5.09,0.04-10.91-0.07-16.73,0.18c-0.88,0.04-1.78-0.05-2.65-0.17
		c-0.82-0.11-1.53-0.49-1.96-1.27c-0.17-0.3-0.05-0.74,0.27-0.78c0.48-0.07,0.96-0.09,1.44-0.16c1.99-0.31,3.39-1.41,4.24-3.23
		c0.7-1.48,1.12-3.03,1.32-4.64c0.33-2.64,0.69-5.29,0.86-7.95c0.47-7.42,0.64-14.85,0.56-22.28c-0.02-1.71-0.27-3.38-0.66-5.03
		c-0.16-0.7-0.44-1.39-0.71-2.06c-0.88-2.12-2.31-3.46-4.77-3.41c-0.74,0.02-0.91-0.47-0.55-1.11c0.56-0.99,1.45-1.52,2.51-1.73
		c0.7-0.14,1.45-0.16,2.17-0.11c8.24,0.58,16.47,0.45,24.71,0.03c2.34-0.12,4.68-0.26,7.02-0.38c0.89-0.04,1.78-0.08,2.67-0.08
		c0.8,0.01,1.06,0.25,0.96,1.01c-0.24,1.81,0.11,3.53,0.6,5.25c0.62,2.19,1.87,3.91,3.72,5.22c0.59,0.42,1.16,0.87,1.67,1.37
		c0.26,0.25,0.15,0.63-0.13,0.85c-0.25,0.19-0.55,0.33-0.85,0.43c-1.47,0.47-2.88,0.22-4.24-0.39c-2.23-1-4.27-2.28-5.96-4.08
		c-1.71-1.81-3.77-3-6.19-3.62c-1.19-0.31-2.39-0.4-3.6-0.38c-2.19,0.03-3.82,1.05-5.13,2.76c-2.45,3.19-2.62,11.02,1.2,14.65
		c1.83,1.74,3.99,2.72,6.48,2.99c0.89,0.1,1.77,0.04,2.63-0.27c1.88-0.69,2.68-1.91,2.53-3.91c-0.01-0.16-0.07-0.32-0.09-0.48
		c-0.18-1.53,0.17-1.95,1.6-1.84c1.59,0.11,2.99,0.73,4.15,1.8c2.1,1.94,1.85,6.01-0.49,8.03c-1.52,1.31-3.34,1.94-5.33,2.06
		c-2.52,0.15-5.01-0.02-7.43-0.77c-2.08-0.65-4.15-1.34-6.22-2.01c-0.6-0.19-0.98,0.03-1.01,0.63c-0.21,4.36-0.29,8.71,0.86,13
		c0.84,3.1,2.86,5.01,5.78,6.03c3.21,1.12,6.05,0.29,8.5-1.97c0.64-0.6,1.16-1.35,1.67-2.07c1.27-1.77,2.56-3.53,4.03-5.15
		c0.65-0.72,1.33-1.41,2.17-1.92c0.57-0.34,1.15-0.59,1.83-0.49c0.36,0.05,0.59,0.22,0.49,0.63c-0.02,0.08-0.04,0.16-0.08,0.23
		c-1.89,3.7-2.12,7.75-2.5,11.77c-0.15,1.53-0.32,3.05-0.48,4.58c-0.06,0.6-0.43,0.84-0.98,0.82c-1.53-0.04-3.07-0.05-4.6-0.16
		C497.3,142.29,492.45,142.27,486.87,142.25z"/>
	<path class="st1" d="M697.78,141.91c-5.66-0.06-11.3,0.2-16.95,0.41c-0.73,0.03-1.45,0.03-2.18,0.02c-0.74-0.02-1.43-0.24-2.07-0.6
		c-0.81-0.46-1.23-1.06-1-1.45c0.31-0.53,0.84-0.35,1.29-0.38c2.44-0.15,4.03-1.43,4.94-3.66c0.89-2.2,1.17-4.54,1.38-6.86
		c0.83-9.09,0.96-18.21,0.89-27.34c-0.02-1.77-0.18-3.55-0.66-5.27c-0.19-0.7-0.4-1.4-0.68-2.07c-0.93-2.16-2.34-3.65-4.94-3.54
		c-0.75,0.03-0.95-0.45-0.58-1.08c0.46-0.81,1.12-1.35,2-1.66c1.26-0.44,2.54-0.43,3.83-0.28c4.92,0.56,9.83,0.47,14.75,0.03
		c1.45-0.13,2.9-0.21,4.35-0.28c0.99-0.04,1.93,0.16,2.77,0.72c0.54,0.36,1,0.8,1.25,1.43c0.32,0.78,0.14,1.25-0.69,1.39
		c-2.02,0.35-3.86,1.11-5.59,2.21c-1.64,1.05-2.81,2.41-3.23,4.34c-0.24,1.1-0.54,2.2-0.68,3.32c-0.55,4.25-0.81,8.52-0.58,12.8
		c0.07,1.29,0.06,2.58,0.03,3.87c-0.06,3.07-0.12,6.14,0.4,9.18c0.13,0.79,0.29,1.59,0.46,2.37c0.81,3.74,3.3,5.85,6.84,6.74
		c2.87,0.73,5.45-0.15,7.58-2.17c0.75-0.71,1.36-1.59,1.97-2.44c1.46-2.03,2.88-4.1,4.66-5.87c0.75-0.75,1.54-1.44,2.65-1.59
		c0.33-0.04,0.69-0.08,0.88,0.22c0.11,0.16,0.1,0.48,0.01,0.67c-1.62,3.43-2.05,7.11-2.28,10.83c-0.11,1.77-0.3,3.54-0.47,5.31
		c-0.09,0.89-0.33,1.11-1.22,1.13c-0.56,0.01-1.13-0.04-1.69-0.04C709.41,142.24,703.6,141.8,697.78,141.91z"/>
	<path class="st1" d="M780.74,236.47c-0.91,2.57-2.17,3.48-4.51,3.36c-1.99-0.1-3.6-0.88-4.66-2.6c-0.63-1.03-1.21-2.1-1.74-3.19
		c-1.45-2.98-2.83-5.98-4.3-8.95c-0.64-1.3-1.44-2.52-2.18-3.77c-0.07-0.12-0.25-0.23-0.39-0.23c-0.3-0.01-0.39,0.25-0.4,0.49
		c-0.03,1.13-0.05,2.26-0.05,3.39c0,2.91,0.08,5.82,0.01,8.72c-0.04,1.72,0.35,3.04,2.22,3.49c0.25,0.06,0.45,0.25,0.39,0.5
		c-0.05,0.21-0.23,0.42-0.4,0.58c-0.45,0.42-1.03,0.49-1.59,0.38c-1.68-0.35-3.36-0.4-5.06-0.19c-0.31,0.04-0.64-0.03-0.96-0.1
		c-0.32-0.07-0.6-0.24-0.73-0.57c-0.18-0.46,0.21-0.58,0.48-0.65c1.51-0.41,1.98-1.45,1.97-2.92c-0.06-5.49-0.08-10.98-0.12-16.47
		c-0.01-1.47-0.48-2.68-1.89-3.4c-0.15-0.08-0.28-0.43-0.24-0.6c0.05-0.19,0.3-0.41,0.5-0.47c0.38-0.1,0.8-0.18,1.19-0.12
		c1.78,0.26,3.55,0.24,5.31-0.03c1.2-0.18,2.06,0.24,2.57,1.32c0.45,0.95,0.9,1.9,1.3,2.87c1.14,2.76,2.22,5.55,3.39,8.29
		c0.51,1.18,1.19,2.29,1.81,3.41c0.05,0.1,0.27,0.18,0.39,0.15c0.12-0.02,0.28-0.18,0.29-0.29c0.06-0.48,0.09-0.96,0.08-1.44
		c-0.04-3.15-0.1-6.3-0.16-9.45c0-0.16-0.01-0.32-0.01-0.48c0-1.41-0.48-2.52-1.91-3.04c-0.21-0.08-0.47-0.16-0.4-0.5
		c0.07-0.37,0.35-0.53,0.66-0.61c0.23-0.06,0.48-0.09,0.72-0.06c1.85,0.25,3.7,0.26,5.55-0.05c0.31-0.05,0.66-0.04,0.96,0.03
		c0.36,0.09,0.87,0.11,0.87,0.62c0,0.4-0.44,0.4-0.73,0.51c-0.88,0.31-1.22,1.03-1.36,1.85c-0.12,0.71-0.16,1.45-0.16,2.17
		c0.02,5.25,0.06,10.5,0.09,15.75c0,0.16,0,0.32,0.01,0.48c0.12,1.85,0.51,2.14,2.45,1.82
		C780.19,236.45,780.35,236.47,780.74,236.47z"/>
	<path class="st1" d="M540.7,213.55c1.04-0.07,2.01-0.14,2.97-0.19c0.48-0.03,0.99-0.07,1.41,0.21c0.18,0.12,0.31,0.34,0.4,0.55
		c0.03,0.07-0.12,0.3-0.23,0.34c-1.46,0.52-1.84,1.7-1.9,3.07c-0.08,2.02-0.15,4.03-0.2,6.05c-0.02,0.95,0.25,1.75,1.26,2.11
		c1.07,0.38,2.06,0.27,2.96-0.46c0.58-0.47,0.48-1.16,0.6-1.78c0.09-0.48,0.49-0.62,0.92-0.58c0.95,0.08,1.59,0.72,2.29,1.27
		c0.25,0.2,0.67-0.01,0.7-0.34c0.05-0.48,0.11-0.96,0.09-1.44c-0.06-1.45-0.19-2.9-0.23-4.35c-0.04-1.37-0.46-2.53-1.59-3.37
		c-0.28-0.2-0.52-0.48-0.33-0.79c0.15-0.25,0.47-0.46,0.75-0.53c0.38-0.1,0.8-0.1,1.19-0.04c1.85,0.27,3.7,0.27,5.55-0.03
		c0.56-0.09,1.14-0.13,1.66,0.15c0.2,0.11,0.39,0.29,0.49,0.49c0.13,0.26-0.07,0.47-0.3,0.56c-1.35,0.51-1.71,1.62-1.78,2.89
		c-0.1,1.77-0.26,3.55-0.22,5.32c0.08,3.63,0.27,7.26,0.44,10.89c0.03,0.72,0.17,1.44,0.29,2.16c0.11,0.66,0.42,1.22,1.02,1.56
		c0.28,0.16,0.64,0.28,0.57,0.66c-0.08,0.42-0.43,0.7-0.84,0.78c-0.47,0.09-0.96,0.15-1.44,0.1c-1.85-0.18-3.7-0.28-5.56-0.11
		c-0.56,0.05-1.14,0.04-1.6-0.38c-0.25-0.23-0.47-0.61-0.11-0.79c1.46-0.75,1.64-2.07,1.7-3.48c0.09-2.18,0.21-4.35,0.3-6.53
		c0.01-0.3,0-0.63-0.37-0.8c-0.32-0.14-0.44,0.11-0.59,0.27c-1.5,1.6-3.37,1.81-5.36,1.36c-2.39-0.55-2.33-0.33-2.22,1.84
		c0.08,1.61,0.26,3.22,0.4,4.83c0.09,1.01,0.37,1.87,1.38,2.38c0.46,0.23,0.3,0.84-0.18,1.11c-0.52,0.3-1.09,0.33-1.64,0.27
		c-2.01-0.23-4.01-0.46-6.03-0.13c-0.49,0.08-0.96-0.09-1.34-0.43c-0.28-0.25-0.4-0.64-0.07-0.79c1.2-0.54,1.58-1.51,1.66-2.72
		c0.33-5.48,0.72-10.96,0.16-16.45c-0.15-1.43-0.38-2.71-1.7-3.54c-0.2-0.12-0.35-0.33-0.28-0.6c0.09-0.35,0.37-0.56,0.68-0.61
		c0.47-0.07,0.96-0.08,1.44-0.06C538.84,213.44,539.81,213.5,540.7,213.55z"/>
	<path class="st1" d="M415.8,213.88c-2.1,1.21-2.36,1.53-2.37,3.68c-0.02,5.57,0.02,11.14,0.04,16.71c0,0.16,0,0.32,0.01,0.48
		c0.14,1.67,0.6,2.01,2.33,1.77c0.16-0.02,0.32-0.09,0.47-0.07c0.26,0.04,0.43,0.24,0.33,0.5c-0.62,1.73-2.02,2.81-3.8,2.88
		c-2.26,0.09-4.14-0.66-5.36-2.65c-0.67-1.1-1.26-2.25-1.83-3.41c-1.49-3.05-2.92-6.11-4.41-9.16c-0.42-0.87-0.92-1.7-1.42-2.53
		c-0.24-0.4-0.49-1.08-0.95-0.98c-0.75,0.15-0.42,0.93-0.42,1.43c-0.02,3.79,0.04,7.59,0,11.38c-0.02,1.66,0.51,2.81,2.2,3.29
		c0.56,0.16,0.54,0.7,0.07,1.06c-0.57,0.44-1.2,0.5-1.84,0.37c-1.6-0.35-3.2-0.37-4.82-0.17c-0.49,0.06-0.98,0.02-1.39-0.28
		c-0.18-0.13-0.31-0.36-0.39-0.57c-0.03-0.07,0.14-0.32,0.24-0.34c2.2-0.47,2.36-2.11,2.33-3.92c-0.09-5-0.17-10.01-0.2-15.01
		c-0.01-1.71-0.27-3.21-1.98-4.07c-0.34-0.17-0.14-0.84,0.28-0.94c0.38-0.09,0.8-0.21,1.18-0.16c1.86,0.25,3.7,0.23,5.55-0.04
		c1.1-0.16,1.89,0.26,2.38,1.24c0.4,0.79,0.79,1.59,1.12,2.41c1.13,2.76,2.2,5.55,3.38,8.29c0.64,1.48,1.45,2.88,2.2,4.31
		c0.06,0.11,0.28,0.18,0.41,0.17c0.1-0.01,0.25-0.19,0.25-0.29c0-1.77-0.01-3.55-0.05-5.32c-0.05-2.1-0.16-4.19-0.19-6.29
		c-0.02-1.5-0.42-2.71-2.02-3.19c-0.23-0.07-0.43-0.29-0.29-0.54c0.1-0.2,0.31-0.42,0.51-0.47c0.38-0.1,0.8-0.14,1.19-0.09
		c1.69,0.2,3.38,0.2,5.07-0.06C414.38,213.16,415.11,213.16,415.8,213.88z"/>
	<path class="st1" d="M754.02,225.4c0.03,2.33-0.48,4.66-1.49,6.91c-3.26,7.24-14.44,9.45-19.77,1.68c-1.5-2.2-2.3-4.63-2.39-7.26
		c-0.1-2.86,0.4-5.63,1.7-8.22c3.48-6.92,13.32-8.68,18.75-2.4C752.98,218.59,754.03,221.54,754.02,225.4z M748.34,224.99
		c-0.08-0.8-0.12-2.19-0.39-3.52c-0.37-1.84-1.14-3.51-2.53-4.86c-1.59-1.56-4.93-1.87-6.65,0.45c-0.48,0.64-0.94,1.33-1.26,2.06
		c-1.77,4.02-1.85,8.13-0.44,12.27c0.37,1.07,0.93,2.06,1.73,2.89c2.05,2.13,4.81,2.1,6.78-0.11c0.93-1.04,1.52-2.27,1.95-3.59
		C748.06,228.93,748.19,227.24,748.34,224.99z"/>
	<path class="st1" d="M570.52,238.47c-2.5,0-5.01-0.01-7.51,0c-0.73,0-1.46,0.06-2.12-0.33c-0.11-0.07-0.22-0.25-0.22-0.38
		c0-0.12,0.13-0.32,0.23-0.34c2.09-0.37,2.59-1.96,2.88-3.71c0.41-2.48,0.52-4.98,0.56-7.48c0.03-2.02,0.07-4.04,0.07-6.06
		c0-0.8-0.03-1.62-0.18-2.41c-0.26-1.39-0.71-2.68-2.36-3.02c-0.25-0.05-0.44-0.28-0.38-0.51c0.06-0.21,0.24-0.42,0.43-0.55
		c0.57-0.38,1.22-0.31,1.87-0.31c3.23,0.03,6.46,0.09,9.69,0.06c1.69-0.02,3.39-0.21,5.08-0.28c1.17-0.05,1.27,0.01,1.38,1.13
		c0.17,1.87,0.88,3.41,2.44,4.53c0.18,0.13,0.34,0.41,0.15,0.63c-0.14,0.16-0.37,0.28-0.58,0.32c-0.75,0.15-1.43-0.1-2.09-0.44
		c-0.95-0.48-1.76-1.12-2.52-1.86c-1.16-1.12-2.56-1.64-4.17-1.63c-1.15,0.01-2.01,0.51-2.62,1.47c-1.12,1.76-0.88,4.82,0.53,6.37
		c0.85,0.94,1.92,1.46,3.19,1.54c1.4,0.09,1.97-0.39,2.27-1.86c0.2-0.99,0.61-1.28,1.43-0.99c0.96,0.34,1.74,0.85,1.89,1.98
		c0.17,1.26-0.28,2.23-1.38,2.86c-1.1,0.63-2.3,0.69-3.53,0.58c-1.38-0.13-2.68-0.56-4-0.96c-0.86-0.26-1.21-0.01-1.28,0.87
		c-0.13,1.7,0.01,3.39,0.44,5.04c0.43,1.66,1.56,2.63,3.17,2.99c1.57,0.35,2.85-0.28,3.85-1.5c0.87-1.06,1.71-2.15,2.58-3.21
		c0.31-0.38,0.72-0.66,1.22-0.7c0.11-0.01,0.29,0.14,0.35,0.26c0.06,0.13,0.04,0.32-0.02,0.46c-0.71,1.83-0.86,3.77-1.02,5.7
		c-0.03,0.4-0.07,0.81-0.15,1.2c-0.1,0.44-0.42,0.7-0.86,0.7c-0.73,0.01-1.45-0.04-2.18-0.07c-2.18-0.09-4.36-0.18-6.54-0.27
		C570.52,238.36,570.52,238.41,570.52,238.47z"/>
	<path class="st1" d="M486.18,240.7c-3.06,0.08-5.59-1.05-7.87-2.87c-0.89-0.72-1.6-1.59-1.97-2.7c-0.58-1.72,0.49-3.75,2.22-4.21
		c1.28-0.34,1.71-0.03,1.86,1.3c0.06,0.56,0.12,1.13,0.25,1.67c0.21,0.88,0.67,1.64,1.33,2.27c1.52,1.43,5.24,2,7.11,1.11
		c0.73-0.35,1.1-0.95,1.15-1.72c0.07-1.17-0.31-2.22-0.97-3.18c-1.07-1.55-2.46-2.77-3.97-3.87c-1.11-0.81-2.24-1.6-3.32-2.44
		c-1.34-1.05-2.58-2.21-3.59-3.59c-1.98-2.69-1.78-5.49,0.55-7.88c1.79-1.83,4.05-2.58,6.53-2.83c0.41-0.04,0.82,0.03,1.12,0.35
		c1.41,1.53,3.25,1.64,5.15,1.55c0.56-0.03,1.13-0.05,1.69-0.06c0.31,0,0.48,0.42,0.3,0.72c-0.55,0.92-1.28,1.67-2.26,2.12
		c-2.32,1.07-4.64,1.34-6.97,0.03c-0.63-0.35-1.28-0.68-1.96-0.94c-0.53-0.21-1.13,0.4-1.05,0.98c0.08,0.59,0.36,1.08,0.77,1.48
		c0.75,0.73,1.5,1.47,2.34,2.1c1.22,0.93,2.5,1.77,3.78,2.63c1.76,1.17,3.34,2.54,4.77,4.09c1.41,1.53,2.27,3.33,2.59,5.38
		c0.43,2.73-0.45,4.94-2.78,6.49C490.89,240.05,488.6,240.75,486.18,240.7z"/>
	<path class="st1" d="M633.35,240.7c-3.16,0.05-5.68-1.11-7.93-2.94c-0.76-0.62-1.36-1.37-1.77-2.27c-1-2.22,0.77-4.66,2.68-4.69
		c0.83-0.01,1.19,0.19,1.28,1.02c0.03,0.32,0.02,0.65,0.06,0.97c0.3,2.64,1.54,3.99,4.18,4.63c1.28,0.31,2.55,0.4,3.83,0.05
		c1.4-0.38,1.98-1.26,1.77-2.71c-0.16-1.15-0.73-2.13-1.45-3.02c-1.12-1.4-2.47-2.54-3.94-3.55c-1.86-1.29-3.7-2.6-5.23-4.29
		c-0.65-0.71-1.29-1.46-1.79-2.28c-1.05-1.71-1.11-3.56-0.16-5.31c1.71-3.15,4.64-4.32,8.04-4.55c0.28-0.02,0.66,0.14,0.86,0.35
		c1.43,1.53,3.26,1.61,5.15,1.53c0.56-0.03,1.13-0.07,1.69-0.09c0.33-0.01,0.5,0.4,0.32,0.71c-0.58,1.01-1.38,1.77-2.45,2.25
		c-2.34,1.05-4.66,1.19-6.97-0.12c-0.56-0.32-1.13-0.63-1.72-0.88c-0.54-0.23-1.14,0.3-1.11,0.9c0.02,0.51,0.24,0.92,0.54,1.32
		c0.64,0.84,1.42,1.55,2.27,2.17c1.24,0.9,2.5,1.78,3.77,2.63c1.83,1.21,3.5,2.59,4.98,4.21c1.7,1.85,2.66,4.01,2.73,6.55
		c0.07,2.19-0.78,3.93-2.56,5.19C638.26,240,635.84,240.78,633.35,240.7z"/>
	<path class="st1" d="M680.53,219.98c-0.71,0.25-0.85,0.83-1.07,1.33c-1.7,3.92-3.4,7.85-5.09,11.77c-0.13,0.3-0.27,0.59-0.36,0.9
		c-0.44,1.41-0.16,2.09,1.13,2.77c0.28,0.15,0.62,0.21,0.87,0.39c0.19,0.13,0.23,0.39,0.07,0.64c-0.33,0.5-0.77,0.83-1.37,0.89
		c-0.4,0.04-0.81,0.04-1.21-0.01c-1.77-0.2-3.53-0.37-5.31-0.26c-0.41,0.02-0.79-0.06-1.12-0.35c-0.23-0.2-0.28-0.69-0.05-0.83
		c0.14-0.08,0.28-0.19,0.43-0.21c1.69-0.29,2.64-1.43,3.38-2.84c2.48-4.72,4.51-9.64,6.43-14.61c0.09-0.23,0.14-0.46,0.21-0.7
		c0.26-0.87,0.31-1.73-0.01-2.61c-0.31-0.85-0.99-1.21-1.74-1.55c-0.45-0.2-0.46-0.66-0.09-0.96c1.43-1.17,3.07-1.37,4.8-0.92
		c1.72,0.45,3.01,1.51,3.98,2.97c0.72,1.08,1.24,2.26,1.71,3.47c1.85,4.73,3.71,9.46,5.59,14.19c0.59,1.49,1.05,3.07,2.63,3.93
		c0.31,0.17,0.11,0.57-0.14,0.81c-0.43,0.42-0.96,0.6-1.54,0.57c-2.17-0.1-4.35-0.28-6.53-0.08c-0.29,0.03-0.63-0.12-0.9-0.26
		c-0.19-0.1-0.35-0.32-0.44-0.53c-0.14-0.31,0.15-0.41,0.35-0.51c1.49-0.72,1.65-0.95,1.2-2.31c-0.48-1.45-1.01-2.9-1.64-4.29
		c-0.61-1.33-2.21-1.78-3.48-1.11c-0.37,0.2-0.63,0.52-0.73,0.92c-0.1,0.39-0.12,0.79-0.17,1.19c-0.12,0.98-0.55,1.04-1.32,0.5
		c-1.65-1.16-1.69-3.26-0.14-4.54c0.98-0.82,2.14-1.05,3.39-1.03c0.8,0.02,1.07-0.34,0.79-1.03
		C682.25,223.75,681.67,221.73,680.53,219.98z"/>
	<path class="st1" d="M462.42,226.47c0.09-1.18-0.54-2.17-1-3.17c-0.5-1.11-0.54-2.51-1.77-3.23c-0.98,0.83-1.18,2.08-1.67,3.17
		c-1.36,3.01-2.64,6.06-3.95,9.1c-0.22,0.52-0.46,1.03-0.65,1.56c-0.42,1.19-0.35,2.38,1.23,2.9c0.23,0.08,0.46,0.15,0.66,0.27
		c0.35,0.23,0.27,0.56,0.07,0.83c-0.41,0.55-1,0.81-1.68,0.79c-0.56-0.02-1.13-0.04-1.69-0.12c-1.36-0.2-2.73-0.25-4.11-0.19
		c-0.49,0.02-0.99,0.05-1.38-0.28c-0.16-0.14-0.27-0.38-0.32-0.6c-0.02-0.1,0.15-0.27,0.27-0.36c0.12-0.09,0.28-0.16,0.44-0.19
		c1.6-0.27,2.54-1.33,3.21-2.69c1.14-2.32,2.29-4.63,3.33-6.99c1.01-2.28,1.91-4.62,2.85-6.94c0.24-0.6,0.47-1.21,0.61-1.83
		c0.42-1.82,0.01-2.68-1.71-3.76c-0.2-0.13-0.41-0.25-0.67-0.4c1.51-1.82,3.28-1.99,5.18-1.56c1.73,0.4,3.03,1.47,4.02,2.92
		c0.77,1.14,1.31,2.4,1.81,3.68c1.9,4.89,3.83,9.76,5.76,14.63c0.51,1.28,1.01,2.56,2.34,3.27c0.35,0.19,0.22,0.54-0.02,0.8
		c-0.41,0.44-0.93,0.66-1.52,0.63c-2.25-0.12-4.51-0.23-6.77-0.09c-0.29,0.02-0.62-0.16-0.87-0.34c-0.17-0.12-0.27-0.37-0.32-0.59
		c-0.02-0.08,0.15-0.27,0.28-0.32c0.22-0.1,0.48-0.1,0.7-0.19c0.61-0.25,0.88-0.77,0.75-1.36c-0.44-1.89-1.07-3.72-1.99-5.43
		c-0.5-0.92-1.47-1.19-2.76-0.94c-0.95,0.19-1.3,0.85-1.42,1.72c-0.06,0.46,0.14,1.01-0.37,1.32c-0.32,0.2-1.16-0.25-1.62-0.83
		c-0.88-1.11-0.78-2.71,0.26-3.74c0.78-0.77,1.75-1.13,2.83-1.23C461.3,226.68,461.89,226.88,462.42,226.47z"/>
	<path class="st1" d="M431.25,219.93c-0.78,0.48-0.92,1.06-1.14,1.56c-1.65,3.77-3.27,7.54-4.91,11.32
		c-0.06,0.15-0.12,0.3-0.18,0.45c-0.87,2.23-0.76,2.51,1.47,3.69c0.51,0.27,0.51,0.75,0.05,1.16c-0.45,0.4-0.95,0.62-1.54,0.57
		c-2.17-0.17-4.33-0.41-6.52-0.35c-0.27,0.01-0.58-0.24-0.81-0.45c-0.18-0.16-0.19-0.46,0-0.63c0.17-0.15,0.41-0.27,0.64-0.31
		c1.49-0.28,2.4-1.26,3.05-2.52c0.81-1.58,1.64-3.15,2.35-4.77c1.36-3.1,2.64-6.23,3.94-9.36c0.28-0.67,0.54-1.36,0.65-2.07
		c0.23-1.45-0.03-2.7-1.58-3.41c-0.82-0.37-0.78-0.89-0.03-1.36c1.89-1.19,3.82-1.11,5.75-0.12c1.17,0.6,2.08,1.51,2.78,2.63
		c0.69,1.1,1.2,2.28,1.67,3.48c1.88,4.81,3.77,9.61,5.67,14.4c0.53,1.35,1.02,2.73,2.44,3.48c0.33,0.18,0.17,0.55-0.07,0.8
		c-0.49,0.5-1.1,0.67-1.77,0.62c-2.09-0.16-4.18-0.25-6.28-0.07c-0.41,0.04-0.82-0.08-1.11-0.38c-0.15-0.16-0.25-0.39-0.29-0.61
		c-0.02-0.08,0.18-0.23,0.31-0.3c0.14-0.07,0.32-0.06,0.46-0.13c0.82-0.4,1.11-0.75,0.94-1.45c-0.46-1.88-1.06-3.72-2.01-5.42
		c-0.5-0.91-1.52-1.18-2.78-0.89c-0.93,0.21-1.29,0.88-1.38,1.76c-0.03,0.32-0.02,0.65-0.11,0.95c-0.11,0.39-0.43,0.43-0.77,0.3
		c-2.1-0.81-2.12-3.43-0.82-4.58c0.96-0.85,2.07-1.17,3.33-1.21c1.26-0.03,1.42-0.26,0.93-1.45
		C432.89,223.49,432.36,221.62,431.25,219.93z"/>
	<path class="st1" d="M506.95,213.44c1.21,0,2.42,0.01,3.63,0c2.34-0.01,4.68,0.21,7.02-0.14c0.75-0.11,1.37,0.45,1.26,1.09
		c-0.33,1.91-0.66,3.81-1.1,5.7c-0.26,1.12-0.81,2.12-2,2.56c-0.14,0.05-0.33,0.05-0.47-0.01c-0.24-0.1-0.34-0.3-0.22-0.57
		c0.56-1.16,0.57-2.34,0.16-3.53c-0.49-1.44-1.7-2.29-3.11-2.23c-0.71,0.03-1.22,0.42-1.38,1.13c-0.1,0.47-0.14,0.96-0.17,1.44
		c-0.29,5.17,0.03,10.33,0.41,15.49c0.08,1.15,0.31,2.22,1.45,2.89c0.48,0.28,0.32,0.81-0.18,1.11c-0.52,0.32-1.08,0.38-1.63,0.29
		c-1.92-0.34-3.85-0.43-5.79-0.19c-0.49,0.06-0.96-0.06-1.4-0.29c-0.41-0.21-0.55-0.77-0.17-0.91c1.18-0.44,1.5-1.38,1.62-2.48
		c0.07-0.72,0.15-1.45,0.19-2.17c0.23-4.2,0.32-8.39,0.13-12.59c-0.03-0.65-0.09-1.29-0.1-1.94c-0.03-1.64-1.34-2-2.55-1.64
		c-1.39,0.41-2.42,2.13-2.31,3.88c0.02,0.4,0.16,0.79,0.25,1.17c0.09,0.36,0.48,0.7,0.14,1.1c-0.22,0.26-1.03-0.04-1.47-0.53
		c-0.67-0.74-1.02-1.66-1.22-2.6c-0.34-1.66-0.61-3.33-0.88-5c-0.11-0.67,0.47-1.27,1.18-1.17
		C501.14,213.69,504.04,213.35,506.95,213.44z"/>
	<path class="st1" d="M702.09,237.6c1.74-1.4,1.7-1.41,1.92-3.6c0.45-4.43,0.44-8.87,0.33-13.3c-0.03-1.05-0.13-2.1-0.3-3.13
		c-0.14-0.85-0.69-1.23-1.53-1.24c-1.27-0.02-2.14,0.63-2.69,1.72c-0.65,1.3-0.73,2.63-0.07,3.96c0.12,0.25,0.06,0.51-0.16,0.6
		c-0.19,0.08-0.48,0.05-0.69-0.04c-0.62-0.27-0.98-0.8-1.29-1.39c-0.45-0.87-0.67-1.82-0.84-2.77c-0.21-1.19-0.38-2.39-0.56-3.58
		c-0.17-1.08,0.23-1.57,1.26-1.51c5.73,0.37,11.46-0.02,17.19,0.15c0.72,0.02,1.44-0.14,2.17-0.18c0.71-0.03,1.2,0.55,1.08,1.26
		c-0.27,1.59-0.56,3.17-0.84,4.76c-0.14,0.8-0.44,1.55-0.88,2.24c-0.31,0.49-0.71,0.89-1.27,1.08c-0.21,0.07-0.5,0.07-0.69-0.02
		c-0.26-0.13-0.17-0.42-0.06-0.63c0.7-1.33,0.55-2.65-0.09-3.95c-0.46-0.92-1.19-1.52-2.22-1.69c-1.33-0.22-2.11,0.38-2.13,1.61
		c-0.03,1.45-0.15,2.9-0.13,4.36c0.04,4.12,0.07,8.23,0.53,12.33c0.12,1.09,0.37,2.05,1.44,2.62c0.37,0.2,0.29,0.7-0.03,0.96
		c-0.47,0.38-1.02,0.52-1.59,0.44c-2.08-0.32-4.17-0.43-6.27-0.21C703,238.52,702.4,238.28,702.09,237.6z"/>
	<path class="st1" d="M597.54,224.43c0.18,3.88,0.17,6.79,0.5,9.68c0.15,1.31,0.27,2.57,1.64,3.28c0.39,0.2,0.05,0.58-0.15,0.8
		c-0.35,0.37-0.83,0.55-1.32,0.48c-2.25-0.29-4.49-0.45-6.76-0.22c-0.23,0.02-0.47-0.08-0.7-0.16c-0.15-0.05-0.28-0.15-0.4-0.26
		c-0.27-0.25-0.39-0.61-0.01-0.77c1.25-0.51,1.51-1.52,1.63-2.72c0.46-4.83,0.5-9.67,0.34-14.52c-0.03-0.88-0.17-1.77-0.32-2.64
		c-0.11-0.63-0.59-0.94-1.2-1.03c-1.24-0.18-2.36,0.44-2.96,1.65c-0.64,1.3-0.76,2.62-0.11,3.96c0.11,0.23,0.11,0.52-0.09,0.63
		c-0.18,0.1-0.49,0.08-0.69-0.01c-0.62-0.26-1.06-0.75-1.3-1.37c-0.32-0.82-0.64-1.66-0.82-2.52c-0.28-1.34-0.46-2.7-0.66-4.06
		c-0.13-0.88,0.34-1.38,1.25-1.32c5.73,0.37,11.46-0.02,17.19,0.16c0.72,0.02,1.44-0.14,2.17-0.18c0.72-0.04,1.25,0.52,1.13,1.22
		c-0.26,1.59-0.56,3.17-0.84,4.76c-0.14,0.81-0.43,1.55-0.87,2.24c-0.31,0.49-0.7,0.9-1.25,1.1c-0.21,0.08-0.5,0.1-0.7,0.02
		c-0.25-0.1-0.23-0.37-0.13-0.61c0.13-0.3,0.31-0.58,0.38-0.89c0.26-1.24,0.05-2.41-0.64-3.48c-0.51-0.79-1.25-1.24-2.19-1.35
		c-1.17-0.14-1.87,0.37-1.93,1.59C597.61,220.4,597.58,222.9,597.54,224.43z"/>
	<path class="st1" d="M657.67,224.35c0.18,4.14,0.17,7.21,0.55,10.26c0.13,1.08,0.35,2.05,1.42,2.64c0.38,0.21,0.32,0.7,0.01,0.96
		c-0.4,0.32-0.85,0.53-1.34,0.46c-2.25-0.31-4.49-0.44-6.76-0.23c-0.29,0.03-0.61-0.16-0.91-0.28c-0.42-0.17-0.54-0.76-0.16-0.91
		c1.25-0.52,1.49-1.53,1.61-2.73c0.46-4.75,0.5-9.51,0.35-14.27c-0.03-0.96-0.17-1.93-0.33-2.88c-0.11-0.63-0.61-0.93-1.22-1.01
		c-1.23-0.17-2.36,0.46-2.95,1.67c-0.64,1.3-0.75,2.63-0.09,3.96c0.12,0.24,0.09,0.52-0.12,0.62c-0.19,0.09-0.48,0.06-0.69-0.02
		c-0.54-0.22-0.9-0.66-1.19-1.16c-0.46-0.78-0.7-1.64-0.87-2.51c-0.27-1.43-0.49-2.86-0.7-4.3c-0.13-0.87,0.36-1.36,1.27-1.3
		c5.73,0.37,11.46-0.02,17.19,0.15c0.72,0.02,1.44-0.14,2.17-0.18c0.72-0.04,1.23,0.53,1.11,1.24c-0.25,1.51-0.54,3.01-0.79,4.52
		c-0.14,0.81-0.39,1.57-0.79,2.27c-0.33,0.57-0.75,1.07-1.39,1.29c-0.21,0.08-0.5,0.09-0.7,0c-0.25-0.11-0.19-0.39-0.1-0.62
		c0.12-0.3,0.31-0.58,0.37-0.89c0.25-1.15,0.06-2.26-0.53-3.27c-0.46-0.81-1.16-1.33-2.09-1.5c-1.2-0.21-2.13,0.25-2.16,1.57
		C657.78,220.42,657.71,222.92,657.67,224.35z"/>
	<path class="st1" d="M729.06,237.59c-0.33,0.8-1.05,1.07-1.77,0.96c-2.17-0.32-4.34-0.32-6.51-0.08c-0.49,0.06-0.96-0.1-1.31-0.49
		c-0.23-0.26-0.38-0.69-0.03-0.8c1.59-0.51,1.65-1.85,1.77-3.13c0.36-4.02,0.44-8.05,0.36-12.08c-0.02-1.13-0.11-2.26-0.14-3.38
		c-0.04-1.59-0.37-3.03-1.77-4.04c-0.43-0.31-0.21-0.9,0.31-1.12c0.46-0.19,0.93-0.25,1.42-0.18c1.93,0.29,3.86,0.28,5.79,0.02
		c0.57-0.08,1.12-0.01,1.63,0.3c0.26,0.15,0.34,0.69,0.07,0.79c-1.64,0.65-1.89,2.07-1.98,3.56c-0.24,3.95-0.17,7.9,0.07,11.85
		c0.08,1.29,0.18,2.57,0.28,3.86C727.41,235.89,727.47,236.01,729.06,237.59z"/>
	<path class="st2" d="M748.34,224.99c-0.16,2.26-0.28,3.95-0.81,5.57c-0.43,1.32-1.02,2.55-1.95,3.59
		c-1.96,2.21-4.72,2.25-6.78,0.11c-0.8-0.83-1.36-1.82-1.73-2.89c-1.41-4.14-1.33-8.24,0.44-12.27c0.32-0.73,0.78-1.41,1.26-2.06
		c1.72-2.32,5.06-2.01,6.65-0.45c1.39,1.36,2.15,3.02,2.53,4.86C748.22,222.8,748.26,224.18,748.34,224.99z"/>
</g>
</svg>
