<?xml version="1.0" encoding="UTF-8" standalone="no"?>
<!-- Created with Inkscape (http://www.inkscape.org/) -->

<svg
   xmlns:dc="http://purl.org/dc/elements/1.1/"
   xmlns:cc="http://creativecommons.org/ns#"
   xmlns:rdf="http://www.w3.org/1999/02/22-rdf-syntax-ns#"
   xmlns:svg="http://www.w3.org/2000/svg"
   xmlns="http://www.w3.org/2000/svg"
   xmlns:sodipodi="http://sodipodi.sourceforge.net/DTD/sodipodi-0.dtd"
   xmlns:inkscape="http://www.inkscape.org/namespaces/inkscape"
   width="923.80878mm"
   height="1128.4141mm"
   viewBox="0 0 923.80877 1128.4141"
   version="1.1"
   id="svg2002"
   inkscape:version="0.92.3 (2405546, 2018-03-11)"
   sodipodi:docname="logo msall.svg">
  <defs
     id="defs1996" />
  <sodipodi:namedview
     id="base"
     pagecolor="#ffffff"
     bordercolor="#666666"
     borderopacity="1.0"
     inkscape:pageopacity="0.0"
     inkscape:pageshadow="2"
     inkscape:zoom="0.12374369"
     inkscape:cx="261.94623"
     inkscape:cy="1085.5449"
     inkscape:document-units="mm"
     inkscape:current-layer="layer1"
     showgrid="false"
     fit-margin-top="0"
     fit-margin-left="0"
     fit-margin-right="0"
     fit-margin-bottom="0"
     inkscape:window-width="1866"
     inkscape:window-height="1016"
     inkscape:window-x="54"
     inkscape:window-y="27"
     inkscape:window-maximized="1" />
  <metadata
     id="metadata1999">
    <rdf:RDF>
      <cc:Work
         rdf:about="">
        <dc:format>image/svg+xml</dc:format>
        <dc:type
           rdf:resource="http://purl.org/dc/dcmitype/StillImage" />
        <dc:title></dc:title>
      </cc:Work>
    </rdf:RDF>
  </metadata>
  <g
     inkscape:label="Layer 1"
     inkscape:groupmode="layer"
     id="layer1"
     transform="translate(417.99198,530.53575)">
    <path
       style="fill:#3c00a0;fill-opacity:1;stroke:#ffffff;stroke-width:11.51147366;stroke-miterlimit:4;stroke-dasharray:none;stroke-opacity:1"
       d="m 445.3805,-524.32449 c -4.31337,0.10174 -9.9056,3.46625 -15.62618,9.58918 -7.31774,7.833 -15.17306,23.58867 -23.66111,47.46006 -4.3629,12.26856 -13.70383,31.8775 -23.90664,50.18734 -1.82501,3.27479 -7.90612,14.46226 -9.31936,17.14358 -5.44986,10.33689 -7.23096,13.77746 -9.07407,17.54821 l -2.17435,4.44944 -1.84568,0.53067 c -2.22993,0.64291 -6.55666,2.86731 -8.87227,4.55958 l -1.69064,1.23431 -7.58137,0.47217 c -11.06183,0.68862 -13.35159,1.3339 -20.53624,5.78951 -7.15108,4.43458 -14.98571,8.30275 -20.77924,10.25686 -1.49754,0.5053 -1.82067,0.51116 -3.23315,0.0633 -1.46905,-0.46619 -1.69424,-0.45572 -3.4983,0.17983 -3.42712,1.20752 -8.47145,5.36867 -12.66269,10.44579 -2.98529,3.61618 -5.0161,7.97276 -8.45595,18.13732 -1.28424,3.79473 -3.38127,9.2104 -4.66085,12.03537 -4.56996,10.08961 -7.03482,17.24011 -8.348,24.22572 -0.40071,2.13179 -1.17843,8.93093 -1.72903,15.10887 -0.55054,6.17785 -1.24759,12.99715 -1.5491,15.1538 -0.3016,2.15651 -0.68371,4.88548 -0.84985,6.06372 l -0.30353,2.14267 -0.17991,0.8971 -0.31922,0.93305 -1.05225,3.88282 c -0.10713,0.51697 -0.66493,2.4072 -1.24106,4.19991 -0.57618,1.79269 -2.69827,8.43026 -4.71479,14.75132 -2.01658,6.32108 -5.20922,16.20279 -7.09578,21.95954 -1.88638,5.7567 -3.81447,11.70215 -4.28302,13.21118 -0.46855,1.50905 -2.11297,6.60995 -3.65573,11.33612 -1.54289,4.7262 -2.79836,8.78113 -2.79026,9.00904 0.0111,0.22781 -0.13071,0.68387 -0.30806,1.01404 -0.50059,0.93253 -5.84705,17.97516 -9.33278,29.75221 -2.94926,9.96447 -5.28661,19.24757 -5.2342,20.79035 0.10827,3.17172 4.99872,-8.7698 12.22431,-29.85116 3.52112,-10.27359 7.4672,-21.96698 8.16813,-24.20332 0.38439,-1.22621 3.11897,-9.48933 6.0773,-18.36211 8.20944,-24.62244 11.30445,-35.27081 15.86415,-54.58735 l 1.07259,-4.54165 1.34435,-6.97886 c 0.1868,-0.15989 2.66068,-13.70132 3.6199,-19.81232 2.7011,-17.20724 3.27104,-19.20503 11.09102,-38.8939 0.71389,-1.79742 2.19456,-5.7948 3.28935,-8.88317 3.47538,-9.80361 5.6275,-13.6819 10.13777,-18.26775 4.38915,-4.4628 9.35474,-7.41949 15.04805,-8.95734 2.02919,-0.54811 4.97543,-1.34734 6.54717,-1.77618 4.15657,-1.13391 6.63289,-2.39342 11.84219,-6.02102 9.12339,-6.35368 9.92627,-6.62901 19.85957,-6.82598 7.31346,-0.14507 7.41035,-0.15683 9.39345,-1.09497 1.10226,-0.52128 3.5497,-1.94085 5.43888,-3.15444 1.88921,-1.21347 3.49499,-2.20773 3.56778,-2.21002 0.0724,0 -0.15248,0.50121 -0.50094,1.11966 -0.67109,1.18947 -0.77145,2.20187 -0.28816,2.90926 0.21106,0.3091 0.541,0.0439 1.1828,-0.95321 0.5117,-0.79467 0.74131,-1.51098 0.69262,-1.76726 0.62672,-0.72894 2.30185,-4.63966 3.29123,-5.71521 0.39542,0.22605 2.26007,-2.75291 7.88009,-12.58166 2.97034,-5.19333 3.36791,-6.07022 2.96817,-6.54722 -0.40013,-0.47712 -0.39065,-0.49857 0.0737,-0.16183 0.43719,0.31673 0.61981,0.24733 0.9825,-0.37322 4.157,-7.10885 19.0445,-33.89558 22.66783,-40.78483 1.99774,-3.79861 5.09516,-10.97774 6.95161,-16.11379 0.30756,-0.85035 1.55713,-4.3287 2.77911,-7.72974 1.222,-3.40113 2.69166,-7.42228 3.2667,-8.93489 0.57502,-1.51266 1.77721,-4.68299 2.66883,-7.04636 3.68191,-9.75711 10.39706,-23.3163 13.22914,-26.70795 0.66204,-0.79264 2.3613,-2.79404 3.77497,-4.44944 2.68692,-3.14544 4.58732,-5.7634 5.48153,-7.54764 1.34776,-2.68903 5.71799,-4.1238 8.53024,-2.80141 4.13163,1.94296 7.98455,8.39618 10.9019,18.26324 1.91894,6.49 2.4552,9.59233 2.88247,16.62863 0.53412,8.79353 -0.37258,12.84928 -1.40504,15.4191 -1.77205,2.85827 -1.13242,1.84169 -3.79995,7.38131 l -0.33252,0.97127 c -0.41178,1.2357 -0.27739,1.24496 -0.82529,2.90036 -0.35148,1.34578 -0.15034,0.7596 -0.35063,1.34673 -0.14859,0.43508 -2.20276,5.49811 -4.19751,11.47325 -3.5247,10.55581 -3.75298,11.10659 -8.08961,19.42558 -9.98487,19.15446 -11.42611,22.36929 -17.25136,38.52071 -7.02011,19.46395 -8.87269,24.15439 -13.89248,35.17745 -5.91571,12.99056 -8.2184,19.13986 -9.55325,25.51417 -0.97303,4.64668 -0.74086,11.85455 0.51043,15.90237 0.88387,2.85926 1.34303,3.59345 4.88754,7.80849 1.05487,1.25425 2.77953,3.86722 3.83352,5.80746 4.03384,7.42333 4.93581,8.68943 8.64056,12.12307 2.5831,2.39419 4.16433,3.56463 5.88597,4.35955 2.17953,1.00624 2.63911,1.08872 6.2099,1.10393 4.3724,0.0185 5.66116,-0.21675 5.33982,-0.97583 -0.1779,-0.42031 -0.0599,-0.453 0.70596,-0.19107 1.48088,0.50611 4.80529,0.23656 6.93399,-0.56211 3.71335,-1.39317 6.16725,-3.2872 12.41978,-9.58462 4.93363,-4.96913 8.56777,-8.00089 10.9088,-9.10357 0.90755,-0.42725 2.93717,-1.08434 4.51022,-1.45916 2.41599,-0.57555 3.25938,-0.63387 5.41864,-0.37995 6.41794,0.7546 11.9012,5.2224 16.02375,13.05608 0.768,1.45933 1.51188,2.54155 1.65272,2.40569 0.14041,-0.13572 0.15851,-0.0615 0.0388,0.16192 -0.11845,0.22372 0.20587,1.55921 0.71933,2.96784 0.51342,1.40859 1.22327,3.85499 1.57604,5.43872 l 0.64095,2.8801 -1.09064,1.21631 c -1.90299,2.12305 -8.06077,7.82132 -16.69396,15.44604 -13.75423,12.14768 -16.96149,15.34946 -24.44591,24.39892 -0.55608,0.6722 -1.66651,2.08494 -2.46896,3.13867 -6.96844,9.15631 -16.63542,19.75041 -22.24919,24.38776 -9.89181,8.17052 -20.25787,14.24993 -31.44102,18.4386 -6.29131,2.35649 -10.78473,3.55468 -18.44278,4.9171 -6.75304,1.20134 -8.81152,1.70786 -9.89719,2.43493 -1.13972,0.76314 -0.90196,1.08101 1.24333,1.65481 1.08286,0.28956 2.0279,0.56489 2.09982,0.61151 0.0719,0.0466 -0.55005,0.89648 -1.38266,1.88854 -0.83304,0.99216 -1.29715,2.02239 -1.47032,2.33156 -0.27223,0.44958 -1.30728,1.23325 -1.52866,2.1899 -0.94591,1.58568 -2.59088,5.5227 -3.5906,8.65384 l -1.17848,3.68731 h 0.0345 c -0.29805,0.81391 -0.39928,2.06375 -0.6069,3.23982 l -1.00489,4.36621 c -0.2718,1.39658 0,1.8e-4 -0.73528,3.58838 -0.84423,4.76086 -2.34061,10.3064 -4.44518,16.47585 -3.21929,9.43821 -5.49143,17.6141 -6.48859,23.34662 0,0 7.10282,9.20027 12.23804,-26.88553 2.92685,-9.91389 5.58834,-19.87505 5.55561,-20.97704 0,-0.0799 0.0702,-0.37502 0.11674,-0.625 l 0.37991,-1.74469 c 0.27694,-1.27397 0.0556,-1.40324 0.19124,-2.00549 2.04534,-6.30745 0.74129,-3.33139 2.69531,-7.92771 0.27051,-0.75724 0.36785,-1.05719 0.24294,-1.13985 0.26663,-0.23985 1.13758,-2.1395 1.36025,-2.66875 l 1.86637,-2.73851 c 1.02646,-1.5063 2.05849,-2.75791 2.29325,-2.78122 0.23432,-0.0238 1.28101,-0.0483 2.32466,-0.0562 2.13127,-0.12846 2.64861,-0.17468 7.02614,-0.74861 9.74365,-1.35329 21.26409,-6.34543 31.6452,-13.71267 12.16052,-8.62976 22.45508,-18.98155 39.81109,-40.02712 5.48711,-6.65342 8.48246,-9.49963 18.35102,-17.4425 12.07217,-9.71687 16.6901,-14.26662 19.59195,-19.30647 0.7357,-1.2776 1.56832,-2.33626 1.85258,-2.35401 0.91358,-0.0553 1.9702,-1.09962 2.25492,-2.22814 -0.67842,-6.9394 -0.1736,-8.78337 -3.56778,-15.89794 -2.6094,-5.0082 -9.23195,-10.88234 -15.0572,-13.3551 -3.49282,-1.48267 -5.14942,-1.8211 -8.52336,-1.74025 -3.53246,0.0843 -5.73911,0.67561 -9.38443,2.51588 -1.54289,0.77876 -2.89497,1.33402 -3.00395,1.23211 -0.1094,-0.10182 -0.46821,-5.01612 -0.80028,-10.92015 -0.41437,-7.36496 -0.78783,-11.47878 -1.1897,-13.10781 -1.65876,-6.72963 -5.26487,-11.32832 -12.34528,-15.74736 -3.07371,-1.91827 -9.05533,-4.63974 -13.04954,-5.93552 -5.67666,-1.84169 -14.80693,-3.64362 -19.9245,-3.93243 -1.43692,-0.0808 -2.61498,-0.25444 -2.61927,-0.38672 0,-0.13223 2.04899,-4.84455 4.56407,-10.47046 2.51462,-5.62595 4.57094,-10.29826 4.56834,-10.38281 0,-0.0843 0.79127,-1.97764 1.76732,-4.20669 1.73844,-3.97094 7.63865,-18.54889 7.62873,-18.84998 0,-0.0844 0.70209,-1.80022 1.56702,-3.8132 0.86492,-2.01288 1.56959,-3.72012 1.56702,-3.79516 -0.013,-0.24582 6.21892,-12.62969 8.48503,-16.87372 1.21811,-2.28113 2.77394,-5.23542 3.45794,-6.56513 0.684,-1.32981 1.64367,-3.1939 2.1317,-4.14372 1.82329,-3.54924 5.04476,-10.64809 7.62831,-16.81082 2.16315,-5.18041 5.34371,-13.10313 6.8013,-19.40089 0.6418,-1.23896 0.90887,-2.80335 1.36027,-4.22233 0.62757,-3.2342 0.98637,-3.8882 0.91961,-6.25262 -0.0474,-2.31021 0.5397,-1.10147 0.171,-7.92991 -1.59287,-12.10045 -4.33062,-21.51903 -9.01829,-31.03145 -2.0352,-4.13036 -3.04485,-5.50983 -4.9035,-6.6978 -1.11128,-0.71024 -2.40691,-1.03893 -3.84471,-1.00503 z m -36.43455,175.59716 3.76164,1.20067 c 2.0688,0.65955 7.26604,1.93758 11.54755,2.84191 4.28149,0.90415 9.07383,2.04004 10.65249,2.52483 1.57822,0.48479 3.0397,0.77735 3.24644,0.64981 0.20675,-0.12767 0.26406,-0.0975 0.12621,0.065 -0.13827,0.16273 0.85243,0.76128 2.20104,1.33105 6.71947,2.8391 11.7961,8.00059 13.34804,13.57094 0.60992,2.18852 0.80333,6.28317 0.65212,13.72152 -0.12877,6.34739 0.32393,9.36865 1.82375,12.18147 l 0.9937,1.86388 -0.82312,0.71054 c -0.45316,0.39085 -2.27947,2.15949 -4.05839,3.92782 -3.72026,3.69911 -7.58696,6.46417 -13.37734,9.56886 -5.37038,2.8795 -6.03287,2.95225 -10.1804,1.13317 -5.85671,-2.5686 -9.68205,-5.43634 -13.43374,-10.07255 -2.06796,-2.55508 -5.54657,-7.60587 -5.56252,-8.07821 0,-0.16588 0.4467,-0.50939 1.00277,-0.76223 0.86061,-0.39115 1.10268,-0.38094 1.63894,0.072 0.34673,0.29286 0.79901,0.52627 1.00491,0.51942 0.44924,-0.0151 0.84381,-1.24521 0.54443,-1.69528 -0.29461,-0.44219 2.7145,-1.39537 6.19612,-1.96282 3.66985,-0.59807 6.86247,-0.26102 9.92629,1.04776 2.60422,1.11229 5.43801,1.53277 5.40528,0.80268 -0.0431,-0.94111 -1.66565,-3.12123 -3.05779,-4.10994 -1.98826,-1.41234 -4.71566,-1.83782 -9.26338,-1.44352 -1.99689,0.17328 -4.74239,0.64709 -6.09962,1.05228 l -2.46639,0.73518 0.171,-1.03424 c 0.24164,-1.46669 1.95553,-5.72937 3.68966,-9.17318 1.3017,-2.58518 4.05496,-6.47928 8.42862,-11.9229 2.35699,-2.93322 2.94495,-4.04098 2.44184,-4.60688 -1.04367,-1.17371 -4.05923,0.95994 -7.79026,5.51065 -3.04702,3.71603 -3.68061,4.69449 -6.54931,10.12204 -2.42892,4.59456 -3.80211,8.7185 -3.71898,11.16972 0.0259,0.82925 -0.081,1.51184 -0.24077,1.51761 -0.16023,0.009 -0.85114,0.4182 -1.53559,0.91734 -0.68397,0.49909 -1.2659,0.86207 -1.29476,0.80715 -0.40532,-0.7677 -4.4172,-6.0591 -5.33983,-7.04406 -1.50368,-1.60462 -1.8625,-3.37106 -1.74016,-8.57959 0.0952,-4.09615 0.54748,-7.30874 1.68373,-11.94999 0.81322,-3.32062 3.3787,-10.80842 5.09259,-14.86814 l 0.95319,-2.26187 z"
       id="path28452-82-5-7-4-0-9"
       inkscape:connector-curvature="0" />
    <path
       style="display:inline;fill:#ffffff;fill-opacity:1;stroke:none;stroke-width:0.43073452;stroke-miterlimit:4;stroke-dasharray:none;stroke-opacity:1"
       d="m -127.47078,594.11039 c -26.84527,-4.2535 -32.45856,-7.43085 -32.45787,-18.37664 0,-9.24248 6.01629,-18.97652 29.51703,-47.75647 40.789144,-49.95267 93.556875,-116.64601 92.849355,-117.35316 -0.43484,-0.43466 -9.01856,-5.95627 -19.07487,-12.27 -10.057,-6.31314 -24.671868,-16.70039 -32.478294,-23.08161 -25.155521,-20.56308 -67.750521,-70.5476 -82.727341,-97.07931 -3.01867,-5.3476 -5.98341,-9.7237 -6.58817,-9.72492 -0.6047,0 -4.54033,5.98059 -8.74606,13.29296 -20.26671,35.23732 -100.77134,124.51893 -138.12998,153.1891 -21.95673,16.85102 -32.52794,19.76964 -38.51357,10.63405 -3.17058,-4.83865 -2.95712,-6.43948 4.16564,-31.22348 21.80227,-75.86504 28.15277,-185.89916 14.62349,-253.38286 -1.5802,-7.88244 -4.45225,-23.54493 -6.3822,-34.80567 -5.63466,-32.876568 -23.83793,-92.451157 -46.83786,-153.286961 -2.92452,-7.735385 -8.54177,-19.372395 -12.48286,-25.860217 -8.33032,-13.7132 -9.61387,-25.16121 -3.20544,-28.59098 11.71231,-6.26835 22.516,-0.32017 77.93543,42.903087 49.37501,38.50960092 59.58153,46.9858979 77.50336,64.365981 23.02969,22.333558 29.90891,31.05441 59.06477,74.87666 12.36165,18.58012 23.9068,34.96548 25.65618,36.41198 2.74283,2.26777 11.76612,-6.32116 65.57352,-62.417056 57.370165,-59.810173 62.185105,-65.3785151 59.808215,-69.1698621 -1.42163,-2.268008 -3.19828,-9.651444 -3.94808,-16.4078179 -4.33192,-39.03898 -25.188178,-86.646152 -46.707032,-106.616154 -14.075933,-13.06267 -45.203613,-35.00049 -60.781673,-42.83703 -23.3975,-11.77054 -29.41745,-20.63945 -21.03359,-30.98958 5.08426,-6.27658 9.18292,-7.89027 33.20464,-13.07145 38.17345,-8.23362 85.607525,-3.15611 127.918105,13.6933 59.00552,23.49791 111.95285,58.70167 125.165695,83.22032 5.56977,10.335872 2.03539,9.884462 -9.516615,-1.21571 -6.22959,-5.98551 -19.19457,-16.1186 -28.81167,-22.51742 -20.61456,-13.71642 -66.06154,-37.62147 -87.79722,-46.18228 -18.17052,-7.15594 -29.15806,-10.18915 -18.42648,-5.08674 11.63222,5.53087 2.68698,5.48484 -19.70643,-0.10139 -27.335507,-6.8195 -59.735825,-8.50297 -79.232735,-4.11731 -8.08021,1.81766 -15.46873,3.7634 -16.41889,4.32413 -0.95037,0.56079 5.03834,4.68622 13.30798,9.16763 31.83038,17.24941 53.278478,36.55192 71.177434,64.05531 20.602941,31.658642 29.069371,53.069333 37.042701,93.677345 l 2.31362,11.7818949 22.88617,-20.6374989 c 12.58713,-11.350308 33.02039,-27.366834 45.40729,-35.592147 32.0993,-21.315202 73.039785,-42.945454 56.30325,-29.746652 -4.28366,3.37804 -2.94751,3.15936 8.189595,-1.3398 30.50903,-12.325272 77.08789,-27.546382 95.72226,-31.280502 83.72787,-16.77754 155.28711,-7.04207 233.99112,31.834332 26.36914,13.02533 34.72236,19.84554 34.72236,28.35177 0,5.183714 -5.88338,11.301833 -10.86872,11.301833 -1.85904,0 -10.53877,1.31736 -19.28873,2.927403 -8.74993,1.610175 -22.81902,3.991874 -31.26444,5.292778 -29.68405,4.572555 -72.56002,14.906466 -86.87776,20.939495 -7.9574,3.352853 -16.5368,6.373971 -19.06548,6.713432 -7.54078,1.012587 -24.83688,12.6952109 -46.46771,31.386383 l -20.35416,17.588362 6.48984,1.327335 c 3.56946,0.730012 19.63904,9.602629 35.70996,19.716592 30.90421,19.449415 40.97264,25.141184 44.4732,25.141105 3.96881,7.9e-5 2.20107,-18.46154 -4.17769,-43.62659 -3.4799,-13.728515 -6.46186,-30.3500111 -6.62641,-36.93691908 -0.25715,-10.29607492 0.37516,-12.52182892 4.50678,-15.86735292 9.5821,-7.759224 20.52762,-3.535892 50.41802,19.4533039 11.26049,8.6604211 27.33895,20.4633251 35.72966,26.2286221 12.6933,8.721646 14.58724,10.716631 11.27447,11.878893 -3.51996,1.234572 -3.19132,1.805543 2.8312,4.919927 3.74783,1.936988 9.63684,3.603281 13.08788,3.701388 13.39887,0.380603 15.9208,-13.375508 10.89629,-59.4376141 -3.3649,-30.8526919 -3.32053,-38.0700749 0.21582,-34.5353739 2.42027,2.420408 8.81843,38.7935249 10.17952,57.8739 1.62087,22.714955 0.12795,31.5849 -6.67636,39.671572 -4.3121,5.124608 -6.74016,6.202442 -13.97519,6.2026 -11.41058,0 -32.33396,-10.514832 -51.27765,-25.768194 C 358.28793,20.03229 339.50402,6.4996459 328.57228,0.08061592 l -7.99356,-4.69262302 1.45587,11.137106 c 0.80031,6.1254481 3.62463,19.8896551 6.27581,30.5872361 6.99786,28.237709 7.89204,35.812651 5.19221,43.992165 -6.22081,18.848093 -22.75973,15.168377 -63.40327,-14.105996 -25.83998,-18.612088 -32.54738,-22.664843 -34.4174,-20.794821 -1.26251,1.262856 1.80232,14.65371 10.80625,47.212065 8.15993,29.504982 6.24101,41.971482 -6.45967,41.971382 -5.68791,10e-5 -24.88251,-7.28708 -46.72333,-17.73846 -7.85074,-3.75661 -15.91223,-6.83022 -17.91459,-6.8303 -5.84076,0 -4.56007,11.23868 4.54863,39.92422 12.02095,37.85616 11.34264,46.07169 -3.80166,46.05682 -7.23741,0 -14.13613,-2.32839 -28.90388,-9.72516 -10.66848,-5.34392 -19.72807,-10.86816 -20.1331,-12.27619 -0.86495,-3.00929 0.53465,-2.60715 23.15144,6.65467 30.1934,12.36493 32.47594,11.62698 26.57152,-8.59132 -1.90828,-6.53497 -3.73192,-13.72449 -4.05175,-15.97662 -0.31977,-2.25206 -2.13672,-8.24074 -4.03725,-13.30796 -1.90045,-5.06717 -4.60705,-14.708 -6.01496,-21.42371 l -2.55973,-12.21068 -12.31776,18.35277 c -14.5116,21.62104 -27.29296,44.62544 -33.51636,60.32421 -9.2619,23.36329 -18.543725,58.64868 -19.739395,75.04236 -1.08609,14.89004 -0.72859,17.48333 3.31313,24.02295 18.979845,30.71014 154.653255,91.0902 234.570645,104.39361 34.61298,5.76167 107.02827,14.72655 108.29118,13.40604 0.45572,-0.47548 -1.34302,-16.98834 -3.99677,-36.69456 -6.76124,-50.21522 -13.5337,-75.75352 -20.08859,-75.75352 -3.47559,0 -14.50586,15.31456 -35.9728,49.94492 -19.77954,31.90873 -25.26626,38.09291 -33.79608,38.09291 -11.1991,0 -13.29031,-4.52964 -18.60227,-40.29443 -2.64557,-17.81336 -5.89934,-35.45213 -7.23075,-39.19709 l -2.4207,-6.80927 -7.11533,6.80927 c -3.91321,3.74496 -15.79589,17.58352 -26.4056,30.75188 -10.6099,13.1685 -21.69843,25.83673 -24.64112,28.15157 -7.31804,5.75648 -14.17876,5.37299 -18.37217,-1.02778 -2.9982,-4.57554 -3.25924,-9.22425 -2.06838,-36.84066 1.52157,-35.2873 0.37513,-48.00788 -4.32742,-48.00788 -1.68693,-2.4e-4 -14.35182,11.05614 -28.14431,24.56871 -25.57163,25.05321 -31.53817,28.49202 -35.75709,20.60823 -2.73669,-5.11267 -2.69115,-23.75103 0.12766,-52.62123 4.48141,-45.89717 -4.59504,-48.73778 -43.91694,-13.74375 -24.27478,21.60285 -27.6465,24.21305 -29.231355,22.62856 -2.14564,-2.14608 33.811765,-37.77297 47.077155,-46.64382 26.20169,-17.52211 38.80147,-5.9705 34.12911,31.29148 -2.39609,19.11006 -2.84208,52.81216 -0.69869,52.81216 0.77981,-2.7e-4 12.07466,-11.12462 25.10015,-24.72158 23.27564,-24.29735 23.82245,-24.71016 31.8525,-24.05695 7.00609,0.57007 8.68048,1.68606 11.75001,7.83071 3.01403,6.03303 3.57572,12.99194 3.55164,44.01929 8e-5,24.54907 -0.69072,35.82746 -2.01269,33.78144 -1.09167,-1.68878 -1.98487,-2.14942 -1.98411,-1.02494 0,1.12617 0.7329,3.20169 1.62828,4.61187 2.14704,3.38169 7.1475,-2.07484 30.9981,-33.82515 20.28066,-26.99769 29.0947,-35.27915 37.54787,-35.27939 11.58372,0 14.46419,7.28229 21.78323,55.07612 2.11317,13.79958 4.4482,25.6957 5.18863,26.43587 1.92882,1.92892 6.58636,-4.54808 31.03767,-43.16288 24.34896,-38.45375 30.07817,-44.59243 41.33241,-44.28723 6.55405,0.17889 6.86289,0.39116 2.40176,1.66227 l -5.1184,1.45847 5.13909,1.32442 c 2.82649,0.7284 6.75952,4.06612 8.73873,7.41823 5.33895,9.03785 11.1655,39.7801 14.98053,79.04162 1.93098,19.86984 4.37194,35.45115 5.6887,36.30986 1.26852,0.82709 6.28226,1.51852 11.14224,1.53575 13.08616,0.0501 16.75643,2.74209 16.75643,12.30788 0,9.30662 -4.22982,14.22355 -18.42638,21.42072 -10.40397,5.27405 -51.53869,15.64516 -65.51686,16.51805 -5.06717,0.3162 -22.57222,2.91534 -38.90029,5.77538 -49.45277,8.66163 -77.53554,10.30695 -129.4462,7.58369 -40.66014,-2.13272 -79.2288,-5.9088 -97.32693,-9.52836 l -6.29436,-1.2588 2.06351,8.92357 c 2.96635,12.83171 0.98031,32.06943 -4.40015,42.6158 -2.52563,4.95189 -9.31418,13.99477 -15.08445,20.0959 -11.193415,11.83553 -38.409725,29.507 -39.661525,25.75198 -0.67045,-2.0107 -35.03549,11.26191 -40.50379,15.64343 -4.32557,3.46568 -29.52739,13.12096 -48.89013,18.73028 -18.45487,5.34609 -22.84788,5.83555 -50.160795,5.59192 -16.688646,-0.14912 -39.5801,-1.79491 -51.7322,-3.72018 z m 69.628545,-19.50101 c 43.91914,-8.94421 54.38135,-13.06375 102.36047,-40.30282 39.59881,-22.48043 44.95749,-28.08949 46.85762,-49.04639 1.19849,-13.2147 4.33367,-15.06112 7.40262,-4.35994 2.471425,8.61817 0.22892,18.97065 -6.16627,28.44131 -4.35726,6.45435 -4.54205,7.18505 -1.02113,4.03026 7.8269,-7.01302 12.594455,-19.95633 12.582185,-34.15789 0,-17.44657 -2.0659,-24.10748 -17.888165,-58.10755 -13.45473,-28.91221 -19.01175,-49.94794 -12.63351,-47.82169 3.09697,1.03237 30.234965,45.80977 37.745165,62.279 5.10797,11.20103 4.99391,11.1347 27.59377,16.04579 32.39283,7.04019 116.93019,12.08309 153.93694,9.18284 65.54136,-5.13604 163.40965,-27.17763 170.31991,-38.35869 0.5802,-0.94326 -11.96062,-2.82768 -27.87198,-4.19071 -33.65156,-2.88208 -105.09954,-13.11724 -131.22963,-18.79888 -9.94791,-2.16276 -31.13831,-8.66034 -47.09041,-14.43868 C 152.76544,347.22805 89.854475,310.3496 83.109695,283.03849 c -0.66257,-2.68322 -0.35838,-12.30079 0.67646,-21.37275 1.03455,-9.07203 1.53427,-16.84089 1.11051,-17.26485 -0.42445,-0.42305 -1.86852,5.73878 -3.21056,13.6948 -3.5387,20.98056 -7.08451,18.73851 -5.45494,-3.44903 1.4918,-20.31219 8.42549,-55.87439 11.24415,-57.67056 1.02862,-0.65567 6.95071,-11.32626 13.159485,-23.71323 15.34424,-30.61057 43.83754,-73.618222 66.87203,-100.935578 9.07704,-10.764785 13.43351,-13.592995 10.94357,-7.104195 -0.74766,1.948656 11.94919,-9.842738 28.2159,-26.203037 33.43117,-33.6239911 66.49173,-59.667484 90.84887,-71.56614 9.09008,-4.440661 26.66233,-10.942876 39.04909,-14.449267 12.38663,-3.506655 23.90317,-7.565628 25.59209,-9.020175 4.80872,-4.141073 16.60374,-6.049886 18.49294,-2.992702 1.27024,2.055072 2.83811,2.081266 7.55767,0.126498 3.73533,-1.54731 7.81179,-1.822953 10.93808,-0.739643 2.74032,0.949907 12.35345,1.22174 21.36228,0.604361 l 16.37868,-1.122627 -11.26069,-7.405053 c -16.12154,-10.60127 -42.49068,-23.50188 -60.16823,-29.43611 -36.45535,-12.237672 -68.67203,-15.254982 -122.30685,-11.455062 -39.09809,2.77021 -54.31951,6.02427 -96.99403,20.735082 -38.35866,13.22303 -70.965085,28.565713 -97.099015,45.6887 -24.19363,15.851796 -85.69018,70.331224 -112.7379,99.873461 -36.033023,39.356559 -86.971075,90.350227 -96.136975,96.242367 -10.68174,6.86647 -20.0028,7.48509 -27.22199,1.80634 -2.82812,-2.22454 -10.90599,-13.97119 -17.95035,-26.10419 -23.29192,-40.113792 -34.70148,-55.757652 -55.97521,-76.747498 -25.46829,-25.128802 -91.36159,-81.771569 -110.86861,-95.304372 l -14.33173,-9.942433 8.50385,17.522058 c 13.04932,26.8869309 40.925,124.693256 54.88558,192.573885 7.14955,34.76392 11.12191,111.18691 7.37788,141.9398 -6.30936,51.82402 -8.82192,69.26014 -12.68957,88.06106 -2.27871,11.07789 -3.74614,20.53913 -3.2608,21.02453 1.68887,1.68934 68.17775,-68.1251 90.54812,-95.07686 12.38655,-14.92361 28.97043,-37.61737 36.85309,-50.43109 7.88209,-12.81348 16.5651,-25.6735 19.29501,-28.57796 9.34168,-9.93839 21.24034,-5.3702 23.92428,9.18527 3.21794,17.45184 29.24131,54.83088 61.049222,87.6889 21.989467,22.71599 44.404283,40.6096 65.992343,52.68222 l 13.29225,7.43342 7.99626,-7.80823 c 8.63897,-8.43542 12.20616003,-8.15165 8.8601,0.70567 -3.83267,10.14487 -46.28292,72.62731 -47.74057,70.2686 -1.31495,-2.12746 -24.028845,29.2667 -63.851835,88.25291 -14.01683,20.76212 -15.15896,23.16779 -11.26064,23.71881 2.38651,0.33676 5.69534,1.07712 7.35293,1.64528 4.77202,1.63645 -1.57644,4.83884 -9.66753,4.87662 -10.88435,0.0518 -7.55018,3.84947 4.09464,4.66415 29.064473,2.0333 42.982879,1.29289 66.768975,-3.55145 z m 18.79534,-247.25882 c -5.68534,-7.02653 -10.00437,-13.70631 -9.59805,-14.84389 0.40679,-1.13731 -0.99526,-4.54575 -3.11486,-7.57425 -8.95239,-12.79089 -28.320659,-59.13602 -28.320659,-67.76702 -7.9e-5,-1.04216 1.44743,-1.33921 3.217334,-0.66016 2.808763,1.07765 3.00355,-0.25929 1.535297,-10.52994 -0.924771,-6.47022 -1.681876,-24.66292 -1.681665,-40.42783 0,-27.44356 0.293582,-29.46924 6.905096,-47.60161 4.504187,-12.35419 7.968457,-18.93832 9.963627,-18.9384 2.09918,0 2.70558,1.34967 1.93532,4.29718 -1.45833,5.57604 -1.40256,5.50865 10.488,-12.70614 10.0652,-15.418326 19.5253,-24.349336 25.79169,-24.349257 5.0273,-7.9e-5 3.92944,3.693584 -3.77266,12.691666 -3.87165,4.523311 -11.89961,18.028971 -17.83991,30.012691 -5.94,11.98364 -11.50815,22.09009 -12.37413,22.45884 -3.34746,1.42539 -5.48881,17.01784 -6.79699,49.49063 -1.11805,27.75355 -0.7547,36.4136 2.03716,48.53024 4.58102,19.88281 13.55598,42.7641 25.75478,65.66215 15.09797,28.33936 13.27171,33.7606 -4.12928,12.2551 z m -33.493102,-85.88367 c -0.653548,-1.63319 -1.138688,-1.14805 -1.236927,1.2372 -0.08866,2.15828 0.395102,3.36722 1.075531,2.68718 0.680482,-0.68043 0.752977,-2.44636 0.16002,-3.92438 z m -220.469463,30.32194 c 0,-3.70879 5.40718,-8.11239 7.9964,-6.51232 1.11712,0.694 4.09616,-1.53278 6.61695,-4.9422 2.52101,-3.40948 6.36527,-6.19914 8.54371,-6.19914 3.46233,0 5.50535,-3.13407 6.29553,-1.05706 0.34118,0.89678 1.5104,0.56642 4.1587,-0.98372 7.12142,-4.16761 5.28893,-2.95336 5.28912,-4.67001 0,-2.50576 8.59604,-9.51589 11.77244,-9.60014 1.40765,-0.0323 2.55909,1.02571 2.55917,2.36236 1.7e-4,1.33665 2.58415,-0.0501 5.74225,-3.07096 3.15849,-3.0262 7.83838,-5.50193 10.39974,-5.5017 4.16654,-2.3e-4 4.51518,0.70112 3.30679,6.65396 -1.39713,6.88379 -8.31735,14.61444 -11.38517,12.71831 -0.96282,-0.59032 -3.17046,1.67314 -4.91033,5.03764 -2.32821,4.5023 -5.15572,6.49112 -10.71021,7.53303 -4.15065,0.77893 -12.88258,3.58396 -19.40438,6.23416 -13.39551,5.44301 -26.27097,6.42202 -26.2708,1.99753 z m -3.05339,-85.02727 c -7.35846,-0.87407 -10.40315,-2.18421 -10.87627,-4.68021 -0.495,-2.60969 1.27105,-3.77134 7.14787,-4.7017 4.293,-0.67947 10.56941,-2.43943 13.9477,-3.91102 13.85337,-6.03445 37.87676,-2.0947 37.87669,6.21134 7e-5,2.45231 -1.36927,2.95732 -5.63039,2.07602 -3.09664,-0.64058 -4.47844,-0.66365 -3.07106,-0.0518 3.77927,1.64352 3.10978,6.9138 -0.87832,6.9138 -1.89071,2.4e-4 -6.64751,-1.15144 -10.57112,-2.5592 -5.70658,-2.04724 -7.30543,-2.04724 -7.99352,0 -0.89369,2.65787 -2.89278,2.72878 -19.95142,0.70217 z m 37.34713,-73.26018 c -1.9703,-0.51546 -3.58285,-1.69355 -3.58302,-2.61861 1.7e-4,-0.92512 -3.45488,-2.14966 -7.67763,-2.72108 -4.22279,-0.57145 -16.89099,-4.35277 -28.15155,-8.403267 -19.29695,-6.941004 -26.8554,-11.856936 -24.38246,-15.85823 1.37451,-2.224193 6.97953,-2.289625 6.97944,-0.0817 0,0.91522 4.11902,1.606365 9.15342,1.535483 5.03438,-0.07117 9.14388,0.792744 9.13264,1.918943 -0.0323,2.650676 12.75538,4.81338 15.71475,2.658666 3.76741,-2.743068 15.58513,0.661405 16.66783,4.801843 0.59032,2.256367 4.08182,4.602295 8.70196,5.846252 9.87403,2.65893 13.79867,6.9749 10.24093,11.26175 -2.52337,3.04038 -5.85816,3.47295 -12.79631,1.66005 z M 110.71955,35.134998 C 101.45813,29.323637 96.096105,16.747038 96.040195,0.70476792 95.990995,-13.615778 98.936405,-22.254847 108.33449,-35.34143 c 18.18328,-25.319646 47.83148,-22.566101 55.2908,5.13506 1.27278,4.727522 1.71201,11.808196 0.97515,15.734771 -0.90374,4.8171099 -0.49168,7.6625449 1.26653,8.7491619 4.49948,2.781459 2.9867,15.226982 -2.93981,24.1825991 -8.15631,12.325192 -19.82822,19.285003 -33.8473,20.182787 -9.07661,0.581184 -13.05478,-0.178408 -18.36031,-3.507951 z M 150.23489,2.9512659 c 4.37448,-8.234151 5.34365,-12.197292 4.31749,-17.6654089 -1.7331,-9.239012 -9.75346,-17.785477 -16.69023,-17.785556 -10.21533,1.59e-4 -23.44047,18.806954 -23.44047,33.33334592 8e-5,12.78286808 18.57581,23.77098708 26.85891,15.88730308 1.82282,-1.734926 5.85214,-7.9313091 8.95438,-13.7698691 z M 240.10151,117.4719 c -0.73477,-3.0966 -4.79419,-16.68637 -9.02065,-30.199142 -4.22637,-13.512748 -8.33112,-28.488879 -9.12148,-33.279927 l -1.43669,-8.711644 -5.44869,3.966077 c -9.48619,6.904831 -29.67017,27.414485 -39.47404,40.110728 l -9.45668,12.246558 9.45668,0.20304 c 6.7482,0.14467 15.90635,3.18087 31.97778,10.6018 12.387,5.7195 25.07276,10.4653 28.1908,10.54618 5.16469,0.13375 5.55067,-0.35433 4.33297,-5.48304 z M 169.96227,78.571564 c 2.54704,-3.247257 2.47431,-3.319912 -0.77319,-0.772689 -3.41051,2.674726 -4.49501,4.356074 -2.80911,4.356153 0.42445,0 2.03711,-1.612212 3.58246,-3.582776 z m 57.4004,-33.097972 c 0.41966,-4.409467 0.0562,-7.579863 -0.80864,-7.045008 -1.5743,0.972846 -2.28976,15.062226 -0.76452,15.062438 0.44559,0 1.15277,-3.608043 1.57316,-8.01743 z"
       id="path4174-7-4-4-0-1-0-2-0-8-7"
       inkscape:connector-curvature="0"
       sodipodi:nodetypes="csscsssssssssssssssssssssssssssssssssssscssssssssssssscsssssssssssssssssscsssssssssscssssssscssssscsssssscssssssssssssssssscsssssscscscssssssssssscsssssssccsssssscssssssssssscssssssssssscsscssssssssssscssssssssssscsssssssssscsssssssssssssssssccsccssssssssssssssssscssssscssscccsssssccssssccssssssssssssssscssssscssssssssscsscccccc" />
  </g>
</svg>
