<?xml version="1.0" encoding="UTF-8" standalone="no"?>
<svg
   version="1.1"
   id="svg2"
   xml:space="preserve"
   width="50.000011"
   height="61.723148"
   viewBox="0 0 50.00001 61.723147"
   sodipodi:docname="soos.svg"
   inkscape:version="1.1 (c68e22c387, 2021-05-23)"
   xmlns:inkscape="http://www.inkscape.org/namespaces/inkscape"
   xmlns:sodipodi="http://sodipodi.sourceforge.net/DTD/sodipodi-0.dtd"
   xmlns="http://www.w3.org/2000/svg"
   xmlns:svg="http://www.w3.org/2000/svg"
   xmlns:rdf="http://www.w3.org/1999/02/22-rdf-syntax-ns#"
   xmlns:cc="http://creativecommons.org/ns#"
   xmlns:dc="http://purl.org/dc/elements/1.1/"><metadata
     id="metadata8"><rdf:RDF><cc:Work
         rdf:about=""><dc:format>image/svg+xml</dc:format><dc:type
           rdf:resource="http://purl.org/dc/dcmitype/StillImage" /></cc:Work></rdf:RDF></metadata><defs
     id="defs6"><clipPath
       clipPathUnits="userSpaceOnUse"
       id="clipPath18"><path
         d="M 0,841.89 H 1190.551 V 0 H 0 Z"
         id="path16" /></clipPath></defs><sodipodi:namedview
     pagecolor="#ffffff"
     bordercolor="#666666"
     borderopacity="1"
     objecttolerance="10"
     gridtolerance="10"
     guidetolerance="10"
     inkscape:pageopacity="0"
     inkscape:pageshadow="2"
     inkscape:window-width="1920"
     inkscape:window-height="1017"
     id="namedview4"
     inkscape:pagecheckerboard="0"
     showgrid="false"
     fit-margin-top="0"
     fit-margin-left="0"
     fit-margin-right="0"
     fit-margin-bottom="0"
     inkscape:zoom="3.777413"
     inkscape:cx="-12.045281"
     inkscape:cy="39.577351"
     inkscape:window-x="-8"
     inkscape:window-y="-8"
     inkscape:window-maximized="1"
     inkscape:current-layer="g10" /><g
     id="g10"
     inkscape:groupmode="layer"
     inkscape:label="soos"
     transform="matrix(1.3333333,0,0,-1.3333333,-149.6385,1060.4778)"><g
       id="g12"
       style="opacity:0.6;fill:#12879e;fill-opacity:1"
       transform="matrix(0.05997092,0,0,0.05997092,105.49841,747.66001)"><g
         id="g14"
         clip-path="url(#clipPath18)"
         style="fill:#12879e;fill-opacity:1"><g
           id="g20"
           transform="translate(580.3139,593.3517)"
           style="fill:#12879e;fill-opacity:1"><path
             d="m 0,0 c -0.461,-1.042 -0.922,-2.085 -1.383,-3.127 4.1,-6.928 76.426,-37.334 99.011,-40.677 C 65.085,-29.202 32.543,-14.601 0,0 M 5.737,123.224 C 2.124,114.16 6.688,108.706 12.644,104.068 48.188,76.393 83.797,48.803 119.417,21.227 c 1.718,-1.33 3.737,-2.266 6.745,-4.058 C 85.352,53.109 45.694,88.035 5.737,123.224 M -260.621,1.428 c -63.488,-20.892 -126.473,-41.617 -189.458,-62.343 0.223,-0.838 0.445,-1.677 0.668,-2.516 2.943,0.484 5.958,0.706 8.819,1.492 20.095,5.52 40.274,10.769 60.206,16.84 36.567,11.137 72.998,22.733 109.446,34.265 5.646,1.786 12.071,3.391 10.319,12.262 M -436.65,15.782 c 7.308,3.624 15.335,7.172 22.957,11.454 46.627,26.194 93.279,52.348 139.641,79.015 10.747,6.182 10.587,8.434 5.848,18.165 C -324.423,88.159 -380.801,51.799 -436.65,15.782 M -13.474,3.802 H -247.157 V -7.071 c 49.778,0 98.808,-0.122 147.837,0.05 25.935,0.091 51.868,0.676 77.802,1.076 5.838,0.09 10.232,1.661 8.044,9.747 m -49.313,140.046 c 0.141,0.698 0.282,1.396 0.423,2.093 -22.942,13.366 -45.963,26.598 -68.771,40.192 -5.686,3.389 -10.272,3.005 -15.64,-0.533 -18.536,-12.22 -37.286,-24.11 -55.92,-36.179 -1.63,-1.055 -3.015,-2.493 -6.676,-5.573 z m 56.932,-10.127 c -83.298,-6.791 -165.633,-5.137 -247.866,0.137 -2.761,-18.762 -1.54,-21.593 11.45,-21.743 63.939,-0.738 127.881,-1.308 191.824,-1.536 14.376,-0.051 28.758,1.504 43.442,2.337 0.423,7.641 0.767,13.865 1.15,20.805 M -15.169,20.135 C -5.119,16.406 4.792,13.306 14.226,9.116 37.946,-1.417 61.38,-12.6 85.066,-23.21 c 14.574,-6.528 29.402,-12.481 45.583,-19.311 0.952,9.797 1.975,17.886 2.3,26.005 0.056,1.395 -2.7,3.147 -4.426,4.338 -44.141,30.431 -88.317,60.81 -132.491,91.193 -2.959,2.035 -5.95,4.024 -11.201,7.573 z m -424.536,-63.617 c 64.804,21.432 128.566,42.519 193.742,64.074 -1.148,21.606 -2.323,43.731 -3.594,67.643 -9.795,-5.24 -17.507,-9.486 -25.322,-13.527 -47.486,-24.556 -94.998,-49.061 -142.495,-73.595 -8.248,-4.261 -20.102,-6.626 -23.696,-13.416 -3.764,-7.11 0.419,-18.496 1.365,-31.179 M -25.65,91.675 h -209.445 c 0,-21.305 0.133,-42.33 -0.071,-63.351 -0.074,-7.629 2.868,-10.888 10.654,-10.934 46.238,-0.274 92.474,-0.886 138.711,-1.271 18.615,-0.155 37.232,-0.026 56.566,-0.026 1.269,26.746 2.413,50.874 3.585,75.582 M -6.336,-439.56 c 2.565,2.24 4.052,3.325 5.287,4.649 42.76,45.87 87.308,89.837 135.307,130.187 2.251,1.893 3.508,6.432 3.31,9.618 -1.689,27.061 -4.603,54.064 -5.646,81.143 -1.693,44.004 -2.33,88.052 -3.172,132.085 -0.094,4.935 -1.553,7.142 -6.312,8.736 -34.748,11.635 -69.396,23.574 -104.045,35.506 -11.874,4.09 -23.661,8.433 -37.306,13.31 0.855,-139.042 -3.358,-276.547 12.577,-415.234 m -238.633,-8.643 h 226.558 c -11.394,142.434 -15.305,283.701 -12.342,425.588 h -202.614 c -0.162,-142.763 3.028,-284.911 -11.602,-425.588 m -2.899,423.658 c -2.964,-0.657 -6.039,-1.159 -9.011,-2.023 -55.823,-16.232 -111.537,-32.862 -167.539,-48.443 -10.055,-2.797 -12.636,-6.947 -12.757,-16.861 -0.486,-39.888 -1.23,-79.798 -3.2,-119.633 -1.448,-29.289 -4.895,-58.48 -7.591,-87.701 -0.472,-5.124 0.127,-8.559 5.376,-11.607 60.471,-35.122 117.27,-75.592 171.014,-120.451 4.682,-3.907 9.525,-7.617 14.717,-11.757 10.159,34.023 17.671,394.062 8.991,418.476 m 388.512,-53.958 c 2.598,-62.153 5.095,-124.31 7.883,-186.453 0.542,-12.097 2.73,-24.128 3.06,-36.219 0.099,-3.584 -2.777,-8.116 -5.613,-10.784 -31.03,-29.195 -62.693,-57.715 -93.4,-87.247 -17.397,-16.732 -33.665,-34.704 -49.784,-52.715 -6.658,-7.439 -13.432,-11.097 -23.691,-11.041 -72.855,0.398 -145.714,0.454 -218.567,-0.03 -12.134,-0.08 -20.94,3.191 -30.402,11.33 -52.82,45.443 -108.479,87.257 -169.014,121.658 -19.036,10.818 -25.923,20.55 -21.855,43.965 10.775,62.03 11.564,125.082 10.416,188.022 -0.154,8.459 1.136,17.13 -10.47,21.491 -7.937,2.983 -5.614,23.978 1.711,28.836 2.522,1.672 4.866,5.472 5.073,8.456 0.459,6.63 0.117,13.473 -1.111,19.997 -0.607,3.219 -3.31,7.533 -6.09,8.578 -11.38,4.274 -4.822,13.58 -6.392,20.478 -1.318,5.787 1.59,9.013 6.849,11.797 65.972,34.926 128.963,74.698 187.947,120.615 10.265,7.991 19.614,3.193 29.5,3.716 4.456,0.237 9.554,0.469 13.161,2.686 25.389,15.613 50.669,31.429 75.547,47.852 10.879,7.181 20.51,7.298 31.647,0.7 27.258,-16.148 55.027,-31.417 82.346,-47.461 7.261,-4.265 14.35,-6.066 22.52,-4.278 14.621,3.2 25.814,-0.663 36.907,-12.178 40.659,-42.207 84.934,-80.467 131.885,-115.432 7.272,-5.415 6.406,-11.665 6.197,-18.427 -0.198,-6.392 3.072,-14.653 -7.778,-16.365 -1.557,-0.246 -3.376,-3.762 -3.712,-5.974 -0.955,-6.3 -1.567,-12.708 -1.548,-19.072 0.007,-2.396 1.563,-6.229 3.365,-6.935 9.095,-3.56 9.334,-11.311 7.733,-18.304 -1.009,-4.406 -5.991,-7.888 -9.19,-11.784 -1.71,0.174 -3.42,0.348 -5.13,0.522"
             style="fill:#12879e;fill-opacity:1;fill-rule:nonzero;stroke:none"
             id="path22" /></g><g
           id="g24"
           transform="translate(269.6682,281.6957)"
           style="fill:#12879e;fill-opacity:1"><path
             d="m 0,0 c 1.661,25.14 3.296,50.281 5.02,75.417 0.194,2.831 0.149,6.113 1.562,8.302 1.389,2.152 4.45,4.244 6.86,4.345 1.769,0.075 4.951,-2.897 5.273,-4.88 0.914,-5.614 1.107,-11.44 0.829,-17.145 -1.447,-29.621 -2.919,-59.246 -4.893,-88.835 -0.433,-6.488 1.433,-10.029 7.188,-12.593 5.169,-2.303 10.152,-5.224 14.796,-8.483 5.171,-3.629 6.738,-9.378 2.39,-13.911 -1.819,-1.897 -7.991,-1.3 -11.193,0.247 -7.944,3.837 -15.794,8.258 -22.719,13.692 -3.432,2.694 -6.504,8.07 -6.664,12.35 -0.389,10.459 1.012,20.986 1.692,31.485 C 0.094,-0.006 0.047,-0.003 0,0"
             style="fill:#12879e;fill-opacity:1;fill-rule:nonzero;stroke:none"
             id="path26" /></g><g
           id="g28"
           transform="translate(292.6393,512.3669)"
           style="fill:#12879e;fill-opacity:1"><path
             d="m 0,0 c 0,-25.534 0.061,-50.989 -0.035,-76.444 -0.031,-8.28 0.038,-16.627 -1.024,-24.799 -0.342,-2.635 -4.157,-4.811 -6.384,-7.196 -2.209,2.297 -6.291,4.55 -6.346,6.898 -0.808,34.396 -1.012,68.805 -1.536,103.208 -0.099,6.498 2.385,9.852 8.91,10.892 8.083,1.288 16.004,3.661 24.101,4.783 2.439,0.338 5.233,-1.934 7.864,-3.01 C 24.261,11.657 23.611,7.467 21.564,6.589 15.265,3.887 8.43,2.452 0,0"
             style="fill:#12879e;fill-opacity:1;fill-rule:nonzero;stroke:none"
             id="path30" /></g><g
           id="g32"
           transform="translate(233.2147,364.2381)"
           style="fill:#12879e;fill-opacity:1"><path
             d="m 0,0 c -1.953,-23.558 -3.691,-47.712 -6.099,-71.798 -0.807,-8.073 0.929,-13.572 8.941,-16.248 1.77,-0.591 4.372,-1.426 4.819,-2.754 1.396,-4.146 1.942,-8.581 2.818,-12.904 -3.268,-0.162 -7.025,-1.472 -9.727,-0.304 -23.735,10.26 -23.614,10.386 -21.808,34.447 1.907,25.413 3.654,50.839 5.528,76.254 0.186,2.519 -0.065,5.845 1.375,7.314 2.149,2.193 5.666,4.218 8.516,4.106 1.954,-0.076 4.759,-3.643 5.4,-6.118 C 0.689,8.418 0,4.416 0,0"
             style="fill:#12879e;fill-opacity:1;fill-rule:nonzero;stroke:none"
             id="path34" /></g><g
           id="g36"
           transform="translate(234.9122,503.6353)"
           style="fill:#12879e;fill-opacity:1"><path
             d="m 0,0 c 0,-27.009 0.076,-53.75 -0.095,-80.49 -0.021,-3.376 -0.548,-7.272 -2.308,-9.944 -1.327,-2.014 -5.103,-3.492 -7.597,-3.244 -1.734,0.173 -4.498,3.681 -4.494,5.694 0.071,31.24 0.489,62.479 0.966,93.717 0.026,1.681 1.015,4.596 2.019,4.819 8.583,1.912 17.243,3.587 25.962,4.634 1.318,0.158 4.482,-3.462 4.291,-5.023 C 18.422,7.532 16.637,3.839 14.499,2.943 10.242,1.159 5.328,0.972 0,0"
             style="fill:#12879e;fill-opacity:1;fill-rule:nonzero;stroke:none"
             id="path38" /></g><g
           id="g40"
           transform="translate(168.3852,319.5492)"
           style="fill:#12879e;fill-opacity:1"><path
             d="m 0,0 c 1.335,15.706 3.058,39.562 5.722,63.312 0.384,3.425 4.953,8.513 8.176,9.021 6.347,1 6.997,-4.657 6.598,-9.851 C 18.91,41.819 17.532,21.136 15.699,0.495 c -0.803,-9.044 -2.28,-17.513 7.85,-23.136 2.908,-1.614 3.704,-7.095 5.468,-10.803 -4.293,-0.319 -9.039,-1.997 -12.801,-0.722 C 0.267,-28.763 -0.535,-26.979 0,0"
             style="fill:#12879e;fill-opacity:1;fill-rule:nonzero;stroke:none"
             id="path42" /></g><g
           id="g44"
           transform="translate(191.1262,496.8967)"
           style="fill:#12879e;fill-opacity:1"><path
             d="m 0,0 c 0,-22.129 0.027,-43.775 -0.026,-65.422 -0.009,-3.818 0.788,-8.278 -0.869,-11.27 -1.627,-2.938 -5.734,-4.857 -9.154,-6.111 -0.751,-0.276 -4.602,4.115 -4.646,6.404 -0.517,27.078 -0.735,54.167 -0.493,81.248 0.021,2.356 3.445,5.768 6.022,6.768 4.327,1.681 9.255,2.449 13.911,2.374 2.956,-0.048 5.877,-2.315 8.814,-3.587 C 11.5,7.701 9.743,4.659 7.269,2.422 5.781,1.077 3.176,0.987 0,0"
             style="fill:#12879e;fill-opacity:1;fill-rule:nonzero;stroke:none"
             id="path46" /></g><g
           id="g48"
           transform="translate(427.266,221.3824)"
           style="fill:#12879e;fill-opacity:1"><path
             d="m 0,0 v 123.391 h -52.632 c -0.537,-2.301 -0.902,-3.192 -0.932,-4.093 C -54.773,83.324 -56.022,47.352 -57.039,11.373 -57.158,7.159 -55.974,2.908 -55.576,0 Z m -67.699,-14.28 c 0,18.865 -0.334,37.615 0.08,56.348 0.586,26.469 1.66,52.928 2.651,79.386 0.545,14.545 1.284,15.232 15.303,15.292 17.09,0.074 34.185,-0.193 51.27,0.112 7.505,0.133 11.243,-2.479 11.122,-10.422 C 12.054,82.095 11.623,37.749 10.691,-6.586 10.633,-9.329 7.076,-14.285 5.03,-14.348 c -23.375,-0.721 -46.772,-0.702 -70.163,-0.822 -0.869,-0.005 -1.742,0.591 -2.566,0.89"
             style="fill:#12879e;fill-opacity:1;fill-rule:nonzero;stroke:none"
             id="path50" /></g><g
           id="g52"
           transform="translate(466.6622,344.9897)"
           style="fill:#12879e;fill-opacity:1"><path
             d="M 0,0 V -122.7 H 55.478 C 53.81,-81.582 52.169,-41.108 50.501,0 Z m -10.931,13.024 c 22.065,0 42.944,-0.209 63.815,0.113 7.369,0.114 9.985,-2.732 10.222,-10.037 0.966,-29.649 2.372,-59.283 3.589,-88.924 0.575,-14.024 1.224,-28.048 1.572,-42.079 0.165,-6.695 -1.713,-12.202 -10.009,-11.916 -21.503,0.742 -43.006,1.48 -64.506,2.286 -1.519,0.057 -3.019,0.656 -4.683,1.038 z"
             style="fill:#12879e;fill-opacity:1;fill-rule:nonzero;stroke:none"
             id="path54" /></g><path
           d="M 515.94,521.628 H 465.322 V 410.697 h 50.618 z m -62.443,-54.567 c -0.009,19.128 0.145,38.259 -0.102,57.384 -0.076,5.85 1.753,9.284 7.816,9.31 19.924,0.083 39.848,0.1 59.772,0.067 6,-0.01 8.287,-3.68 8.293,-9.244 0.037,-37.977 0.368,-75.959 -0.094,-113.93 -0.152,-12.446 -3.078,-14.317 -15.035,-13.961 -16.443,0.49 -32.881,1.23 -49.326,1.586 -7.68,0.167 -11.587,2.949 -11.428,11.408 0.359,19.121 0.113,38.253 0.104,57.38"
           style="fill:#12879e;fill-opacity:1;fill-rule:nonzero;stroke:none"
           id="path56" /><path
           d="M 376.182,410.077 H 427.86 V 522.305 H 376.182 Z M 363.958,533.95 c 23.138,0 44.909,0.253 66.658,-0.34 2.55,-0.069 7.067,-4.74 7.144,-7.382 1.145,-39.52 1.811,-79.055 2.124,-118.591 0.021,-2.576 -3.634,-7.331 -5.763,-7.441 -21.431,-1.101 -42.898,-1.592 -64.36,-1.91 -6.799,-0.1 -5.712,5.691 -5.73,9.905 -0.116,28.073 -0.068,56.146 -0.073,84.219 -0.002,13.377 0,26.753 0,41.54"
           style="fill:#12879e;fill-opacity:1;fill-rule:nonzero;stroke:none"
           id="path58" /><g
           id="g60"
           transform="translate(616.0269,250.1894)"
           style="fill:#12879e;fill-opacity:1"><path
             d="m 0,0 c -1.586,-3.256 -2.424,-7.343 -4.901,-9.609 -6.769,-6.194 -13.961,-12.027 -21.57,-17.114 -2.456,-1.642 -6.728,-0.522 -10.169,-0.666 -0.092,3.93 -1.543,8.597 0.062,11.609 2.108,3.957 6.269,7.163 10.181,9.7 6.522,4.229 9.071,9.296 8.479,17.404 -2.37,32.468 -4.114,64.983 -5.874,97.493 -0.16,2.954 0.312,6.9 2.129,8.738 1.807,1.827 6.094,2.748 8.526,1.88 2.112,-0.754 4.272,-4.469 4.485,-7.038 C -7.229,95.226 -6.289,78.014 -5.257,60.811 -4.053,40.738 -2.915,20.661 -1.748,0.586 -1.166,0.391 -0.583,0.195 0,0"
             style="fill:#12879e;fill-opacity:1;fill-rule:nonzero;stroke:none"
             id="path62" /></g><g
           id="g64"
           transform="translate(605.6209,464.8754)"
           style="fill:#12879e;fill-opacity:1"><path
             d="m 0,0 c 0,-16.901 0.051,-33.802 -0.032,-50.702 -0.024,-4.873 -0.064,-9.929 -6.98,-10.223 -7.201,-0.305 -7.334,5.374 -7.465,9.84 -0.587,20.075 -0.691,40.165 -0.967,60.249 -0.128,9.245 -0.101,18.497 -0.421,27.736 -0.27,7.79 -1.939,14.155 -11.811,15.276 -2.806,0.318 -7.313,5.853 -7.09,8.679 0.487,6.175 5.663,4.774 10.304,3.712 C 0.345,58.891 0.365,58.982 0.365,33.488 V 0 C 0.243,0 0.122,0 0,0"
             style="fill:#12879e;fill-opacity:1;fill-rule:nonzero;stroke:none"
             id="path66" /></g><g
           id="g68"
           transform="translate(660.2864,278.6497)"
           style="fill:#12879e;fill-opacity:1"><path
             d="m 0,0 c -0.544,-0.845 -1.597,-3.577 -3.538,-5.281 -4.764,-4.183 -9.648,-8.392 -15.069,-11.576 -2.647,-1.555 -6.601,-0.847 -9.964,-1.163 -0.069,4.179 -0.232,8.36 -0.116,12.534 0.019,0.696 1.129,1.636 1.939,1.995 12.582,5.583 10.194,16.245 9.443,26.762 -1.726,24.167 -2.821,48.379 -4.516,72.549 -0.425,6.07 2.138,10.045 7.435,9.385 2.746,-0.342 6.729,-5.458 7.01,-8.696 2.405,-27.664 4.075,-55.393 6.007,-83.1 C -1.102,9.593 -0.599,5.795 0,0"
             style="fill:#12879e;fill-opacity:1;fill-rule:nonzero;stroke:none"
             id="path70" /></g><g
           id="g72"
           transform="translate(650.6761,412.374)"
           style="fill:#12879e;fill-opacity:1"><path
             d="m 0,0 c -11.993,-3.518 -14.192,-2.065 -14.474,9.636 -0.591,24.494 -1.079,48.991 -1.487,73.489 -0.091,5.456 -0.452,9.858 -7.553,10.738 -2.076,0.258 -3.661,4.538 -5.472,6.974 2.846,1.785 5.685,3.582 8.552,5.332 0.195,0.119 0.599,-0.131 0.91,-0.178 C 0.786,102.897 1.009,102.596 0.849,81.708 0.652,55.917 0.517,30.125 0.337,4.334 0.328,3.068 0.145,1.804 0,0"
             style="fill:#12879e;fill-opacity:1;fill-rule:nonzero;stroke:none"
             id="path74" /></g><g
           id="g76"
           transform="translate(693.5757,306.8486)"
           style="fill:#12879e;fill-opacity:1"><path
             d="m 0,0 c 0.36,-9.742 -3.403,-15.745 -16.64,-20.624 -1.736,-0.64 -5.933,0.509 -6.092,1.373 -0.735,3.982 -2.126,10.423 -0.221,11.861 7.297,5.508 6.328,12.165 5.852,19.692 -1.285,20.364 -1.945,40.769 -2.806,61.159 -0.094,2.224 -0.75,5.199 0.37,6.534 2.093,2.494 5.103,4.817 8.138,5.595 1.201,0.308 4.874,-3.571 5.071,-5.759 C -4.072,54.753 -2.27,29.633 0,0"
             style="fill:#12879e;fill-opacity:1;fill-rule:nonzero;stroke:none"
             id="path78" /></g><g
           id="g80"
           transform="translate(686.9387,463.6141)"
           style="fill:#12879e;fill-opacity:1"><path
             d="m 0,0 c 0,-10.824 0.105,-21.649 -0.057,-32.47 -0.056,-3.794 0.098,-8 -1.454,-11.233 -1.254,-2.612 -4.787,-5.251 -7.572,-5.574 -1.839,-0.213 -5.29,3.322 -5.989,5.769 -1.285,4.491 -1.388,9.416 -1.426,14.165 -0.141,17.847 -0.137,35.697 -0.005,53.544 0.037,4.943 0.101,9.189 -5.485,11.815 -2.016,0.947 -2.597,4.997 -3.833,7.63 2.676,1.163 5.446,3.504 8.013,3.297 15.631,-1.258 16.45,-2.359 16.53,-18.279 C -1.231,19.112 -1.27,9.558 -1.27,0.005 -0.846,0.003 -0.423,0.002 0,0"
             style="fill:#12879e;fill-opacity:1;fill-rule:nonzero;stroke:none"
             id="path82" /></g></g></g><rect
       style="opacity:0;fill:#63d6ed;stroke-width:1.18667;stroke-linejoin:round"
       id="rect1030"
       width="37.5"
       height="6.1855674"
       x="112.22889"
       y="-755.25159"
       transform="scale(1,-1)" /></g></svg>
