<?xml version="1.0" encoding="UTF-8" standalone="no"?>
<!-- Created with Inkscape (http://www.inkscape.org/) -->

<svg
   width="356.51758mm"
   height="255.21443mm"
   viewBox="0 0 356.51758 255.21443"
   version="1.1"
   id="svg24697"
   inkscape:version="1.1 (c68e22c387, 2021-05-23)"
   sodipodi:docname="textbox.svg"
   xmlns:inkscape="http://www.inkscape.org/namespaces/inkscape"
   xmlns:sodipodi="http://sodipodi.sourceforge.net/DTD/sodipodi-0.dtd"
   xmlns="http://www.w3.org/2000/svg"
   xmlns:svg="http://www.w3.org/2000/svg">
  <sodipodi:namedview
     id="namedview24699"
     pagecolor="#505050"
     bordercolor="#ffffff"
     borderopacity="1"
     inkscape:pageshadow="0"
     inkscape:pageopacity="0"
     inkscape:pagecheckerboard="1"
     inkscape:document-units="mm"
     showgrid="false"
     inkscape:zoom="0.52410025"
     inkscape:cx="712.64992"
     inkscape:cy="392.10056"
     inkscape:window-width="1920"
     inkscape:window-height="1017"
     inkscape:window-x="-8"
     inkscape:window-y="-8"
     inkscape:window-maximized="1"
     inkscape:current-layer="g4595" />
  <defs
     id="defs24694" />
  <g
     inkscape:label="Layer 1"
     inkscape:groupmode="layer"
     id="layer1"
     transform="translate(128.6398,19.444956)">
    <g
       id="g4595"
       transform="matrix(0.66266468,0,0,-0.66266468,-532.39126,573.69135)">
      <path
         d="m 1141.251,747.89469 c 0.848,-21.463 1.675,-42.926 2.574,-64.38699 0.1071,-2.57502 0.2381,-5.24401 0.977,-7.68102 5.365,-17.70199 1.112,-34.783 -3.867,-51.58199 -1.081,-3.647 -5.689,-7.94302 -9.408,-8.82201 -16.966,-4.007 -34.093,-7.61499 -51.349,-10.04298 -31.451,-4.42602 -62.151,-10.94601 -90.47605,-26.082 -4.365,-2.333 -9.051,-4.13501 -13.729,-5.78302 -2.34602,-0.82698 -5.24901,-1.58199 -7.48302,-0.933 -6.336,1.84 -11.991,0.69101 -17.96199,-1.61501 -4.95402,-1.91398 -10.476,-2.29898 -15.57601,-3.90398 -8.395,-2.63999 -17.121,-2.34701 -25.457,-7.79001 -7.1,-4.637 -17.957,-3.66599 -27.195,-4.83298 -10.428,-1.31902 -20.931,-2.05801 -31.343,-3.48001 -3.038,-0.414 -5.86,-2.33901 -8.807,-3.50501 -11.731,-4.64199 -24.242,-7.93401 -35.028,-14.19999 -15.52901,-9.02101 -32.38001,-5.624 -48.54,-8.24701 -2.54201,-0.41301 -5.04401,-1.06801 -7.57601,-1.55299 -17.54,-3.36101 -35.088,-6.68401 -52.624,-10.069 -5.839,-1.127 -11.608,-2.82801 -17.493,-3.41501 -2.673,-0.26702 -5.553,1.53799 -8.339,2.40401 1.466,2.25898 2.405,5.522 4.483,6.61498 14.369,7.55802 29.268,14.14001 43.41201,22.07801 11.465,6.43399 24.084,3.66199 35.97799,6.383 13.93301,3.18702 28.35501,4.28902 42.226,7.68501 10.52801,2.577 20.30701,8.16599 30.81401,10.89399 12.236,3.176 24.92,4.59701 37.376,6.959 19.088,3.618 38.307,6.72401 57.173,11.283 18.857,4.55601 37.32001,10.72601 56.01302,15.98601 6.494,1.82699 13.205,2.86699 19.73301,4.58399 13.21704,3.475 26.81804,6.05101 39.44404,11.059 14.892,5.90602 30.43,8.28001 45.785,11.82201 3.874,0.893 8.011,1.33401 11.494,3.05901 5.038,2.49599 10.833,5.011 14.094,9.22898 7.253,9.38401 10.974,20.20802 9.703,32.69702 -1.548,15.199 -2.886,30.521 0.972,45.69998 0.609,2.39602 0.218,5.11501 -0.042,7.651 -1.337,13.04801 -2.519,26.00901 2.473,38.725 1.181,3.01 0.672,6.671 1.018,10.02402 0.71,6.90599 5.932,12.83198 4.257,20.397 -0.248,1.116 2.528,2.902 3.905,4.378 1.442,-1.61501 3.946,-3.10102 4.16,-4.86601 1.891,-15.556 3.373,-31.16101 4.977,-46.753 -0.2489,-0.0227 -0.498,-0.0459 -0.747,-0.0689"
         style="fill:#63d6ed;fill-opacity:1;fill-rule:nonzero;stroke:none;stroke-width:0.85261825;stroke-opacity:1;stroke-miterlimit:4;stroke-dasharray:none"
         id="path24"
         sodipodi:nodetypes="cccsccccccccccccccsccccccccccccccccscccccccc" />
      <text
         transform="matrix(1.0547109,0.22629251,-0.09379637,-0.96825151,0,0)"
         style="font-variant:normal;font-weight:normal;font-stretch:normal;font-size:108.205px;font-family:Gabriola;-inkscape-font-specification:Gabriola;writing-mode:lr-tb;fill:#63d6ed;fill-opacity:1;fill-rule:nonzero;stroke:none;stroke-width:0.6488953;stroke-opacity:1;stroke-miterlimit:4;stroke-dasharray:none;stroke-dashoffset:0"
         id="text28"
         x="601.93317"
         y="-579.78186"><tspan
           x="601.93317 659.28162 697.45618 728.78143 754.96698 791.17224 843.53247 876.8595 908.18469 934.37024"
           y="-579.78186"
           sodipodi:role="line"
           id="tspan26"
           style="stroke-width:0.6488953;stroke:none;stroke-opacity:1;stroke-miterlimit:4;stroke-dasharray:none;stroke-dashoffset:0">Oost west,</tspan></text>
      <text
         transform="matrix(1.0547109,0.22629251,-0.09379637,-0.96825151,0,0)"
         style="font-variant:normal;font-weight:bold;font-stretch:normal;font-size:108.205px;font-family:Bierstadt;-inkscape-font-specification:Bierstadt-Bold;writing-mode:lr-tb;fill:#63d6ed;fill-opacity:1;fill-rule:nonzero;stroke:none;stroke-width:0.6488953;stroke-opacity:1;stroke-miterlimit:4;stroke-dasharray:none;stroke-dashoffset:0"
         id="text32"
         x="601.93317"
         y="-449.93631"><tspan
           x="601.93317 668.479 730.67505 762.69281"
           y="-449.93631"
           sodipodi:role="line"
           id="tspan30"
           style="stroke-width:0.6488953;stroke:none;stroke-opacity:1;stroke-miterlimit:4;stroke-dasharray:none;stroke-dashoffset:0">Bolk</tspan></text>
      <text
         transform="matrix(1.0547109,0.22629251,-0.09379637,-0.96825151,0,0)"
         style="font-variant:normal;font-weight:normal;font-stretch:normal;font-size:108.205px;font-family:Gabriola;-inkscape-font-specification:Gabriola;writing-mode:lr-tb;fill:#63d6ed;fill-opacity:1;fill-rule:nonzero;stroke:none;stroke-width:0.6488953;stroke-opacity:1;stroke-miterlimit:4;stroke-dasharray:none;stroke-dashoffset:0"
         id="text36"
         x="844.52795"
         y="-449.93631"><tspan
           x="844.52795 887.7016 921.02863 952.35388"
           y="-449.93631"
           sodipodi:role="line"
           id="tspan34"
           style="stroke-width:0.6488953;stroke:none;stroke-opacity:1;stroke-miterlimit:4;stroke-dasharray:none;stroke-dashoffset:0">best</tspan></text>
      <path
         d="m 833.4192,840.90196 c -2.13723,-0.60764 -4.22307,-1.96576 -7.79607,-2.99377 -2.164,-0.623 -0.079,-0.1321 -7.484,-2.592 -3.272,-1.087 -6.509,-2.16199 -10.782,-3.43599 -3.611,-1.076 -6.215,-1.77301 -9.927,-2.76401 -1.757,-0.46899 -5.147,-1.364 -13.878,-3.52598 -5.404,-1.33702 -7.305,-1.786 -13.351,-3.26501 -9.327,-2.282 -11.751,-2.88102 -14.793,-3.65099 -3.199,-0.80901 -5.791,-1.465 -9.35,-2.41002 -6.8,-1.80499 -11.94,-3.28898 -13.648,-3.78499 -2.943,-0.85399 -6.56,-1.962 -13.795,-4.17801 -5.953,-1.82398 -7.338,-2.264 -12.811,-3.938 -4.33601,-1.32599 -6.50401,-1.98899 -9.481,-2.884 -4.055,-1.21898 -8.28701,-2.491 -13.87601,-4.089 -3.171,-0.90599 -7.029,-2.006 -12.19,-3.37998 -2.627,-0.70001 -6.374,-1.69401 -11.363,-2.90401 -4.215,-1.022 -7.702,-1.868 -12.445,-2.837 -5.479,-1.11999 -8.219,-1.68001 -11.078,-2.16799 -3.815,-0.65203 -5.061,-0.76402 -7.231,-1.559 -1.502,-0.55001 -4.459,-1.66201 -7.324,-4.20902 -2.885,-2.564 -4.2,-5.26899 -6.009,-8.98901 -1.419,-2.91798 -2.119,-5.12498 -3.095,-8.19898 -2.021,-6.36701 -2.315,-9.976 -2.394,-11.80301 -0.01,-0.22507 -0.037,-0.91401 -0.033,-1.851 0.044,-9.20299 3.095,-24.458 3.944,-28.91801 1.172,-6.15398 2.083,-10.93799 2.583,-17.38899 0.744,-9.598 -0.128,-13.76699 -0.448,-25.87201 -0.192,-7.25598 -0.02,-12.665 0.322,-23.483 0.531,-16.733 1.604,-29.661 2.463,-39.83899 1.611,-19.094 1.91,-15.41299 2.045,-21.48199 0.09,-4.02001 0.092,-11.6 2.35,-21.176 1.407,-5.969 2.77,-8.81002 4.579,-9.01902 1.751,-0.20296 3.382,2.12 4.266,3.38 3.171,4.51701 3.5,9.33101 3.717,11.553 0.943,9.67201 3.413,7.952 5.765,20.97601 0.34,1.88201 1.602,9.19199 1.588,18.81301 -0.014,9.64199 -1.295,11.00199 -0.916,19.88798 0.138,3.24601 0.312,3.12801 1.823,15.34 1.302,10.52002 1.953,15.78101 2.24,19.98102 0.389,5.69999 0.312,11.049 0.157,21.74701 -0.091,6.23497 -0.248,11.53899 -0.563,22.14697 -0.393,13.212 -0.549,16.23303 -0.003,21.75503 0.626,6.33498 1.08,10.57297 3.32,15.85599 3.508,8.27098 8.848,13.097 10.201,14.274 1.753,1.52699 4.864,3.938 16.067,8.30699 9.378,3.65802 12.441,4.014 26.446,8.51502 6.22,1.99998 4.463,1.55899 19.68,6.65699 12.095,4.05199 18.143,6.07799 21.898,7.13801 10.124,2.86098 18.174,4.41099 25.564,5.818 8.04,1.52897 8.169,1.29699 23.353,3.85299 12.132,2.04301 18.197,3.06399 25.354,4.62501 3.568,0.77799 13.547,3.013 25.415,7.00999 8.13,2.73798 10.84201,4.18 12.985,5.529 4.316,2.71698 5.54701,4.569 9.684,6.47799 4.536,2.09401 8.239,2.25902 11.722,2.59299 6.09101,0.58502 12.52501,2.22702 25.39501,5.51302 13.543,3.45699 13.433,4.742 22.93699,6.44199 7.74803,1.386 7.67901,0.50601 17.925,1.94601 9.20203,1.293 10.03601,2.11099 24.74303,4.94399 11.76,2.26602 17.641,3.39801 23.145,3.86102 7.33201,0.61699 14.63705,2.45398 21.98105,2.01098 2.729,-0.16413 6.548,-0.56699 9.179,1.807 0,0 1.042,0.93901 4.089,7.42601 1.332,0.831 3.406,2.00801 6.091,3.05201 3.62,1.40799 5.968,1.648 13.573,2.76298 7.78,1.141 11.712,1.72701 13.776,2.463 3.94,1.404 4.115,2.203 9.326,4.09702 3.023,1.099 5.47,1.74099 9.628,2.83198 8.042,2.11 10.46,2.28102 11.302,4.32701 0.648,1.576 0.099,3.63101 -0.966,4.82899 -1.233,1.38702 -3.099,1.558 -4.224,1.645 -11.8,0.91301 -15.855,0.46202 -15.855,0.46202 -3.826,-0.425 -6.957,-0.92101 -11.086,-1.64501 -8.286,-1.45301 -12.611,-2.42699 -16.508,-3.171 -9.143,-1.74699 -13.206,-1.713 -22.121,-2.74201 -6.565,-0.75798 -15.363,-2.513 -32.95905,-6.023 -16.466,-3.28498 -24.69801,-4.92698 -35.96,-7.62698 -11.08001,-2.65601 -19.541,-4.98501 -29.53803,-7.737 -2.45599,-0.676 -10.90099,-3.09401 -27.79,-7.93202 -18.83999,-5.396 -28.26,-8.09399 -28.355,-8.157 -0.701,-0.45598 -5.92993,-2.71623 -12.52093,-3.56722 z"
         style="fill:#63d6ed;fill-opacity:1;fill-rule:nonzero;stroke:none;stroke-width:0.85261825;stroke-opacity:1;stroke-miterlimit:4;stroke-dasharray:none"
         id="path1544-5"
         sodipodi:nodetypes="ccscscccccccccccccccsccccscccccccccsccccccccccsccccsscccsccccccccccscsccsccccscccc" />
      <path
         d="m 1136.457,752.68593 c 0.848,-21.463 1.675,-42.926 2.574,-64.38699 0.1071,-2.57502 0.2381,-5.24401 0.977,-7.68102 5.365,-17.70199 1.112,-34.783 -3.867,-51.58199 -1.081,-3.647 -5.689,-7.94302 -9.408,-8.82201 -16.966,-4.007 -34.093,-7.61499 -51.349,-10.04298 -31.451,-4.42602 -62.151,-10.94601 -90.47625,-26.082 -4.365,-2.333 -9.051,-4.13501 -13.729,-5.78302 -2.3461,-0.82698 -5.2491,-1.58199 -7.4831,-0.933 -6.336,1.84 -11.991,0.69101 -17.962,-1.61501 -4.954,-1.91398 -10.476,-2.29898 -15.576,-3.90398 -8.395,-2.63999 -17.121,-2.34701 -25.457,-7.79001 -7.1,-4.637 -17.957,-3.66599 -27.195,-4.83298 -10.428,-1.31902 -20.931,-2.05801 -31.343,-3.48001 -3.038,-0.414 -5.86,-2.33901 -8.807,-3.50501 -11.731,-4.64199 -24.242,-7.93401 -35.028,-14.19999 -15.529,-9.02101 -32.38,-5.624 -48.54,-8.24701 -2.542,-0.41301 -5.044,-1.06801 -7.576,-1.55299 -17.54,-3.36101 -35.088,-6.68401 -52.624,-10.069 -5.839,-1.127 -11.608,-2.82801 -17.493,-3.41501 -2.673,-0.26702 -5.553,1.53799 -8.339,2.40401 1.466,2.25898 2.405,5.522 4.483,6.61498 14.369,7.55802 29.268,14.14001 43.412,22.07801 11.465,6.43399 24.084,3.66199 35.978,6.383 13.933,3.18702 28.355,4.28902 42.226,7.68501 10.528,2.577 20.307,8.16599 30.814,10.89399 12.236,3.176 24.92,4.59701 37.376,6.959 19.088,3.618 38.307,6.72401 57.173,11.283 18.857,4.55601 37.32,10.72601 56.0131,15.98601 6.494,1.82699 13.205,2.86699 19.733,4.58399 13.21725,3.475 26.81825,6.05101 39.44425,11.059 14.892,5.90602 30.43,8.28001 45.785,11.82201 3.874,0.893 8.011,1.33401 11.494,3.05901 5.038,2.49599 10.833,5.011 14.094,9.22898 7.253,9.38401 10.974,20.20802 9.703,32.69702 -1.548,15.199 -2.886,30.521 0.972,45.69998 0.609,2.39602 0.218,5.11501 -0.042,7.651 -1.337,13.04801 -2.519,26.00901 2.473,38.725 1.181,3.01 0.672,6.671 1.018,10.02402 0.71,6.90599 5.932,12.83198 4.257,20.397 -0.248,1.116 2.528,2.902 3.905,4.378 1.442,-1.61501 3.946,-3.10102 4.16,-4.86601 1.891,-15.556 3.373,-31.16101 4.977,-46.753 -0.2489,-0.0227 -0.498,-0.0459 -0.747,-0.0689"
         style="fill:#201f58;fill-opacity:1;fill-rule:nonzero;stroke:none;stroke-width:0.852618;stroke-miterlimit:4;stroke-dasharray:none;stroke-opacity:1"
         id="path24-7"
         sodipodi:nodetypes="cccsccccccccccccccsccccccccccccccccscccccccc" />
      <text
         transform="matrix(1.0547109,0.22629251,-0.09379637,-0.96825151,0,0)"
         style="font-variant:normal;font-weight:normal;font-stretch:normal;font-size:108.205px;font-family:Gabriola;-inkscape-font-specification:Gabriola;writing-mode:lr-tb;fill:#201f58;fill-opacity:1;fill-rule:nonzero;stroke:none;stroke-width:0.648895;stroke-miterlimit:4;stroke-dasharray:none;stroke-dashoffset:0;stroke-opacity:1"
         id="text28-3"
         x="599.38599"
         y="-582.85138"><tspan
           x="599.38599 656.73444 694.909 726.23419 752.41974 788.62506 840.98529 874.31232 905.63751 931.82306"
           y="-582.85138"
           sodipodi:role="line"
           id="tspan26-8"
           style="stroke:none;stroke-width:0.648895;stroke-miterlimit:4;stroke-dasharray:none;stroke-dashoffset:0;stroke-opacity:1">Oost west,</tspan></text>
      <text
         transform="matrix(1.0547109,0.22629251,-0.09379637,-0.96825151,0,0)"
         style="font-variant:normal;font-weight:bold;font-stretch:normal;font-size:108.205px;font-family:Bierstadt;-inkscape-font-specification:Bierstadt-Bold;writing-mode:lr-tb;fill:#201f58;fill-opacity:1;fill-rule:nonzero;stroke:none;stroke-width:0.648895;stroke-miterlimit:4;stroke-dasharray:none;stroke-dashoffset:0;stroke-opacity:1"
         id="text32-0"
         x="599.38599"
         y="-453.00577"><tspan
           x="599.38599 665.93182 728.12787 760.14557"
           y="-453.00577"
           sodipodi:role="line"
           id="tspan30-9"
           style="stroke:none;stroke-width:0.648895;stroke-miterlimit:4;stroke-dasharray:none;stroke-dashoffset:0;stroke-opacity:1">Bolk</tspan></text>
      <text
         transform="matrix(1.0547109,0.22629251,-0.09379637,-0.96825151,0,0)"
         style="font-variant:normal;font-weight:normal;font-stretch:normal;font-size:108.205px;font-family:Gabriola;-inkscape-font-specification:Gabriola;writing-mode:lr-tb;fill:#201f58;fill-opacity:1;fill-rule:nonzero;stroke:none;stroke-width:0.648895;stroke-miterlimit:4;stroke-dasharray:none;stroke-dashoffset:0;stroke-opacity:1"
         id="text36-9"
         x="841.98077"
         y="-453.00577"><tspan
           x="841.98077 885.15436 918.48138 949.8067"
           y="-453.00577"
           sodipodi:role="line"
           id="tspan34-4"
           style="stroke:none;stroke-width:0.648895;stroke-miterlimit:4;stroke-dasharray:none;stroke-dashoffset:0;stroke-opacity:1">best</tspan></text>
      <path
         d="m 829.42349,844.89466 c -2.1372,-0.60764 -4.2231,-1.96576 -7.7961,-2.99377 -2.164,-0.623 -0.079,-0.1321 -7.484,-2.592 -3.272,-1.087 -6.509,-2.16199 -10.782,-3.43599 -3.611,-1.076 -6.215,-1.77301 -9.927,-2.76401 -1.757,-0.46899 -5.147,-1.364 -13.878,-3.52598 -5.404,-1.33702 -7.305,-1.786 -13.351,-3.26501 -9.327,-2.282 -11.751,-2.88102 -14.793,-3.65099 -3.199,-0.80901 -5.791,-1.465 -9.35,-2.41002 -6.8,-1.80499 -11.94,-3.28898 -13.648,-3.78499 -2.943,-0.85399 -6.56,-1.962 -13.795,-4.17801 -5.953,-1.82398 -7.338,-2.264 -12.811,-3.938 -4.336,-1.32599 -6.504,-1.98899 -9.481,-2.884 -4.055,-1.21898 -8.287,-2.491 -13.876,-4.089 -3.171,-0.90599 -7.029,-2.006 -12.19,-3.37998 -2.627,-0.70001 -6.374,-1.69401 -11.363,-2.90401 -4.215,-1.022 -7.702,-1.868 -12.445,-2.837 -5.479,-1.11999 -8.219,-1.68001 -11.078,-2.16799 -3.815,-0.65203 -5.061,-0.76402 -7.231,-1.559 -1.502,-0.55001 -4.459,-1.66201 -7.324,-4.20902 -2.885,-2.564 -4.2,-5.26899 -6.009,-8.98901 -1.419,-2.91798 -2.119,-5.12498 -3.095,-8.19898 -2.021,-6.36701 -2.315,-9.976 -2.394,-11.80301 -0.01,-0.22507 -0.037,-0.91401 -0.033,-1.851 0.044,-9.20299 3.095,-24.458 3.944,-28.91801 1.172,-6.15398 2.083,-10.93799 2.583,-17.38899 0.744,-9.598 -0.128,-13.76699 -0.448,-25.87201 -0.192,-7.25598 -0.02,-12.665 0.322,-23.483 0.531,-16.733 1.604,-29.661 2.463,-39.83899 1.611,-19.094 1.91,-15.41299 2.045,-21.48199 0.09,-4.02001 0.092,-11.6 2.35,-21.176 1.407,-5.969 2.77,-8.81002 4.579,-9.01902 1.751,-0.20296 3.382,2.12 4.266,3.38 3.171,4.51701 3.5,9.33101 3.717,11.553 0.943,9.67201 3.413,7.952 5.765,20.97601 0.34,1.88201 1.602,9.19199 1.588,18.81301 -0.014,9.64199 -1.295,11.00199 -0.916,19.88798 0.138,3.24601 0.312,3.12801 1.823,15.34 1.302,10.52002 1.953,15.78101 2.24,19.98102 0.389,5.69999 0.312,11.049 0.157,21.74701 -0.091,6.23497 -0.248,11.53899 -0.563,22.14697 -0.393,13.212 -0.549,16.23303 0,21.75503 0.626,6.33498 1.08,10.57297 3.32,15.85599 3.508,8.27098 8.848,13.097 10.201,14.274 1.753,1.52699 4.864,3.938 16.067,8.30699 9.378,3.65802 12.441,4.014 26.446,8.51502 6.22,1.99998 4.463,1.55899 19.68,6.65699 12.095,4.05199 18.143,6.07799 21.898,7.13801 10.124,2.86098 18.174,4.41099 25.564,5.818 8.04,1.52897 8.169,1.29699 23.353,3.85299 12.132,2.04301 18.197,3.06399 25.354,4.62501 3.568,0.77799 13.547,3.013 25.415,7.00999 8.13,2.73798 10.842,4.18 12.985,5.529 4.316,2.71698 5.547,4.569 9.684,6.47799 4.536,2.09401 8.239,2.25902 11.722,2.59299 6.091,0.58502 12.525,2.22702 25.395,5.51302 13.543,3.45699 13.433,4.742 22.937,6.44199 7.748,1.386 7.679,0.50601 17.925,1.94601 9.202,1.293 10.036,2.11099 24.743,4.94399 11.76,2.26602 17.641,3.39801 23.145,3.86102 7.3321,0.61699 14.63731,2.45398 21.98131,2.01098 2.729,-0.16413 6.548,-0.56699 9.179,1.807 0,0 1.042,0.93901 4.089,7.42601 1.332,0.831 3.406,2.00801 6.091,3.05201 3.62,1.40799 5.968,1.648 13.573,2.76298 7.78,1.141 11.712,1.72701 13.776,2.463 3.94,1.404 4.115,2.203 9.326,4.09702 3.023,1.099 5.47,1.74099 9.628,2.83198 8.042,2.11 10.46,2.28102 11.302,4.32701 0.648,1.576 0.099,3.63101 -0.966,4.82899 -1.233,1.38702 -3.099,1.558 -4.224,1.645 -11.8,0.91301 -15.855,0.46202 -15.855,0.46202 -3.826,-0.425 -6.957,-0.92101 -11.086,-1.64501 -8.286,-1.45301 -12.611,-2.42699 -16.508,-3.171 -9.143,-1.74699 -13.206,-1.713 -22.121,-2.74201 -6.565,-0.75798 -15.36304,-2.513 -32.95931,-6.023 -16.466,-3.28498 -24.698,-4.92698 -35.96,-7.62698 -11.08,-2.65601 -19.541,-4.98501 -29.538,-7.737 -2.456,-0.676 -10.901,-3.09401 -27.79,-7.93202 -18.84,-5.396 -28.26,-8.09399 -28.355,-8.157 -0.701,-0.45598 -5.9299,-2.71623 -12.5209,-3.56722 z"
         style="fill:#201f58;fill-opacity:1;fill-rule:nonzero;stroke:none;stroke-width:0.852618;stroke-miterlimit:4;stroke-dasharray:none;stroke-opacity:1"
         id="path1544-5-0"
         sodipodi:nodetypes="ccscscccccccccccccccsccccscccccccccsccccccccccsccccsscccsccccccccccscsccsccccscccc" />
    </g>
  </g>
</svg>
